<?xml version="1.0" encoding="utf-8"?>
<svg version="1.1" xmlns:xlink="http://www.w3.org/1999/xlink" width="27px" height="30px" xmlns="http://www.w3.org/2000/svg">
  <g transform="matrix(1 0 0 1 -246 -9 )">
    <path d="M 2.07692307692308 23.0357142857143  L 2.07692307692308 27.8571428571429  L 6.75 27.8571428571429  L 6.75 23.0357142857143  L 2.07692307692308 23.0357142857143  Z M 7.78846153846154 23.0357142857143  L 7.78846153846154 27.8571428571429  L 12.9807692307692 27.8571428571429  L 12.9807692307692 23.0357142857143  L 7.78846153846154 23.0357142857143  Z M 2.07692307692308 16.6071428571429  L 2.07692307692308 21.9642857142857  L 6.75 21.9642857142857  L 6.75 16.6071428571429  L 2.07692307692308 16.6071428571429  Z M 7.78846153846154 16.6071428571429  L 7.78846153846154 21.9642857142857  L 12.9807692307692 21.9642857142857  L 12.9807692307692 16.6071428571429  L 7.78846153846154 16.6071428571429  Z M 2.07692307692308 10.7142857142857  L 2.07692307692308 15.5357142857143  L 6.75 15.5357142857143  L 6.75 10.7142857142857  L 2.07692307692308 10.7142857142857  Z M 14.0192307692308 23.0357142857143  L 14.0192307692308 27.8571428571429  L 19.2115384615385 27.8571428571429  L 19.2115384615385 23.0357142857143  L 14.0192307692308 23.0357142857143  Z M 7.78846153846154 10.7142857142857  L 7.78846153846154 15.5357142857143  L 12.9807692307692 15.5357142857143  L 12.9807692307692 10.7142857142857  L 7.78846153846154 10.7142857142857  Z M 20.25 23.0357142857143  L 20.25 27.8571428571429  L 24.9230769230769 27.8571428571429  L 24.9230769230769 23.0357142857143  L 20.25 23.0357142857143  Z M 14.0192307692308 16.6071428571429  L 14.0192307692308 21.9642857142857  L 19.2115384615385 21.9642857142857  L 19.2115384615385 16.6071428571429  L 14.0192307692308 16.6071428571429  Z M 8.15354567307692 7.87667410714286  C 8.25631009615385 7.77064732142857  8.30769230769231 7.64508928571428  8.30769230769231 7.5  L 8.30769230769231 2.67857142857143  C 8.30769230769231 2.53348214285714  8.25631009615385 2.40792410714286  8.15354567307692 2.30189732142857  C 8.05078125 2.19587053571428  7.92908653846154 2.14285714285714  7.78846153846154 2.14285714285714  L 6.75 2.14285714285714  C 6.609375 2.14285714285714  6.48768028846154 2.19587053571428  6.38491586538462 2.30189732142857  C 6.28215144230769 2.40792410714286  6.23076923076923 2.53348214285714  6.23076923076923 2.67857142857143  L 6.23076923076923 7.5  C 6.23076923076923 7.64508928571428  6.28215144230769 7.77064732142857  6.38491586538462 7.87667410714286  C 6.48768028846154 7.98270089285714  6.609375 8.03571428571429  6.75 8.03571428571429  L 7.78846153846154 8.03571428571429  C 7.92908653846154 8.03571428571429  8.05078125 7.98270089285714  8.15354567307692 7.87667410714286  Z M 20.25 16.6071428571429  L 20.25 21.9642857142857  L 24.9230769230769 21.9642857142857  L 24.9230769230769 16.6071428571429  L 20.25 16.6071428571429  Z M 14.0192307692308 10.7142857142857  L 14.0192307692308 15.5357142857143  L 19.2115384615385 15.5357142857143  L 19.2115384615385 10.7142857142857  L 14.0192307692308 10.7142857142857  Z M 20.25 10.7142857142857  L 20.25 15.5357142857143  L 24.9230769230769 15.5357142857143  L 24.9230769230769 10.7142857142857  L 20.25 10.7142857142857  Z M 20.6150841346154 7.87667410714286  C 20.7178485576923 7.77064732142857  20.7692307692308 7.64508928571428  20.7692307692308 7.5  L 20.7692307692308 2.67857142857143  C 20.7692307692308 2.53348214285714  20.7178485576923 2.40792410714286  20.6150841346154 2.30189732142857  C 20.5123197115385 2.19587053571428  20.390625 2.14285714285714  20.25 2.14285714285714  L 19.2115384615385 2.14285714285714  C 19.0709134615385 2.14285714285714  18.94921875 2.19587053571428  18.8464543269231 2.30189732142857  C 18.7436899038462 2.40792410714286  18.6923076923077 2.53348214285714  18.6923076923077 2.67857142857143  L 18.6923076923077 7.5  C 18.6923076923077 7.64508928571428  18.7436899038462 7.77064732142857  18.8464543269231 7.87667410714286  C 18.94921875 7.98270089285714  19.0709134615385 8.03571428571429  19.2115384615385 8.03571428571429  L 20.25 8.03571428571429  C 20.390625 8.03571428571429  20.5123197115385 7.98270089285714  20.6150841346154 7.87667410714286  Z M 26.3834134615385 4.921875  C 26.7944711538462 5.34598214285714  27 5.84821428571428  27 6.42857142857143  L 27 27.8571428571429  C 27 28.4375  26.7944711538462 28.9397321428571  26.3834134615385 29.3638392857143  C 25.9723557692308 29.7879464285714  25.4855769230769 30  24.9230769230769 30  L 2.07692307692308 30  C 1.51442307692308 30  1.02764423076923 29.7879464285714  0.616586538461538 29.3638392857143  C 0.205528846153846 28.9397321428571  0 28.4375  0 27.8571428571429  L 0 6.42857142857143  C 0 5.84821428571428  0.205528846153846 5.34598214285714  0.616586538461538 4.921875  C 1.02764423076923 4.49776785714285  1.51442307692308 4.28571428571429  2.07692307692308 4.28571428571429  L 4.15384615384615 4.28571428571429  L 4.15384615384615 2.67857142857143  C 4.15384615384615 1.94196428571429  4.40805288461539 1.31138392857143  4.91646634615385 0.786830357142858  C 5.42487980769231 0.262276785714286  6.03605769230769 0  6.75 0  L 7.78846153846154 0  C 8.50240384615385 0  9.11358173076923 0.262276785714286  9.62199519230769 0.786830357142858  C 10.1304086538462 1.31138392857143  10.3846153846154 1.94196428571429  10.3846153846154 2.67857142857143  L 10.3846153846154 4.28571428571429  L 16.6153846153846 4.28571428571429  L 16.6153846153846 2.67857142857143  C 16.6153846153846 1.94196428571429  16.8695913461538 1.31138392857143  17.3780048076923 0.786830357142858  C 17.8864182692308 0.262276785714286  18.4975961538462 0  19.2115384615385 0  L 20.25 0  C 20.9639423076923 0  21.5751201923077 0.262276785714286  22.0835336538462 0.786830357142858  C 22.5919471153846 1.31138392857143  22.8461538461538 1.94196428571429  22.8461538461538 2.67857142857143  L 22.8461538461538 4.28571428571429  L 24.9230769230769 4.28571428571429  C 25.4855769230769 4.28571428571429  25.9723557692308 4.49776785714285  26.3834134615385 4.921875  Z " fill-rule="nonzero" fill="#000000" stroke="none" transform="matrix(1 0 0 1 246 9 )" />
  </g>
</svg>