<?xml version="1.0" encoding="utf-8"?>
<svg version="1.1" xmlns:xlink="http://www.w3.org/1999/xlink" width="12px" height="12px" viewBox="111 27.5  12 12" xmlns="http://www.w3.org/2000/svg">
  <path d="M 117 27.5  C 120.36 27.5  123 30.14  123 33.5  C 123 36.86  120.36 39.5  117 39.5  C 113.64 39.5  111 36.86  111 33.5  C 111 30.14  113.64 27.5  117 27.5  Z " fill-rule="nonzero" fill="#ffffff" stroke="none" />
  <path d="M 117 28  C 120.08 28  122.5 30.42  122.5 33.5  C 122.5 36.58  120.08 39  117 39  C 113.92 39  111.5 36.58  111.5 33.5  C 111.5 30.42  113.92 28  117 28  Z " stroke-width="1" stroke="#797979" fill="none" />
  <path d="M 117 36.5  C 115.32 36.5  114 35.18  114 33.5  C 114 31.82  115.32 30.5  117 30.5  C 118.68 30.5  120 31.82  120 33.5  C 120 35.18  118.68 36.5  117 36.5  " fill-rule="nonzero" fill="#797979" stroke="none" />
</svg>