<?xml version="1.0" encoding="utf-8"?>
<svg version="1.1" xmlns:xlink="http://www.w3.org/1999/xlink" width="12px" height="12px" viewBox="156 22.5  12 12" xmlns="http://www.w3.org/2000/svg">
  <path d="M 162 22.5  C 165.36 22.5  168 25.14  168 28.5  C 168 31.86  165.36 34.5  162 34.5  C 158.64 34.5  156 31.86  156 28.5  C 156 25.14  158.64 22.5  162 22.5  Z " fill-rule="nonzero" fill="#f0f0f0" stroke="none" />
  <path d="M 162 23  C 165.08 23  167.5 25.42  167.5 28.5  C 167.5 31.58  165.08 34  162 34  C 158.92 34  156.5 31.58  156.5 28.5  C 156.5 25.42  158.92 23  162 23  Z " stroke-width="1" stroke="#797979" fill="none" />
  <path d="M 162 31.5  C 160.32 31.5  159 30.18  159 28.5  C 159 26.82  160.32 25.5  162 25.5  C 163.68 25.5  165 26.82  165 28.5  C 165 30.18  163.68 31.5  162 31.5  " fill-rule="nonzero" fill="#797979" stroke="none" />
</svg>