<?xml version="1.0" encoding="utf-8"?>
<svg version="1.1" xmlns:xlink="http://www.w3.org/1999/xlink" width="12px" height="12px" viewBox="296 53.5  12 12" xmlns="http://www.w3.org/2000/svg">
  <path d="M 302 53.5  C 305.36 53.5  308 56.14  308 59.5  C 308 62.86  305.36 65.5  302 65.5  C 298.64 65.5  296 62.86  296 59.5  C 296 56.14  298.64 53.5  302 53.5  Z " fill-rule="nonzero" fill="#ffffff" stroke="none" />
  <path d="M 302 54  C 305.08 54  307.5 56.42  307.5 59.5  C 307.5 62.58  305.08 65  302 65  C 298.92 65  296.5 62.58  296.5 59.5  C 296.5 56.42  298.92 54  302 54  Z " stroke-width="1" stroke="#797979" fill="none" />
  <path d="M 302 62.5  C 300.32 62.5  299 61.18  299 59.5  C 299 57.82  300.32 56.5  302 56.5  C 303.68 56.5  305 57.82  305 59.5  C 305 61.18  303.68 62.5  302 62.5  " fill-rule="nonzero" fill="#797979" stroke="none" />
</svg>