<?xml version="1.0" encoding="utf-8"?>
<svg version="1.1" xmlns:xlink="http://www.w3.org/1999/xlink" width="18px" height="18px" xmlns="http://www.w3.org/2000/svg">
  <g transform="matrix(1 0 0 1 -744 -155 )">
    <path d="M 13.9453125 7.5  C 13.9453125 7.703125  13.87109375 7.87890625  13.72265625 8.02734375  L 8.77734375 12.97265625  C 8.62890625 13.12109375  8.453125 13.1953125  8.25 13.1953125  C 8.046875 13.1953125  7.87109375 13.12109375  7.72265625 12.97265625  L 4.27734375 9.52734375  C 4.12890625 9.37890625  4.0546875 9.203125  4.0546875 9  C 4.0546875 8.796875  4.12890625 8.62109375  4.27734375 8.47265625  L 5.47265625 7.27734375  C 5.62109375 7.12890625  5.796875 7.0546875  6 7.0546875  C 6.203125 7.0546875  6.37890625 7.12890625  6.52734375 7.27734375  L 8.25 9  L 11.47265625 5.77734375  C 11.62109375 5.62890625  11.796875 5.5546875  12 5.5546875  C 12.203125 5.5546875  12.37890625 5.62890625  12.52734375 5.77734375  L 13.72265625 6.97265625  C 13.87109375 7.12109375  13.9453125 7.296875  13.9453125 7.5  Z M 14.51953125 12.19921875  C 15.08984375 11.22265625  15.375 10.15625  15.375 9  C 15.375 7.84375  15.08984375 6.77734375  14.51953125 5.80078125  C 13.94921875 4.82421875  13.17578125 4.05078125  12.19921875 3.48046875  C 11.22265625 2.91015625  10.15625 2.625  9 2.625  C 7.84375 2.625  6.77734375 2.91015625  5.80078125 3.48046875  C 4.82421875 4.05078125  4.05078125 4.82421875  3.48046875 5.80078125  C 2.91015625 6.77734375  2.625 7.84375  2.625 9  C 2.625 10.15625  2.91015625 11.22265625  3.48046875 12.19921875  C 4.05078125 13.17578125  4.82421875 13.94921875  5.80078125 14.51953125  C 6.77734375 15.08984375  7.84375 15.375  9 15.375  C 10.15625 15.375  11.22265625 15.08984375  12.19921875 14.51953125  C 13.17578125 13.94921875  13.94921875 13.17578125  14.51953125 12.19921875  Z M 16.79296875 4.482421875  C 17.59765625 5.861328125  18 7.3671875  18 9  C 18 10.6328125  17.59765625 12.138671875  16.79296875 13.517578125  C 15.98828125 14.896484375  14.896484375 15.98828125  13.517578125 16.79296875  C 12.138671875 17.59765625  10.6328125 18  9 18  C 7.3671875 18  5.861328125 17.59765625  4.482421875 16.79296875  C 3.103515625 15.98828125  2.01171875 14.896484375  1.20703125 13.517578125  C 0.40234375 12.138671875  0 10.6328125  0 9  C 0 7.3671875  0.40234375 5.861328125  1.20703125 4.482421875  C 2.01171875 3.103515625  3.103515625 2.01171875  4.482421875 1.20703125  C 5.861328125 0.402343749999998  7.3671875 0  9 0  C 10.6328125 0  12.138671875 0.402343749999998  13.517578125 1.20703125  C 14.896484375 2.01171875  15.98828125 3.103515625  16.79296875 4.482421875  Z " fill-rule="nonzero" fill="#70b603" stroke="none" transform="matrix(1 0 0 1 744 155 )" />
  </g>
</svg>