<?xml version="1.0" encoding="utf-8"?>
<svg version="1.1" xmlns:xlink="http://www.w3.org/1999/xlink" width="12px" height="12px" viewBox="466 290.5  12 12" xmlns="http://www.w3.org/2000/svg">
  <path d="M 472 290.5  C 475.36 290.5  478 293.14  478 296.5  C 478 299.86  475.36 302.5  472 302.5  C 468.64 302.5  466 299.86  466 296.5  C 466 293.14  468.64 290.5  472 290.5  Z " fill-rule="nonzero" fill="#f0f0f0" stroke="none" />
  <path d="M 472 291  C 475.08 291  477.5 293.42  477.5 296.5  C 477.5 299.58  475.08 302  472 302  C 468.92 302  466.5 299.58  466.5 296.5  C 466.5 293.42  468.92 291  472 291  Z " stroke-width="1" stroke="#797979" fill="none" />
  <path d="M 472 299.5  C 470.32 299.5  469 298.18  469 296.5  C 469 294.82  470.32 293.5  472 293.5  C 473.68 293.5  475 294.82  475 296.5  C 475 298.18  473.68 299.5  472 299.5  " fill-rule="nonzero" fill="#797979" stroke="none" />
</svg>