<?xml version="1.0" encoding="utf-8"?>
<svg version="1.1" xmlns:xlink="http://www.w3.org/1999/xlink" width="12px" height="12px" viewBox="167 282.5  12 12" xmlns="http://www.w3.org/2000/svg">
  <path d="M 173 282.5  C 176.36 282.5  179 285.14  179 288.5  C 179 291.86  176.36 294.5  173 294.5  C 169.64 294.5  167 291.86  167 288.5  C 167 285.14  169.64 282.5  173 282.5  Z " fill-rule="nonzero" fill="#f0f0f0" stroke="none" />
  <path d="M 173 283  C 176.08 283  178.5 285.42  178.5 288.5  C 178.5 291.58  176.08 294  173 294  C 169.92 294  167.5 291.58  167.5 288.5  C 167.5 285.42  169.92 283  173 283  Z " stroke-width="1" stroke="#797979" fill="none" />
  <path d="M 173 291.5  C 171.32 291.5  170 290.18  170 288.5  C 170 286.82  171.32 285.5  173 285.5  C 174.68 285.5  176 286.82  176 288.5  C 176 290.18  174.68 291.5  173 291.5  " fill-rule="nonzero" fill="#797979" stroke="none" />
</svg>