<?xml version="1.0" encoding="utf-8"?>
<svg version="1.1" xmlns:xlink="http://www.w3.org/1999/xlink" width="29px" height="28px" xmlns="http://www.w3.org/2000/svg">
  <g transform="matrix(1 0 0 1 -156 -160 )">
    <path d="M 16.7467447916667 23.1692708333333  C 16.8600260416667 23.0598958333333  16.9166666666667 22.9201388888889  16.9166666666667 22.75  L 16.9166666666667 19.25  C 16.9166666666667 19.0798611111111  16.8600260416667 18.9401041666667  16.7467447916667 18.8307291666667  C 16.6334635416667 18.7213541666667  16.4887152777778 18.6666666666667  16.3125 18.6666666666667  L 12.6875 18.6666666666667  C 12.5112847222222 18.6666666666667  12.3665364583333 18.7213541666667  12.2532552083333 18.8307291666667  C 12.1399739583333 18.9401041666667  12.0833333333333 19.0798611111111  12.0833333333333 19.25  L 12.0833333333333 22.75  C 12.0833333333333 22.9201388888889  12.1399739583333 23.0598958333333  12.2532552083333 23.1692708333333  C 12.3665364583333 23.2786458333333  12.5112847222222 23.3333333333333  12.6875 23.3333333333333  L 16.3125 23.3333333333333  C 16.4887152777778 23.3333333333333  16.6334635416667 23.2786458333333  16.7467447916667 23.1692708333333  Z M 21.5139973958333 11.9765625  C 21.6713324652778 11.5269097222222  21.75 11.0347222222222  21.75 10.5  C 21.75 9.43055555555555  21.4007161458333 8.44010416666667  20.7021484375 7.52864583333333  C 20.0035807291667 6.6171875  19.1319444444444 5.91232638888889  18.0872395833333 5.4140625  C 17.0425347222222 4.91579861111111  15.97265625 4.66666666666667  14.8776041666667 4.66666666666667  C 11.8190104166667 4.66666666666667  9.48415798611111 5.9609375  7.873046875 8.54947916666667  C 7.68424479166667 8.84114583333333  7.73459201388889 9.09635416666667  8.02408854166667 9.31510416666667  L 10.5162760416667 11.1380208333333  C 10.6043836805556 11.2109375  10.7239583333333 11.2473958333333  10.875 11.2473958333333  C 11.0763888888889 11.2473958333333  11.2337239583333 11.1744791666667  11.3470052083333 11.0286458333333  C 12.0141059027778 10.2022569444444  12.5553385416667 9.64322916666667  12.970703125 9.3515625  C 13.3986545138889 9.05989583333333  13.9398871527778 8.9140625  14.5944010416667 8.9140625  C 15.1985677083333 8.9140625  15.7366536458333 9.07204861111111  16.2086588541667 9.38802083333333  C 16.6806640625 9.70399305555555  16.9166666666667 10.0625  16.9166666666667 10.4635416666667  C 16.9166666666667 10.9253472222222  16.7907986111111 11.2960069444444  16.5390625 11.5755208333333  C 16.2873263888889 11.8550347222222  15.859375 12.1284722222222  15.2552083333333 12.3958333333333  C 14.4622395833333 12.7361111111111  13.7353515625 13.26171875  13.0745442708333 13.97265625  C 12.4137369791667 14.68359375  12.0833333333333 15.4461805555556  12.0833333333333 16.2604166666667  L 12.0833333333333 16.9166666666667  C 12.0833333333333 17.0868055555556  12.1399739583333 17.2265625  12.2532552083333 17.3359375  C 12.3665364583333 17.4453125  12.5112847222222 17.5  12.6875 17.5  L 16.3125 17.5  C 16.4887152777778 17.5  16.6334635416667 17.4453125  16.7467447916667 17.3359375  C 16.8600260416667 17.2265625  16.9166666666667 17.0868055555556  16.9166666666667 16.9166666666667  C 16.9166666666667 16.6857638888889  17.0519748263889 16.3849826388889  17.3225911458333 16.0143229166667  C 17.5932074652778 15.6436631944444  17.9361979166667 15.3428819444444  18.3515625 15.1119791666667  C 18.7543402777778 14.8932291666667  19.0627170138889 14.7200520833333  19.2766927083333 14.5924479166667  C 19.4906684027778 14.46484375  19.7801649305556 14.2521701388889  20.1451822916667 13.9544270833333  C 20.5101996527778 13.6566840277778  20.7902560763889 13.3650173611111  20.9853515625 13.0794270833333  C 21.1804470486111 12.7938368055556  21.3566623263889 12.4262152777778  21.5139973958333 11.9765625  Z M 27.0553385416667 6.97265625  C 28.3517795138889 9.11762152777778  29 11.4600694444444  29 14  C 29 16.5399305555556  28.3517795138889 18.8823784722222  27.0553385416667 21.02734375  C 25.7588975694444 23.1723090277778  23.9998914930556 24.8706597222222  21.7783203125 26.1223958333333  C 19.5567491319444 27.3741319444444  17.1306423611111 28  14.5 28  C 11.8693576388889 28  9.44325086805556 27.3741319444444  7.2216796875 26.1223958333333  C 5.00010850694444 24.8706597222222  3.24110243055556 23.1723090277778  1.94466145833333 21.02734375  C 0.648220486111111 18.8823784722222  0 16.5399305555556  0 14  C 0 11.4600694444444  0.648220486111111 9.11762152777778  1.94466145833333 6.97265625  C 3.24110243055556 4.82769097222222  5.00010850694444 3.12934027777778  7.2216796875 1.87760416666667  C 9.44325086805556 0.625868055555553  11.8693576388889 0  14.5 0  C 17.1306423611111 0  19.5567491319444 0.625868055555553  21.7783203125 1.87760416666667  C 23.9998914930556 3.12934027777778  25.7588975694444 4.82769097222222  27.0553385416667 6.97265625  Z " fill-rule="nonzero" fill="#000000" stroke="none" transform="matrix(1 0 0 1 156 160 )" />
  </g>
</svg>