<?xml version="1.0" encoding="utf-8"?>
<svg version="1.1" xmlns:xlink="http://www.w3.org/1999/xlink" width="12px" height="12px" viewBox="267 282.5  12 12" xmlns="http://www.w3.org/2000/svg">
  <path d="M 273 282.5  C 276.36 282.5  279 285.14  279 288.5  C 279 291.86  276.36 294.5  273 294.5  C 269.64 294.5  267 291.86  267 288.5  C 267 285.14  269.64 282.5  273 282.5  Z " fill-rule="nonzero" fill="#f0f0f0" stroke="none" />
  <path d="M 273 283  C 276.08 283  278.5 285.42  278.5 288.5  C 278.5 291.58  276.08 294  273 294  C 269.92 294  267.5 291.58  267.5 288.5  C 267.5 285.42  269.92 283  273 283  Z " stroke-width="1" stroke="#797979" fill="none" />
  <path d="M 273 291.5  C 271.32 291.5  270 290.18  270 288.5  C 270 286.82  271.32 285.5  273 285.5  C 274.68 285.5  276 286.82  276 288.5  C 276 290.18  274.68 291.5  273 291.5  " fill-rule="nonzero" fill="#797979" stroke="none" />
</svg>