<?xml version="1.0" encoding="utf-8"?>
<svg version="1.1" xmlns:xlink="http://www.w3.org/1999/xlink" width="21px" height="19px" xmlns="http://www.w3.org/2000/svg">
  <g transform="matrix(1 0 0 1 -356 -277 )">
    <path d="M 13.876953125 15.7220052083333  C 13.958984375 15.6477864583333  14 15.5529513888889  14 15.4375  L 14 13.4583333333333  C 14 13.3428819444444  13.958984375 13.248046875  13.876953125 13.173828125  C 13.794921875 13.099609375  13.6901041666667 13.0625  13.5625 13.0625  L 12.25 13.0625  L 12.25 6.72916666666667  C 12.25 6.61371527777778  12.208984375 6.51888020833333  12.126953125 6.44466145833333  C 12.044921875 6.37044270833333  11.9401041666667 6.33333333333333  11.8125 6.33333333333333  L 7.4375 6.33333333333333  C 7.30989583333333 6.33333333333333  7.205078125 6.37044270833333  7.123046875 6.44466145833333  C 7.041015625 6.51888020833333  7 6.61371527777778  7 6.72916666666667  L 7 8.70833333333333  C 7 8.82378472222222  7.041015625 8.91861979166667  7.123046875 8.99283854166667  C 7.205078125 9.06705729166667  7.30989583333333 9.10416666666667  7.4375 9.10416666666667  L 8.75 9.10416666666667  L 8.75 13.0625  L 7.4375 13.0625  C 7.30989583333333 13.0625  7.205078125 13.099609375  7.123046875 13.173828125  C 7.041015625 13.248046875  7 13.3428819444444  7 13.4583333333333  L 7 15.4375  C 7 15.5529513888889  7.041015625 15.6477864583333  7.123046875 15.7220052083333  C 7.205078125 15.7962239583333  7.30989583333333 15.8333333333333  7.4375 15.8333333333333  L 13.5625 15.8333333333333  C 13.6901041666667 15.8333333333333  13.794921875 15.7962239583333  13.876953125 15.7220052083333  Z M 12.126953125 4.638671875  C 12.208984375 4.564453125  12.25 4.46961805555555  12.25 4.35416666666667  L 12.25 2.375  C 12.25 2.25954861111111  12.208984375 2.16471354166667  12.126953125 2.09049479166667  C 12.044921875 2.01627604166667  11.9401041666667 1.97916666666667  11.8125 1.97916666666667  L 9.1875 1.97916666666667  C 9.05989583333333 1.97916666666667  8.955078125 2.01627604166667  8.873046875 2.09049479166667  C 8.791015625 2.16471354166667  8.75 2.25954861111111  8.75 2.375  L 8.75 4.35416666666667  C 8.75 4.46961805555555  8.791015625 4.564453125  8.873046875 4.638671875  C 8.955078125 4.712890625  9.05989583333333 4.75  9.1875 4.75  L 11.8125 4.75  C 11.9401041666667 4.75  12.044921875 4.712890625  12.126953125 4.638671875  Z M 19.591796875 4.7314453125  C 20.5305989583333 6.18695746527778  21 7.77647569444444  21 9.5  C 21 11.2235243055556  20.5305989583333 12.8130425347222  19.591796875 14.2685546875  C 18.6529947916667 15.7240668402778  17.3792317708333 16.8765190972222  15.7705078125 17.7259114583333  C 14.1617838541667 18.5753038194444  12.4049479166667 19  10.5 19  C 8.59505208333333 19  6.83821614583333 18.5753038194444  5.2294921875 17.7259114583333  C 3.62076822916667 16.8765190972222  2.34700520833333 15.7240668402778  1.408203125 14.2685546875  C 0.469401041666667 12.8130425347222  0 11.2235243055556  0 9.5  C 0 7.77647569444444  0.469401041666667 6.18695746527778  1.408203125 4.7314453125  C 2.34700520833333 3.27593315972222  3.62076822916667 2.12348090277778  5.2294921875 1.27408854166667  C 6.83821614583333 0.424696180555554  8.59505208333333 0  10.5 0  C 12.4049479166667 0  14.1617838541667 0.424696180555554  15.7705078125 1.27408854166667  C 17.3792317708333 2.12348090277778  18.6529947916667 3.27593315972222  19.591796875 4.7314453125  Z " fill-rule="nonzero" fill="#000000" stroke="none" transform="matrix(1 0 0 1 356 277 )" />
  </g>
</svg>