<?xml version="1.0" encoding="utf-8"?>
<svg version="1.1" xmlns:xlink="http://www.w3.org/1999/xlink" width="12px" height="12px" viewBox="446 329.5  12 12" xmlns="http://www.w3.org/2000/svg">
  <path d="M 452 329.5  C 455.36 329.5  458 332.14  458 335.5  C 458 338.86  455.36 341.5  452 341.5  C 448.64 341.5  446 338.86  446 335.5  C 446 332.14  448.64 329.5  452 329.5  Z " fill-rule="nonzero" fill="#f2f2f2" stroke="none" />
  <path d="M 452 330  C 455.08 330  457.5 332.42  457.5 335.5  C 457.5 338.58  455.08 341  452 341  C 448.92 341  446.5 338.58  446.5 335.5  C 446.5 332.42  448.92 330  452 330  Z " stroke-width="1" stroke="#797979" fill="none" />
  <path d="M 452 338.5  C 450.32 338.5  449 337.18  449 335.5  C 449 333.82  450.32 332.5  452 332.5  C 453.68 332.5  455 333.82  455 335.5  C 455 337.18  453.68 338.5  452 338.5  " fill-rule="nonzero" fill="#797979" stroke="none" />
</svg>