<?xml version="1.0" encoding="utf-8"?>
<svg version="1.1" xmlns:xlink="http://www.w3.org/1999/xlink" width="12px" height="12px" viewBox="213 329.5  12 12" xmlns="http://www.w3.org/2000/svg">
  <path d="M 219 329.5  C 222.36 329.5  225 332.14  225 335.5  C 225 338.86  222.36 341.5  219 341.5  C 215.64 341.5  213 338.86  213 335.5  C 213 332.14  215.64 329.5  219 329.5  Z " fill-rule="nonzero" fill="#f0f0f0" stroke="none" />
  <path d="M 219 330  C 222.08 330  224.5 332.42  224.5 335.5  C 224.5 338.58  222.08 341  219 341  C 215.92 341  213.5 338.58  213.5 335.5  C 213.5 332.42  215.92 330  219 330  Z " stroke-width="1" stroke="#797979" fill="none" />
  <path d="M 219 338.5  C 217.32 338.5  216 337.18  216 335.5  C 216 333.82  217.32 332.5  219 332.5  C 220.68 332.5  222 333.82  222 335.5  C 222 337.18  220.68 338.5  219 338.5  " fill-rule="nonzero" fill="#797979" stroke="none" />
</svg>