<?xml version="1.0" encoding="utf-8"?>
<svg version="1.1" xmlns:xlink="http://www.w3.org/1999/xlink" width="12px" height="12px" viewBox="366 290.5  12 12" xmlns="http://www.w3.org/2000/svg">
  <path d="M 372 290.5  C 375.36 290.5  378 293.14  378 296.5  C 378 299.86  375.36 302.5  372 302.5  C 368.64 302.5  366 299.86  366 296.5  C 366 293.14  368.64 290.5  372 290.5  Z " fill-rule="nonzero" fill="#f2f2f2" stroke="none" />
  <path d="M 372 291  C 375.08 291  377.5 293.42  377.5 296.5  C 377.5 299.58  375.08 302  372 302  C 368.92 302  366.5 299.58  366.5 296.5  C 366.5 293.42  368.92 291  372 291  Z " stroke-width="1" stroke="#797979" fill="none" />
  <path d="M 372 299.5  C 370.32 299.5  369 298.18  369 296.5  C 369 294.82  370.32 293.5  372 293.5  C 373.68 293.5  375 294.82  375 296.5  C 375 298.18  373.68 299.5  372 299.5  " fill-rule="nonzero" fill="#797979" stroke="none" />
</svg>