<?xml version="1.0" encoding="utf-8"?>
<svg version="1.1" xmlns:xlink="http://www.w3.org/1999/xlink" width="12px" height="12px" viewBox="174 15.5  12 12" xmlns="http://www.w3.org/2000/svg">
  <path d="M 180 15.5  C 183.36 15.5  186 18.14  186 21.5  C 186 24.86  183.36 27.5  180 27.5  C 176.64 27.5  174 24.86  174 21.5  C 174 18.14  176.64 15.5  180 15.5  Z " fill-rule="nonzero" fill="#f0f0f0" stroke="none" />
  <path d="M 180 16  C 183.08 16  185.5 18.42  185.5 21.5  C 185.5 24.58  183.08 27  180 27  C 176.92 27  174.5 24.58  174.5 21.5  C 174.5 18.42  176.92 16  180 16  Z " stroke-width="1" stroke="#797979" fill="none" />
  <path d="M 180 24.5  C 178.32 24.5  177 23.18  177 21.5  C 177 19.82  178.32 18.5  180 18.5  C 181.68 18.5  183 19.82  183 21.5  C 183 23.18  181.68 24.5  180 24.5  " fill-rule="nonzero" fill="#797979" stroke="none" />
</svg>