<?xml version="1.0" encoding="utf-8"?>
<svg version="1.1" xmlns:xlink="http://www.w3.org/1999/xlink" width="21px" height="19px" xmlns="http://www.w3.org/2000/svg">
  <g transform="matrix(1 0 0 1 -277 -26 )">
    <path d="M 12.126953125 15.7220052083333  C 12.208984375 15.6477864583333  12.25 15.5529513888889  12.25 15.4375  L 12.25 13.0625  C 12.25 12.9470486111111  12.208984375 12.8522135416667  12.126953125 12.7779947916667  C 12.044921875 12.7037760416667  11.9401041666667 12.6666666666667  11.8125 12.6666666666667  L 9.1875 12.6666666666667  C 9.05989583333333 12.6666666666667  8.955078125 12.7037760416667  8.873046875 12.7779947916667  C 8.791015625 12.8522135416667  8.75 12.9470486111111  8.75 13.0625  L 8.75 15.4375  C 8.75 15.5529513888889  8.791015625 15.6477864583333  8.873046875 15.7220052083333  C 8.955078125 15.7962239583333  9.05989583333333 15.8333333333333  9.1875 15.8333333333333  L 11.8125 15.8333333333333  C 11.9401041666667 15.8333333333333  12.044921875 15.7962239583333  12.126953125 15.7220052083333  Z M 15.5791015625 8.126953125  C 15.6930338541667 7.82183159722222  15.75 7.48784722222222  15.75 7.125  C 15.75 6.39930555555555  15.4970703125 5.72721354166667  14.9912109375 5.10872395833333  C 14.4853515625 4.490234375  13.8541666666667 4.01193576388889  13.09765625 3.673828125  C 12.3411458333333 3.33572048611111  11.56640625 3.16666666666667  10.7734375 3.16666666666667  C 8.55859375 3.16666666666667  6.86783854166667 4.044921875  5.701171875 5.80143229166667  C 5.564453125 5.99934895833333  5.60091145833333 6.17252604166667  5.810546875 6.32096354166667  L 7.615234375 7.55794270833333  C 7.67903645833333 7.607421875  7.765625 7.63216145833333  7.875 7.63216145833333  C 8.02083333333333 7.63216145833333  8.134765625 7.58268229166667  8.216796875 7.48372395833333  C 8.69986979166667 6.92296006944444  9.091796875 6.54361979166667  9.392578125 6.345703125  C 9.70247395833333 6.14778645833333  10.0944010416667 6.048828125  10.568359375 6.048828125  C 11.005859375 6.048828125  11.3955078125 6.15603298611111  11.7373046875 6.37044270833333  C 12.0791015625 6.58485243055555  12.25 6.828125  12.25 7.10026041666667  C 12.25 7.41362847222222  12.1588541666667 7.66514756944444  11.9765625 7.85481770833333  C 11.7942708333333 8.04448784722222  11.484375 8.23003472222222  11.046875 8.41145833333333  C 10.47265625 8.64236111111111  9.9462890625 8.9990234375  9.4677734375 9.4814453125  C 8.9892578125 9.9638671875  8.75 10.4813368055556  8.75 11.0338541666667  L 8.75 11.4791666666667  C 8.75 11.5946180555556  8.791015625 11.689453125  8.873046875 11.763671875  C 8.955078125 11.837890625  9.05989583333333 11.875  9.1875 11.875  L 11.8125 11.875  C 11.9401041666667 11.875  12.044921875 11.837890625  12.126953125 11.763671875  C 12.208984375 11.689453125  12.25 11.5946180555556  12.25 11.4791666666667  C 12.25 11.3224826388889  12.3479817708333 11.1183810763889  12.5439453125 10.8668619791667  C 12.7399088541667 10.6153428819444  12.98828125 10.4112413194444  13.2890625 10.2545572916667  C 13.5807291666667 10.1061197916667  13.8040364583333 9.98860677083333  13.958984375 9.90201822916667  C 14.1139322916667 9.8154296875  14.3235677083333 9.67111545138889  14.587890625 9.46907552083333  C 14.8522135416667 9.26703559027778  15.0550130208333 9.06911892361111  15.1962890625 8.87532552083333  C 15.3375651041667 8.68153211805555  15.4651692708333 8.43207465277778  15.5791015625 8.126953125  Z M 19.591796875 4.7314453125  C 20.5305989583333 6.18695746527778  21 7.77647569444444  21 9.5  C 21 11.2235243055556  20.5305989583333 12.8130425347222  19.591796875 14.2685546875  C 18.6529947916667 15.7240668402778  17.3792317708333 16.8765190972222  15.7705078125 17.7259114583333  C 14.1617838541667 18.5753038194444  12.4049479166667 19  10.5 19  C 8.59505208333333 19  6.83821614583333 18.5753038194444  5.2294921875 17.7259114583333  C 3.62076822916667 16.8765190972222  2.34700520833333 15.7240668402778  1.408203125 14.2685546875  C 0.469401041666667 12.8130425347222  0 11.2235243055556  0 9.5  C 0 7.77647569444444  0.469401041666667 6.18695746527778  1.408203125 4.7314453125  C 2.34700520833333 3.27593315972222  3.62076822916667 2.12348090277778  5.2294921875 1.27408854166667  C 6.83821614583333 0.424696180555554  8.59505208333333 0  10.5 0  C 12.4049479166667 0  14.1617838541667 0.424696180555554  15.7705078125 1.27408854166667  C 17.3792317708333 2.12348090277778  18.6529947916667 3.27593315972222  19.591796875 4.7314453125  Z " fill-rule="nonzero" fill="#000000" stroke="none" transform="matrix(1 0 0 1 277 26 )" />
  </g>
</svg>