<?xml version="1.0" encoding="utf-8"?>
<svg version="1.1" xmlns:xlink="http://www.w3.org/1999/xlink" width="12px" height="12px" viewBox="68 47.5  12 12" xmlns="http://www.w3.org/2000/svg">
  <path d="M 74 47.5  C 77.36 47.5  80 50.14  80 53.5  C 80 56.86  77.36 59.5  74 59.5  C 70.64 59.5  68 56.86  68 53.5  C 68 50.14  70.64 47.5  74 47.5  Z " fill-rule="nonzero" fill="#f0f0f0" stroke="none" />
  <path d="M 74 48  C 77.08 48  79.5 50.42  79.5 53.5  C 79.5 56.58  77.08 59  74 59  C 70.92 59  68.5 56.58  68.5 53.5  C 68.5 50.42  70.92 48  74 48  Z " stroke-width="1" stroke="#797979" fill="none" />
  <path d="M 74 56.5  C 72.32 56.5  71 55.18  71 53.5  C 71 51.82  72.32 50.5  74 50.5  C 75.68 50.5  77 51.82  77 53.5  C 77 55.18  75.68 56.5  74 56.5  " fill-rule="nonzero" fill="#797979" stroke="none" />
</svg>