<?xml version="1.0" encoding="utf-8"?>
<svg version="1.1" xmlns:xlink="http://www.w3.org/1999/xlink" width="23px" height="24px" xmlns="http://www.w3.org/2000/svg">
  <g transform="matrix(1 0 0 1 -426 -221 )">
    <path d="M 13.2819010416667 19.859375  C 13.3717447916667 19.765625  13.4166666666667 19.6458333333333  13.4166666666667 19.5  L 13.4166666666667 16.5  C 13.4166666666667 16.3541666666667  13.3717447916667 16.234375  13.2819010416667 16.140625  C 13.1920572916667 16.046875  13.0772569444444 16  12.9375 16  L 10.0625 16  C 9.92274305555556 16  9.80794270833333 16.046875  9.71809895833333 16.140625  C 9.62825520833333 16.234375  9.58333333333333 16.3541666666667  9.58333333333333 16.5  L 9.58333333333333 19.5  C 9.58333333333333 19.6458333333333  9.62825520833333 19.765625  9.71809895833333 19.859375  C 9.80794270833333 19.953125  9.92274305555556 20  10.0625 20  L 12.9375 20  C 13.0772569444444 20  13.1920572916667 19.953125  13.2819010416667 19.859375  Z M 17.0628255208333 10.265625  C 17.1876085069444 9.88020833333333  17.25 9.45833333333333  17.25 9  C 17.25 8.08333333333333  16.9729817708333 7.234375  16.4189453125 6.453125  C 15.8649088541667 5.671875  15.1736111111111 5.06770833333333  14.3450520833333 4.640625  C 13.5164930555556 4.21354166666667  12.66796875 4  11.7994791666667 4  C 9.37369791666667 4  7.52191840277778 5.109375  6.244140625 7.328125  C 6.09440104166667 7.578125  6.13433159722222 7.796875  6.36393229166667 7.984375  L 8.34049479166667 9.546875  C 8.41037326388889 9.609375  8.50520833333333 9.640625  8.625 9.640625  C 8.78472222222222 9.640625  8.90950520833333 9.578125  8.99934895833333 9.453125  C 9.52842881944444 8.74479166666667  9.95768229166667 8.265625  10.287109375 8.015625  C 10.6265190972222 7.765625  11.0557725694444 7.640625  11.5748697916667 7.640625  C 12.0540364583333 7.640625  12.4807942708333 7.77604166666667  12.8551432291667 8.046875  C 13.2294921875 8.31770833333333  13.4166666666667 8.625  13.4166666666667 8.96875  C 13.4166666666667 9.36458333333333  13.3168402777778 9.68229166666667  13.1171875 9.921875  C 12.9175347222222 10.1614583333333  12.578125 10.3958333333333  12.0989583333333 10.625  C 11.4700520833333 10.9166666666667  10.8935546875 11.3671875  10.3694661458333 11.9765625  C 9.84537760416667 12.5859375  9.58333333333333 13.2395833333333  9.58333333333333 13.9375  L 9.58333333333333 14.5  C 9.58333333333333 14.6458333333333  9.62825520833333 14.765625  9.71809895833333 14.859375  C 9.80794270833333 14.953125  9.92274305555556 15  10.0625 15  L 12.9375 15  C 13.0772569444444 15  13.1920572916667 14.953125  13.2819010416667 14.859375  C 13.3717447916667 14.765625  13.4166666666667 14.6458333333333  13.4166666666667 14.5  C 13.4166666666667 14.3020833333333  13.5239800347222 14.0442708333333  13.7386067708333 13.7265625  C 13.9532335069444 13.4088541666667  14.2252604166667 13.1510416666667  14.5546875 12.953125  C 14.8741319444444 12.765625  15.1187065972222 12.6171875  15.2884114583333 12.5078125  C 15.4581163194444 12.3984375  15.6877170138889 12.2161458333333  15.9772135416667 11.9609375  C 16.2667100694444 11.7057291666667  16.4888237847222 11.4557291666667  16.6435546875 11.2109375  C 16.7982855902778 10.9661458333333  16.9380425347222 10.6510416666667  17.0628255208333 10.265625  Z M 21.4576822916667 5.9765625  C 22.4858940972222 7.81510416666666  23 9.82291666666666  23 12  C 23 14.1770833333333  22.4858940972222 16.1848958333333  21.4576822916667 18.0234375  C 20.4294704861111 19.8619791666667  19.0343967013889 21.3177083333333  17.2724609375 22.390625  C 15.5105251736111 23.4635416666667  13.5863715277778 24  11.5 24  C 9.41362847222222 24  7.48947482638889 23.4635416666667  5.7275390625 22.390625  C 3.96560329861111 21.3177083333333  2.57052951388889 19.8619791666667  1.54231770833333 18.0234375  C 0.514105902777778 16.1848958333333  0 14.1770833333333  0 12  C 0 9.82291666666666  0.514105902777778 7.81510416666666  1.54231770833333 5.9765625  C 2.57052951388889 4.13802083333333  3.96560329861111 2.68229166666666  5.7275390625 1.609375  C 7.48947482638889 0.536458333333331  9.41362847222222 0  11.5 0  C 13.5863715277778 0  15.5105251736111 0.536458333333331  17.2724609375 1.609375  C 19.0343967013889 2.68229166666666  20.4294704861111 4.13802083333333  21.4576822916667 5.9765625  Z " fill-rule="nonzero" fill="#000000" stroke="none" transform="matrix(1 0 0 1 426 221 )" />
  </g>
</svg>