<?xml version="1.0" encoding="utf-8"?>
<svg version="1.1" xmlns:xlink="http://www.w3.org/1999/xlink" width="28px" height="26px" xmlns="http://www.w3.org/2000/svg">
  <g transform="matrix(1 0 0 1 -370 -166 )">
    <path d="M 16.1692708333333 21.5143229166667  C 16.2786458333333 21.4127604166667  16.3333333333333 21.2829861111111  16.3333333333333 21.125  L 16.3333333333333 17.875  C 16.3333333333333 17.7170138888889  16.2786458333333 17.5872395833333  16.1692708333333 17.4856770833333  C 16.0598958333333 17.3841145833333  15.9201388888889 17.3333333333333  15.75 17.3333333333333  L 12.25 17.3333333333333  C 12.0798611111111 17.3333333333333  11.9401041666667 17.3841145833333  11.8307291666667 17.4856770833333  C 11.7213541666667 17.5872395833333  11.6666666666667 17.7170138888889  11.6666666666667 17.875  L 11.6666666666667 21.125  C 11.6666666666667 21.2829861111111  11.7213541666667 21.4127604166667  11.8307291666667 21.5143229166667  C 11.9401041666667 21.6158854166667  12.0798611111111 21.6666666666667  12.25 21.6666666666667  L 15.75 21.6666666666667  C 15.9201388888889 21.6666666666667  16.0598958333333 21.6158854166667  16.1692708333333 21.5143229166667  Z M 20.7721354166667 11.12109375  C 20.9240451388889 10.7035590277778  21 10.2465277777778  21 9.75  C 21 8.75694444444444  20.6627604166667 7.83723958333333  19.98828125 6.99088541666667  C 19.3138020833333 6.14453125  18.4722222222222 5.49001736111111  17.4635416666667 5.02734375  C 16.4548611111111 4.56467013888889  15.421875 4.33333333333333  14.3645833333333 4.33333333333333  C 11.4114583333333 4.33333333333333  9.15711805555556 5.53515625  7.6015625 7.93880208333333  C 7.41927083333333 8.20963541666667  7.46788194444445 8.44661458333333  7.74739583333333 8.64973958333333  L 10.1536458333333 10.3424479166667  C 10.2387152777778 10.41015625  10.3541666666667 10.4440104166667  10.5 10.4440104166667  C 10.6944444444444 10.4440104166667  10.8463541666667 10.3763020833333  10.9557291666667 10.2408854166667  C 11.5998263888889 9.47352430555556  12.1223958333333 8.95442708333333  12.5234375 8.68359375  C 12.9366319444444 8.41276041666667  13.4592013888889 8.27734375  14.0911458333333 8.27734375  C 14.6744791666667 8.27734375  15.1940104166667 8.42404513888889  15.6497395833333 8.71744791666667  C 16.10546875 9.01085069444444  16.3333333333333 9.34375  16.3333333333333 9.71614583333333  C 16.3333333333333 10.1449652777778  16.2118055555556 10.4891493055556  15.96875 10.7486979166667  C 15.7256944444444 11.0082465277778  15.3125 11.2621527777778  14.7291666666667 11.5104166666667  C 13.9635416666667 11.8263888888889  13.26171875 12.314453125  12.6236979166667 12.974609375  C 11.9856770833333 13.634765625  11.6666666666667 14.3428819444444  11.6666666666667 15.0989583333333  L 11.6666666666667 15.7083333333333  C 11.6666666666667 15.8663194444444  11.7213541666667 15.99609375  11.8307291666667 16.09765625  C 11.9401041666667 16.19921875  12.0798611111111 16.25  12.25 16.25  L 15.75 16.25  C 15.9201388888889 16.25  16.0598958333333 16.19921875  16.1692708333333 16.09765625  C 16.2786458333333 15.99609375  16.3333333333333 15.8663194444444  16.3333333333333 15.7083333333333  C 16.3333333333333 15.4939236111111  16.4639756944444 15.2146267361111  16.7252604166667 14.8704427083333  C 16.9865451388889 14.5262586805556  17.3177083333333 14.2469618055556  17.71875 14.0325520833333  C 18.1076388888889 13.8294270833333  18.4053819444444 13.6686197916667  18.6119791666667 13.5501302083333  C 18.8185763888889 13.431640625  19.0980902777778 13.2341579861111  19.4505208333333 12.9576822916667  C 19.8029513888889 12.6812065972222  20.0733506944444 12.4103732638889  20.26171875 12.1451822916667  C 20.4500868055556 11.8799913194444  20.6202256944444 11.5386284722222  20.7721354166667 11.12109375  Z M 26.1223958333333 6.474609375  C 27.3741319444444 8.46636284722222  28 10.6414930555556  28 13  C 28 15.3585069444444  27.3741319444444 17.5336371527778  26.1223958333333 19.525390625  C 24.8706597222222 21.5171440972222  23.1723090277778 23.0941840277778  21.02734375 24.2565104166667  C 18.8823784722222 25.4188368055556  16.5399305555556 26  14 26  C 11.4600694444444 26  9.11762152777778 25.4188368055556  6.97265625 24.2565104166667  C 4.82769097222222 23.0941840277778  3.12934027777778 21.5171440972222  1.87760416666667 19.525390625  C 0.625868055555555 17.5336371527778  0 15.3585069444444  0 13  C 0 10.6414930555556  0.625868055555555 8.46636284722222  1.87760416666667 6.474609375  C 3.12934027777778 4.48285590277778  4.82769097222222 2.90581597222222  6.97265625 1.74348958333333  C 9.11762152777778 0.581163194444442  11.4600694444444 0  14 0  C 16.5399305555556 0  18.8823784722222 0.581163194444442  21.02734375 1.74348958333333  C 23.1723090277778 2.90581597222222  24.8706597222222 4.48285590277778  26.1223958333333 6.474609375  Z " fill-rule="nonzero" fill="#000000" stroke="none" transform="matrix(1 0 0 1 370 166 )" />
  </g>
</svg>