<?xml version="1.0" encoding="utf-8"?>
<svg version="1.1" xmlns:xlink="http://www.w3.org/1999/xlink" width="12px" height="12px" viewBox="299 17.5  12 12" xmlns="http://www.w3.org/2000/svg">
  <path d="M 305 17.5  C 308.36 17.5  311 20.14  311 23.5  C 311 26.86  308.36 29.5  305 29.5  C 301.64 29.5  299 26.86  299 23.5  C 299 20.14  301.64 17.5  305 17.5  Z " fill-rule="nonzero" fill="#f0f0f0" stroke="none" />
  <path d="M 305 18  C 308.08 18  310.5 20.42  310.5 23.5  C 310.5 26.58  308.08 29  305 29  C 301.92 29  299.5 26.58  299.5 23.5  C 299.5 20.42  301.92 18  305 18  Z " stroke-width="1" stroke="#797979" fill="none" />
  <path d="M 305 26.5  C 303.32 26.5  302 25.18  302 23.5  C 302 21.82  303.32 20.5  305 20.5  C 306.68 20.5  308 21.82  308 23.5  C 308 25.18  306.68 26.5  305 26.5  " fill-rule="nonzero" fill="#797979" stroke="none" />
</svg>