<?xml version="1.0" encoding="utf-8"?>
<svg version="1.1" xmlns:xlink="http://www.w3.org/1999/xlink" width="12px" height="12px" viewBox="66 17.5  12 12" xmlns="http://www.w3.org/2000/svg">
  <path d="M 72 17.5  C 75.36 17.5  78 20.14  78 23.5  C 78 26.86  75.36 29.5  72 29.5  C 68.64 29.5  66 26.86  66 23.5  C 66 20.14  68.64 17.5  72 17.5  Z " fill-rule="nonzero" fill="#ffffff" stroke="none" />
  <path d="M 72 18  C 75.08 18  77.5 20.42  77.5 23.5  C 77.5 26.58  75.08 29  72 29  C 68.92 29  66.5 26.58  66.5 23.5  C 66.5 20.42  68.92 18  72 18  Z " stroke-width="1" stroke="#797979" fill="none" />
  <path d="M 72 26.5  C 70.32 26.5  69 25.18  69 23.5  C 69 21.82  70.32 20.5  72 20.5  C 73.68 20.5  75 21.82  75 23.5  C 75 25.18  73.68 26.5  72 26.5  " fill-rule="nonzero" fill="#797979" stroke="none" />
</svg>