<?xml version="1.0" encoding="utf-8"?>
<svg version="1.1" xmlns:xlink="http://www.w3.org/1999/xlink" width="12px" height="12px" viewBox="199 17.5  12 12" xmlns="http://www.w3.org/2000/svg">
  <path d="M 205 17.5  C 208.36 17.5  211 20.14  211 23.5  C 211 26.86  208.36 29.5  205 29.5  C 201.64 29.5  199 26.86  199 23.5  C 199 20.14  201.64 17.5  205 17.5  Z " fill-rule="nonzero" fill="#ffffff" stroke="none" />
  <path d="M 205 18  C 208.08 18  210.5 20.42  210.5 23.5  C 210.5 26.58  208.08 29  205 29  C 201.92 29  199.5 26.58  199.5 23.5  C 199.5 20.42  201.92 18  205 18  Z " stroke-width="1" stroke="#797979" fill="none" />
  <path d="M 205 26.5  C 203.32 26.5  202 25.18  202 23.5  C 202 21.82  203.32 20.5  205 20.5  C 206.68 20.5  208 21.82  208 23.5  C 208 25.18  206.68 26.5  205 26.5  " fill-rule="nonzero" fill="#797979" stroke="none" />
</svg>