<?xml version="1.0" encoding="utf-8"?>
<svg version="1.1" xmlns:xlink="http://www.w3.org/1999/xlink" width="12px" height="12px" viewBox="129 47.5  12 12" xmlns="http://www.w3.org/2000/svg">
  <path d="M 135 47.5  C 138.36 47.5  141 50.14  141 53.5  C 141 56.86  138.36 59.5  135 59.5  C 131.64 59.5  129 56.86  129 53.5  C 129 50.14  131.64 47.5  135 47.5  Z " fill-rule="nonzero" fill="#ffffff" stroke="none" />
  <path d="M 135 48  C 138.08 48  140.5 50.42  140.5 53.5  C 140.5 56.58  138.08 59  135 59  C 131.92 59  129.5 56.58  129.5 53.5  C 129.5 50.42  131.92 48  135 48  Z " stroke-width="1" stroke="#797979" fill="none" />
  <path d="M 135 56.5  C 133.32 56.5  132 55.18  132 53.5  C 132 51.82  133.32 50.5  135 50.5  C 136.68 50.5  138 51.82  138 53.5  C 138 55.18  136.68 56.5  135 56.5  " fill-rule="nonzero" fill="#797979" stroke="none" />
</svg>