<?xml version="1.0" encoding="utf-8"?>
<svg version="1.1" xmlns:xlink="http://www.w3.org/1999/xlink" width="12px" height="12px" viewBox="545 676  12 12" xmlns="http://www.w3.org/2000/svg">
  <path d="M 551 676  C 554.36 676  557 678.64  557 682  C 557 685.36  554.36 688  551 688  C 547.64 688  545 685.36  545 682  C 545 678.64  547.64 676  551 676  Z " fill-rule="nonzero" fill="#f0f0f0" stroke="none" />
  <path d="M 551 676.5  C 554.08 676.5  556.5 678.92  556.5 682  C 556.5 685.08  554.08 687.5  551 687.5  C 547.92 687.5  545.5 685.08  545.5 682  C 545.5 678.92  547.92 676.5  551 676.5  Z " stroke-width="1" stroke="#797979" fill="none" />
  <path d="M 551 685  C 549.32 685  548 683.68  548 682  C 548 680.32  549.32 679  551 679  C 552.68 679  554 680.32  554 682  C 554 683.68  552.68 685  551 685  " fill-rule="nonzero" fill="#797979" stroke="none" />
</svg>