<?xml version="1.0" encoding="utf-8"?>
<svg version="1.1" xmlns:xlink="http://www.w3.org/1999/xlink" width="12px" height="12px" viewBox="545 702  12 12" xmlns="http://www.w3.org/2000/svg">
  <path d="M 551 702  C 554.36 702  557 704.64  557 708  C 557 711.36  554.36 714  551 714  C 547.64 714  545 711.36  545 708  C 545 704.64  547.64 702  551 702  Z " fill-rule="nonzero" fill="#ffffff" stroke="none" />
  <path d="M 551 702.5  C 554.08 702.5  556.5 704.92  556.5 708  C 556.5 711.08  554.08 713.5  551 713.5  C 547.92 713.5  545.5 711.08  545.5 708  C 545.5 704.92  547.92 702.5  551 702.5  Z " stroke-width="1" stroke="#797979" fill="none" />
  <path d="M 551 711  C 549.32 711  548 709.68  548 708  C 548 706.32  549.32 705  551 705  C 552.68 705  554 706.32  554 708  C 554 709.68  552.68 711  551 711  " fill-rule="nonzero" fill="#797979" stroke="none" />
</svg>