<?xml version="1.0" encoding="utf-8"?>
<svg version="1.1" xmlns:xlink="http://www.w3.org/1999/xlink" width="50px" height="42px" xmlns="http://www.w3.org/2000/svg">
  <g transform="matrix(1 0 0 1 -45 -53 )">
    <path d="M 15.1141826923077 37.9133522727273  C 15.2944711538462 37.734375  15.3846153846154 37.5056818181818  15.3846153846154 37.2272727272727  L 15.3846153846154 31.5  C 15.3846153846154 31.2215909090909  15.2944711538462 30.9928977272727  15.1141826923077 30.8139204545455  C 14.9338942307692 30.6349431818182  14.7035256410256 30.5454545454545  14.4230769230769 30.5454545454545  L 4.80769230769231 30.5454545454545  C 4.52724358974359 30.5454545454545  4.296875 30.6349431818182  4.11658653846154 30.8139204545455  C 3.93629807692308 30.9928977272727  3.84615384615385 31.2215909090909  3.84615384615385 31.5  L 3.84615384615385 37.2272727272727  C 3.84615384615385 37.5056818181818  3.93629807692308 37.734375  4.11658653846154 37.9133522727273  C 4.296875 38.0923295454545  4.52724358974359 38.1818181818182  4.80769230769231 38.1818181818182  L 14.4230769230769 38.1818181818182  C 14.7035256410256 38.1818181818182  14.9338942307692 38.0923295454545  15.1141826923077 37.9133522727273  Z M 15.1141826923077 26.4588068181818  C 15.2944711538462 26.2798295454545  15.3846153846154 26.0511363636364  15.3846153846154 25.7727272727273  L 15.3846153846154 20.0454545454545  C 15.3846153846154 19.7670454545455  15.2944711538462 19.5383522727273  15.1141826923077 19.359375  C 14.9338942307692 19.1803977272727  14.7035256410256 19.0909090909091  14.4230769230769 19.0909090909091  L 4.80769230769231 19.0909090909091  C 4.52724358974359 19.0909090909091  4.296875 19.1803977272727  4.11658653846154 19.359375  C 3.93629807692308 19.5383522727273  3.84615384615385 19.7670454545455  3.84615384615385 20.0454545454545  L 3.84615384615385 25.7727272727273  C 3.84615384615385 26.0511363636364  3.93629807692308 26.2798295454545  4.11658653846154 26.4588068181818  C 4.296875 26.6377840909091  4.52724358974359 26.7272727272727  4.80769230769231 26.7272727272727  L 14.4230769230769 26.7272727272727  C 14.7035256410256 26.7272727272727  14.9338942307692 26.6377840909091  15.1141826923077 26.4588068181818  Z M 30.4987980769231 37.9133522727273  C 30.6790865384615 37.734375  30.7692307692308 37.5056818181818  30.7692307692308 37.2272727272727  L 30.7692307692308 31.5  C 30.7692307692308 31.2215909090909  30.6790865384615 30.9928977272727  30.4987980769231 30.8139204545455  C 30.3185096153846 30.6349431818182  30.088141025641 30.5454545454545  29.8076923076923 30.5454545454545  L 20.1923076923077 30.5454545454545  C 19.911858974359 30.5454545454545  19.6814903846154 30.6349431818182  19.5012019230769 30.8139204545455  C 19.3209134615385 30.9928977272727  19.2307692307692 31.2215909090909  19.2307692307692 31.5  L 19.2307692307692 37.2272727272727  C 19.2307692307692 37.5056818181818  19.3209134615385 37.734375  19.5012019230769 37.9133522727273  C 19.6814903846154 38.0923295454545  19.911858974359 38.1818181818182  20.1923076923077 38.1818181818182  L 29.8076923076923 38.1818181818182  C 30.088141025641 38.1818181818182  30.3185096153846 38.0923295454545  30.4987980769231 37.9133522727273  Z M 15.1141826923077 15.0042613636364  C 15.2944711538462 14.8252840909091  15.3846153846154 14.5965909090909  15.3846153846154 14.3181818181818  L 15.3846153846154 8.59090909090909  C 15.3846153846154 8.31249999999999  15.2944711538462 8.08380681818182  15.1141826923077 7.90482954545455  C 14.9338942307692 7.72585227272727  14.7035256410256 7.63636363636363  14.4230769230769 7.63636363636363  L 4.80769230769231 7.63636363636363  C 4.52724358974359 7.63636363636363  4.296875 7.72585227272727  4.11658653846154 7.90482954545455  C 3.93629807692308 8.08380681818182  3.84615384615385 8.31249999999999  3.84615384615385 8.59090909090909  L 3.84615384615385 14.3181818181818  C 3.84615384615385 14.5965909090909  3.93629807692308 14.8252840909091  4.11658653846154 15.0042613636364  C 4.296875 15.1832386363636  4.52724358974359 15.2727272727273  4.80769230769231 15.2727272727273  L 14.4230769230769 15.2727272727273  C 14.7035256410256 15.2727272727273  14.9338942307692 15.1832386363636  15.1141826923077 15.0042613636364  Z M 30.4987980769231 26.4588068181818  C 30.6790865384615 26.2798295454545  30.7692307692308 26.0511363636364  30.7692307692308 25.7727272727273  L 30.7692307692308 20.0454545454545  C 30.7692307692308 19.7670454545455  30.6790865384615 19.5383522727273  30.4987980769231 19.359375  C 30.3185096153846 19.1803977272727  30.088141025641 19.0909090909091  29.8076923076923 19.0909090909091  L 20.1923076923077 19.0909090909091  C 19.911858974359 19.0909090909091  19.6814903846154 19.1803977272727  19.5012019230769 19.359375  C 19.3209134615385 19.5383522727273  19.2307692307692 19.7670454545455  19.2307692307692 20.0454545454545  L 19.2307692307692 25.7727272727273  C 19.2307692307692 26.0511363636364  19.3209134615385 26.2798295454545  19.5012019230769 26.4588068181818  C 19.6814903846154 26.6377840909091  19.911858974359 26.7272727272727  20.1923076923077 26.7272727272727  L 29.8076923076923 26.7272727272727  C 30.088141025641 26.7272727272727  30.3185096153846 26.6377840909091  30.4987980769231 26.4588068181818  Z M 45.8834134615385 37.9133522727273  C 46.0637019230769 37.734375  46.1538461538462 37.5056818181818  46.1538461538462 37.2272727272727  L 46.1538461538462 31.5  C 46.1538461538462 31.2215909090909  46.0637019230769 30.9928977272727  45.8834134615385 30.8139204545455  C 45.703125 30.6349431818182  45.4727564102564 30.5454545454545  45.1923076923077 30.5454545454545  L 35.5769230769231 30.5454545454545  C 35.2964743589744 30.5454545454545  35.0661057692308 30.6349431818182  34.8858173076923 30.8139204545455  C 34.7055288461538 30.9928977272727  34.6153846153846 31.2215909090909  34.6153846153846 31.5  L 34.6153846153846 37.2272727272727  C 34.6153846153846 37.5056818181818  34.7055288461538 37.734375  34.8858173076923 37.9133522727273  C 35.0661057692308 38.0923295454545  35.2964743589744 38.1818181818182  35.5769230769231 38.1818181818182  L 45.1923076923077 38.1818181818182  C 45.4727564102564 38.1818181818182  45.703125 38.0923295454545  45.8834134615385 37.9133522727273  Z M 30.4987980769231 15.0042613636364  C 30.6790865384615 14.8252840909091  30.7692307692308 14.5965909090909  30.7692307692308 14.3181818181818  L 30.7692307692308 8.59090909090909  C 30.7692307692308 8.31249999999999  30.6790865384615 8.08380681818182  30.4987980769231 7.90482954545455  C 30.3185096153846 7.72585227272727  30.088141025641 7.63636363636363  29.8076923076923 7.63636363636363  L 20.1923076923077 7.63636363636363  C 19.911858974359 7.63636363636363  19.6814903846154 7.72585227272727  19.5012019230769 7.90482954545455  C 19.3209134615385 8.08380681818182  19.2307692307692 8.31249999999999  19.2307692307692 8.59090909090909  L 19.2307692307692 14.3181818181818  C 19.2307692307692 14.5965909090909  19.3209134615385 14.8252840909091  19.5012019230769 15.0042613636364  C 19.6814903846154 15.1832386363636  19.911858974359 15.2727272727273  20.1923076923077 15.2727272727273  L 29.8076923076923 15.2727272727273  C 30.088141025641 15.2727272727273  30.3185096153846 15.1832386363636  30.4987980769231 15.0042613636364  Z M 45.8834134615385 26.4588068181818  C 46.0637019230769 26.2798295454545  46.1538461538462 26.0511363636364  46.1538461538462 25.7727272727273  L 46.1538461538462 20.0454545454545  C 46.1538461538462 19.7670454545455  46.0637019230769 19.5383522727273  45.8834134615385 19.359375  C 45.703125 19.1803977272727  45.4727564102564 19.0909090909091  45.1923076923077 19.0909090909091  L 35.5769230769231 19.0909090909091  C 35.2964743589744 19.0909090909091  35.0661057692308 19.1803977272727  34.8858173076923 19.359375  C 34.7055288461538 19.5383522727273  34.6153846153846 19.7670454545455  34.6153846153846 20.0454545454545  L 34.6153846153846 25.7727272727273  C 34.6153846153846 26.0511363636364  34.7055288461538 26.2798295454545  34.8858173076923 26.4588068181818  C 35.0661057692308 26.6377840909091  35.2964743589744 26.7272727272727  35.5769230769231 26.7272727272727  L 45.1923076923077 26.7272727272727  C 45.4727564102564 26.7272727272727  45.703125 26.6377840909091  45.8834134615385 26.4588068181818  Z M 45.8834134615385 15.0042613636364  C 46.0637019230769 14.8252840909091  46.1538461538462 14.5965909090909  46.1538461538462 14.3181818181818  L 46.1538461538462 8.59090909090909  C 46.1538461538462 8.31249999999999  46.0637019230769 8.08380681818182  45.8834134615385 7.90482954545455  C 45.703125 7.72585227272727  45.4727564102564 7.63636363636363  45.1923076923077 7.63636363636363  L 35.5769230769231 7.63636363636363  C 35.2964743589744 7.63636363636363  35.0661057692308 7.72585227272727  34.8858173076923 7.90482954545455  C 34.7055288461538 8.08380681818182  34.6153846153846 8.31249999999999  34.6153846153846 8.59090909090909  L 34.6153846153846 14.3181818181818  C 34.6153846153846 14.5965909090909  34.7055288461538 14.8252840909091  34.8858173076923 15.0042613636364  C 35.0661057692308 15.1832386363636  35.2964743589744 15.2727272727273  35.5769230769231 15.2727272727273  L 45.1923076923077 15.2727272727273  C 45.4727564102564 15.2727272727273  45.703125 15.1832386363636  45.8834134615385 15.0042613636364  Z M 48.5877403846154 1.40198863636363  C 49.5292467948718 2.33664772727272  50 3.46022727272727  50 4.77272727272727  L 50 37.2272727272727  C 50 38.5397727272727  49.5292467948718 39.6633522727273  48.5877403846154 40.5980113636364  C 47.646233974359 41.5326704545455  46.5144230769231 42  45.1923076923077 42  L 4.80769230769231 42  C 3.48557692307692 42  2.35376602564103 41.5326704545455  1.41225961538462 40.5980113636364  C 0.470753205128205 39.6633522727273  0 38.5397727272727  0 37.2272727272727  L 0 4.77272727272727  C 0 3.46022727272727  0.470753205128205 2.33664772727272  1.41225961538462 1.40198863636363  C 2.35376602564103 0.46732954545454  3.48557692307692 0  4.80769230769231 0  L 45.1923076923077 0  C 46.5144230769231 0  47.646233974359 0.46732954545454  48.5877403846154 1.40198863636363  Z " fill-rule="nonzero" fill="#000000" stroke="none" transform="matrix(1 0 0 1 45 53 )" />
  </g>
</svg>