<?xml version="1.0" encoding="utf-8"?>
<svg version="1.1" xmlns:xlink="http://www.w3.org/1999/xlink" width="12px" height="15px" xmlns="http://www.w3.org/2000/svg">
  <g transform="matrix(1 0 0 1 -1084 -35 )">
    <path d="M 11.77734375 9.06605113636364  C 11.92578125 9.20099431818182  12 9.36079545454545  12 9.54545454545455  C 12 9.73011363636364  11.92578125 9.88991477272727  11.77734375 10.0248579545455  L 6.52734375 14.7975852272727  C 6.37890625 14.9325284090909  6.203125 15  6 15  C 5.796875 15  5.62109375 14.9325284090909  5.47265625 14.7975852272727  L 0.22265625 10.0248579545455  C 0.07421875 9.88991477272727  0 9.73011363636364  0 9.54545454545455  C 0 9.36079545454545  0.07421875 9.20099431818182  0.22265625 9.06605113636364  C 0.37109375 8.93110795454545  0.546875 8.86363636363636  0.75 8.86363636363636  L 11.25 8.86363636363636  C 11.453125 8.86363636363636  11.62890625 8.93110795454545  11.77734375 9.06605113636364  Z M 11.77734375 4.97514204545455  C 11.92578125 5.11008522727273  12 5.26988636363636  12 5.45454545454546  C 12 5.63920454545454  11.92578125 5.79900568181818  11.77734375 5.93394886363636  C 11.62890625 6.06889204545455  11.453125 6.13636363636364  11.25 6.13636363636364  L 0.75 6.13636363636364  C 0.546875 6.13636363636364  0.37109375 6.06889204545455  0.22265625 5.93394886363636  C 0.07421875 5.79900568181818  0 5.63920454545454  0 5.45454545454546  C 0 5.26988636363636  0.07421875 5.11008522727273  0.22265625 4.97514204545455  L 5.47265625 0.202414772727273  C 5.62109375 0.0674715909090895  5.796875 0  6 0  C 6.203125 0  6.37890625 0.0674715909090895  6.52734375 0.202414772727273  L 11.77734375 4.97514204545455  Z " fill-rule="nonzero" fill="#000000" stroke="none" transform="matrix(1 0 0 1 1084 35 )" />
  </g>
</svg>