<?xml version="1.0" encoding="utf-8"?>
<svg version="1.1" xmlns:xlink="http://www.w3.org/1999/xlink" width="22px" height="20px" xmlns="http://www.w3.org/2000/svg">
  <g transform="matrix(1 0 0 1 -294 -111 )">
    <path d="M 21.6025806451613 2.76094276094276  C 21.8675268817204 3.07519640852974  22 3.45679012345679  22 3.90572390572391  C 22 4.35465768799102  21.8675268817204 4.73625140291807  21.6025806451613 5.05050505050505  L 11.3264516129032 17.2390572390572  L 9.39612903225806 19.5286195286195  C 9.13118279569893 19.8428731762065  8.8094623655914 20  8.43096774193548 20  C 8.05247311827957 20  7.73075268817204 19.8428731762065  7.4658064516129 19.5286195286195  L 5.53548387096774 17.2390572390572  L 0.39741935483871 11.1447811447811  C 0.13247311827957 10.8305274971942  0 10.4489337822671  0 10  C 0 9.55106621773288  0.13247311827957 9.16947250280584  0.39741935483871 8.85521885521886  L 2.32774193548387 6.56565656565657  C 2.59268817204301 6.25140291806958  2.91440860215054 6.09427609427609  3.29290322580645 6.09427609427609  C 3.67139784946237 6.09427609427609  3.99311827956989 6.25140291806958  4.25806451612903 6.56565656565657  L 8.43096774193548 11.5319865319865  L 17.741935483871 0.471380471380471  C 18.0068817204301 0.15712682379349  18.3286021505376 0  18.7070967741935 0  C 19.0855913978495 0  19.407311827957 0.15712682379349  19.6722580645161 0.471380471380471  L 21.6025806451613 2.76094276094276  Z " fill-rule="nonzero" fill="#70b603" stroke="none" transform="matrix(1 0 0 1 294 111 )" />
  </g>
</svg>