<?xml version="1.0" encoding="utf-8"?>
<svg version="1.1" xmlns:xlink="http://www.w3.org/1999/xlink" width="98px" height="16px" xmlns="http://www.w3.org/2000/svg">
  <defs>
    <mask fill="white" id="clip19">
      <path d="M 0 16  L 0 0  L 57.4 0  L 91 0  L 98 0  L 98 16  L 64.4 16  L 0 16  Z " fill-rule="evenodd" />
    </mask>
  </defs>
  <g transform="matrix(1 0 0 1 -270 -67 )">
    <path d="M 0 16  L 0 0  L 57.4 0  L 91 0  L 98 0  L 98 16  L 64.4 16  L 0 16  Z " fill-rule="nonzero" fill="#ffffff" stroke="none" fill-opacity="0" transform="matrix(1 0 0 1 270 67 )" />
    <path d="M 0 16  L 0 0  L 57.4 0  L 91 0  L 98 0  L 98 16  L 64.4 16  L 0 16  Z " stroke-width="2" stroke="#797979" fill="none" transform="matrix(1 0 0 1 270 67 )" mask="url(#clip19)" />
  </g>
</svg>