<?xml version="1.0" encoding="utf-8"?>
<svg version="1.1" xmlns:xlink="http://www.w3.org/1999/xlink" width="9px" height="15px" xmlns="http://www.w3.org/2000/svg">
  <g transform="matrix(1 0 0 1 -994 -322 )">
    <path d="M 8.8330078125 9.06605113636364  C 8.9443359375 9.20099431818182  9 9.36079545454545  9 9.54545454545455  C 9 9.73011363636364  8.9443359375 9.88991477272727  8.8330078125 10.0248579545455  L 4.8955078125 14.7975852272727  C 4.7841796875 14.9325284090909  4.65234375 15  4.5 15  C 4.34765625 15  4.2158203125 14.9325284090909  4.1044921875 14.7975852272727  L 0.1669921875 10.0248579545455  C 0.0556640625 9.88991477272727  0 9.73011363636364  0 9.54545454545455  C 0 9.36079545454545  0.0556640625 9.20099431818182  0.1669921875 9.06605113636364  C 0.2783203125 8.93110795454545  0.41015625 8.86363636363636  0.5625 8.86363636363636  L 8.4375 8.86363636363636  C 8.58984375 8.86363636363636  8.7216796875 8.93110795454545  8.8330078125 9.06605113636364  Z M 8.8330078125 4.97514204545455  C 8.9443359375 5.11008522727273  9 5.26988636363636  9 5.45454545454546  C 9 5.63920454545454  8.9443359375 5.79900568181818  8.8330078125 5.93394886363636  C 8.7216796875 6.06889204545455  8.58984375 6.13636363636364  8.4375 6.13636363636364  L 0.5625 6.13636363636364  C 0.41015625 6.13636363636364  0.2783203125 6.06889204545455  0.1669921875 5.93394886363636  C 0.0556640625 5.79900568181818  0 5.63920454545454  0 5.45454545454546  C 0 5.26988636363636  0.0556640625 5.11008522727273  0.1669921875 4.97514204545455  L 4.1044921875 0.202414772727273  C 4.2158203125 0.0674715909090895  4.34765625 0  4.5 0  C 4.65234375 0  4.7841796875 0.0674715909090895  4.8955078125 0.202414772727273  L 8.8330078125 4.97514204545455  Z " fill-rule="nonzero" fill="#000000" stroke="none" transform="matrix(1 0 0 1 994 322 )" />
  </g>
</svg>