<?xml version="1.0" encoding="utf-8"?>
<svg version="1.1" xmlns:xlink="http://www.w3.org/1999/xlink" width="8px" height="18px" xmlns="http://www.w3.org/2000/svg">
  <g transform="matrix(1 0 0 1 -97 -128 )">
    <path d="M 7.8515625 10.8792613636364  C 7.95052083333333 11.0411931818182  8 11.2329545454545  8 11.4545454545455  C 8 11.6761363636364  7.95052083333333 11.8678977272727  7.8515625 12.0298295454545  L 4.3515625 17.7571022727273  C 4.25260416666667 17.9190340909091  4.13541666666667 18  4 18  C 3.86458333333333 18  3.74739583333333 17.9190340909091  3.6484375 17.7571022727273  L 0.1484375 12.0298295454545  C 0.0494791666666667 11.8678977272727  0 11.6761363636364  0 11.4545454545455  C 0 11.2329545454545  0.0494791666666667 11.0411931818182  0.1484375 10.8792613636364  C 0.247395833333333 10.7173295454545  0.364583333333333 10.6363636363636  0.5 10.6363636363636  L 7.5 10.6363636363636  C 7.63541666666667 10.6363636363636  7.75260416666667 10.7173295454545  7.8515625 10.8792613636364  Z M 7.8515625 5.97017045454545  C 7.95052083333333 6.13210227272727  8 6.32386363636363  8 6.54545454545455  C 8 6.76704545454545  7.95052083333333 6.95880681818182  7.8515625 7.12073863636364  C 7.75260416666667 7.28267045454546  7.63541666666667 7.36363636363636  7.5 7.36363636363636  L 0.5 7.36363636363636  C 0.364583333333333 7.36363636363636  0.247395833333333 7.28267045454546  0.1484375 7.12073863636364  C 0.0494791666666667 6.95880681818182  0 6.76704545454545  0 6.54545454545455  C 0 6.32386363636363  0.0494791666666667 6.13210227272727  0.1484375 5.97017045454545  L 3.6484375 0.242897727272728  C 3.74739583333333 0.0809659090909074  3.86458333333333 0  4 0  C 4.13541666666667 0  4.25260416666667 0.0809659090909074  4.3515625 0.242897727272728  L 7.8515625 5.97017045454545  Z " fill-rule="nonzero" fill="#000000" stroke="none" transform="matrix(1 0 0 1 97 128 )" />
  </g>
</svg>