<?xml version="1.0" encoding="utf-8"?>
<svg version="1.1" xmlns:xlink="http://www.w3.org/1999/xlink" width="12px" height="12px" viewBox="955 315.5  12 12" xmlns="http://www.w3.org/2000/svg">
  <path d="M 961 315.5  C 964.36 315.5  967 318.14  967 321.5  C 967 324.86  964.36 327.5  961 327.5  C 957.64 327.5  955 324.86  955 321.5  C 955 318.14  957.64 315.5  961 315.5  Z " fill-rule="nonzero" fill="#ffffff" stroke="none" />
  <path d="M 961 316  C 964.08 316  966.5 318.42  966.5 321.5  C 966.5 324.58  964.08 327  961 327  C 957.92 327  955.5 324.58  955.5 321.5  C 955.5 318.42  957.92 316  961 316  Z " stroke-width="1" stroke="#797979" fill="none" />
  <path d="M 961 324.5  C 959.32 324.5  958 323.18  958 321.5  C 958 319.82  959.32 318.5  961 318.5  C 962.68 318.5  964 319.82  964 321.5  C 964 323.18  962.68 324.5  961 324.5  " fill-rule="nonzero" fill="#797979" stroke="none" />
</svg>