<?xml version="1.0" encoding="utf-8"?>
<svg version="1.1" xmlns:xlink="http://www.w3.org/1999/xlink" width="12px" height="12px" viewBox="853 315.5  12 12" xmlns="http://www.w3.org/2000/svg">
  <path d="M 859 315.5  C 862.36 315.5  865 318.14  865 321.5  C 865 324.86  862.36 327.5  859 327.5  C 855.64 327.5  853 324.86  853 321.5  C 853 318.14  855.64 315.5  859 315.5  Z " fill-rule="nonzero" fill="#f0f0f0" stroke="none" />
  <path d="M 859 316  C 862.08 316  864.5 318.42  864.5 321.5  C 864.5 324.58  862.08 327  859 327  C 855.92 327  853.5 324.58  853.5 321.5  C 853.5 318.42  855.92 316  859 316  Z " stroke-width="1" stroke="#797979" fill="none" />
  <path d="M 859 324.5  C 857.32 324.5  856 323.18  856 321.5  C 856 319.82  857.32 318.5  859 318.5  C 860.68 318.5  862 319.82  862 321.5  C 862 323.18  860.68 324.5  859 324.5  " fill-rule="nonzero" fill="#797979" stroke="none" />
</svg>