<?xml version="1.0" encoding="utf-8"?>
<svg version="1.1" xmlns:xlink="http://www.w3.org/1999/xlink" width="16px" height="18px" xmlns="http://www.w3.org/2000/svg">
  <g transform="matrix(1 0 0 1 -1253 -7 )">
    <path d="M 15.6228956228956 13.4545454545455  C 15.8742985409652 13.7373737373737  16 14.0808080808081  16 14.4848484848485  C 16 14.8888888888889  15.8742985409652 15.2323232323232  15.6228956228956 15.5151515151515  L 13.7912457912458 17.5757575757576  C 13.5398428731762 17.8585858585859  13.2345679012346 18  12.8754208754209 18  C 12.5162738496072 18  12.2109988776655 17.8585858585859  11.959595959596 17.5757575757576  L 8 13.1212121212121  L 4.04040404040404 17.5757575757576  C 3.78900112233446 17.8585858585859  3.48372615039282 18  3.12457912457912 18  C 2.76543209876543 18  2.46015712682379 17.8585858585859  2.20875420875421 17.5757575757576  L 0.377104377104377 15.5151515151515  C 0.125701459034792 15.2323232323232  0 14.8888888888889  0 14.4848484848485  C 0 14.0808080808081  0.125701459034792 13.7373737373737  0.377104377104377 13.4545454545455  L 4.33670033670034 9  L 0.377104377104377 4.54545454545455  C 0.125701459034792 4.26262626262626  0 3.91919191919192  0 3.51515151515152  C 0 3.11111111111111  0.125701459034792 2.76767676767677  0.377104377104377 2.48484848484849  L 2.20875420875421 0.424242424242424  C 2.46015712682379 0.141414141414141  2.76543209876543 0  3.12457912457912 0  C 3.48372615039282 0  3.78900112233446 0.141414141414141  4.04040404040404 0.424242424242424  L 8 4.87878787878788  L 11.959595959596 0.424242424242424  C 12.2109988776655 0.141414141414141  12.5162738496072 0  12.8754208754209 0  C 13.2345679012346 0  13.5398428731762 0.141414141414141  13.7912457912458 0.424242424242424  L 15.6228956228956 2.48484848484849  C 15.8742985409652 2.76767676767677  16 3.11111111111111  16 3.51515151515152  C 16 3.91919191919192  15.8742985409652 4.26262626262626  15.6228956228956 4.54545454545455  L 11.6632996632997 9  L 15.6228956228956 13.4545454545455  Z " fill-rule="nonzero" fill="#aaaaaa" stroke="none" transform="matrix(1 0 0 1 1253 7 )" />
  </g>
</svg>