<?xml version="1.0" encoding="utf-8"?>
<svg version="1.1" xmlns:xlink="http://www.w3.org/1999/xlink" width="39px" height="39px" xmlns="http://www.w3.org/2000/svg">
  <g transform="matrix(1 0 0 1 -789 -147 )">
    <path d="M 23.91796875 23.91796875  C 25.97265625 21.86328125  27 19.390625  27 16.5  C 27 13.609375  25.97265625 11.13671875  23.91796875 9.08203125  C 21.86328125 7.02734375  19.390625 6  16.5 6  C 13.609375 6  11.13671875 7.02734375  9.08203125 9.08203125  C 7.02734375 11.13671875  6 13.609375  6 16.5  C 6 19.390625  7.02734375 21.86328125  9.08203125 23.91796875  C 11.13671875 25.97265625  13.609375 27  16.5 27  C 19.390625 27  21.86328125 25.97265625  23.91796875 23.91796875  Z M 38.1328125 33.890625  C 38.7109375 34.46875  39 35.171875  39 36  C 39 36.8125  38.703125 37.515625  38.109375 38.109375  C 37.515625 38.703125  36.8125 39  36 39  C 35.15625 39  34.453125 38.703125  33.890625 38.109375  L 25.8515625 30.09375  C 23.0546875 32.03125  19.9375 33  16.5 33  C 14.265625 33  12.12890625 32.56640625  10.08984375 31.69921875  C 8.05078125 30.83203125  6.29296875 29.66015625  4.81640625 28.18359375  C 3.33984375 26.70703125  2.16796875 24.94921875  1.30078125 22.91015625  C 0.43359375 20.87109375  0 18.734375  0 16.5  C 0 14.265625  0.43359375 12.12890625  1.30078125 10.08984375  C 2.16796875 8.05078125  3.33984375 6.29296875  4.81640625 4.81640625  C 6.29296875 3.33984375  8.05078125 2.16796875  10.08984375 1.30078125  C 12.12890625 0.433593749999999  14.265625 0  16.5 0  C 18.734375 0  20.87109375 0.433593749999999  22.91015625 1.30078125  C 24.94921875 2.16796875  26.70703125 3.33984375  28.18359375 4.81640625  C 29.66015625 6.29296875  30.83203125 8.05078125  31.69921875 10.08984375  C 32.56640625 12.12890625  33 14.265625  33 16.5  C 33 19.9375  32.03125 23.0546875  30.09375 25.8515625  L 38.1328125 33.890625  Z " fill-rule="nonzero" fill="#d7d7d7" stroke="none" transform="matrix(1 0 0 1 789 147 )" />
  </g>
</svg>