<?xml version="1.0" encoding="utf-8"?>
<svg version="1.1" xmlns:xlink="http://www.w3.org/1999/xlink" width="22px" height="20px" xmlns="http://www.w3.org/2000/svg">
  <g transform="matrix(1 0 0 1 -1108 -52 )">
    <path d="M 21.4814814814815 14.9494949494949  C 21.8271604938272 15.2637485970819  22 15.645342312009  22 16.0942760942761  C 22 16.5432098765432  21.8271604938272 16.9248035914703  21.4814814814815 17.2390572390572  L 18.962962962963 19.5286195286195  C 18.6172839506173 19.8428731762065  18.1975308641975 20  17.7037037037037 20  C 17.2098765432099 20  16.7901234567901 19.8428731762065  16.4444444444444 19.5286195286195  L 11 14.5791245791246  L 5.55555555555556 19.5286195286195  C 5.20987654320988 19.8428731762065  4.79012345679012 20  4.2962962962963 20  C 3.80246913580247 20  3.38271604938272 19.8428731762065  3.03703703703704 19.5286195286195  L 0.518518518518518 17.2390572390572  C 0.17283950617284 16.9248035914703  0 16.5432098765432  0 16.0942760942761  C 0 15.645342312009  0.17283950617284 15.2637485970819  0.518518518518518 14.9494949494949  L 5.96296296296296 10  L 0.518518518518518 5.05050505050505  C 0.17283950617284 4.73625140291807  0 4.35465768799102  0 3.90572390572391  C 0 3.45679012345679  0.17283950617284 3.07519640852974  0.518518518518518 2.76094276094276  L 3.03703703703704 0.471380471380471  C 3.38271604938272 0.15712682379349  3.80246913580247 0  4.2962962962963 0  C 4.79012345679012 0  5.20987654320988 0.15712682379349  5.55555555555556 0.471380471380471  L 11 5.42087542087542  L 16.4444444444444 0.471380471380471  C 16.7901234567901 0.15712682379349  17.2098765432099 0  17.7037037037037 0  C 18.1975308641975 0  18.6172839506173 0.15712682379349  18.962962962963 0.471380471380471  L 21.4814814814815 2.76094276094276  C 21.8271604938272 3.07519640852974  22 3.45679012345679  22 3.90572390572391  C 22 4.35465768799102  21.8271604938272 4.73625140291807  21.4814814814815 5.05050505050505  L 16.037037037037 10  L 21.4814814814815 14.9494949494949  Z " fill-rule="nonzero" fill="#000000" stroke="none" transform="matrix(1 0 0 1 1108 52 )" />
  </g>
</svg>