<?xml version="1.0" encoding="utf-8"?>
<svg version="1.1" xmlns:xlink="http://www.w3.org/1999/xlink" width="12px" height="12px" viewBox="419 403.5  12 12" xmlns="http://www.w3.org/2000/svg">
  <path d="M 425 403.5  C 428.36 403.5  431 406.14  431 409.5  C 431 412.86  428.36 415.5  425 415.5  C 421.64 415.5  419 412.86  419 409.5  C 419 406.14  421.64 403.5  425 403.5  Z " fill-rule="nonzero" fill="#ffffff" stroke="none" />
  <path d="M 425 404  C 428.08 404  430.5 406.42  430.5 409.5  C 430.5 412.58  428.08 415  425 415  C 421.92 415  419.5 412.58  419.5 409.5  C 419.5 406.42  421.92 404  425 404  Z " stroke-width="1" stroke="#797979" fill="none" />
  <path d="M 425 412.5  C 423.32 412.5  422 411.18  422 409.5  C 422 407.82  423.32 406.5  425 406.5  C 426.68 406.5  428 407.82  428 409.5  C 428 411.18  426.68 412.5  425 412.5  " fill-rule="nonzero" fill="#797979" stroke="none" />
</svg>