<?xml version="1.0" encoding="utf-8"?>
<svg version="1.1" xmlns:xlink="http://www.w3.org/1999/xlink" width="12px" height="12px" viewBox="204 403.5  12 12" xmlns="http://www.w3.org/2000/svg">
  <path d="M 210 403.5  C 213.36 403.5  216 406.14  216 409.5  C 216 412.86  213.36 415.5  210 415.5  C 206.64 415.5  204 412.86  204 409.5  C 204 406.14  206.64 403.5  210 403.5  Z " fill-rule="nonzero" fill="#ffffff" stroke="none" />
  <path d="M 210 404  C 213.08 404  215.5 406.42  215.5 409.5  C 215.5 412.58  213.08 415  210 415  C 206.92 415  204.5 412.58  204.5 409.5  C 204.5 406.42  206.92 404  210 404  Z " stroke-width="1" stroke="#797979" fill="none" />
  <path d="M 210 412.5  C 208.32 412.5  207 411.18  207 409.5  C 207 407.82  208.32 406.5  210 406.5  C 211.68 406.5  213 407.82  213 409.5  C 213 411.18  211.68 412.5  210 412.5  " fill-rule="nonzero" fill="#797979" stroke="none" />
</svg>