<?xml version="1.0" encoding="utf-8"?>
<svg version="1.1" xmlns:xlink="http://www.w3.org/1999/xlink" width="15px" height="13px" xmlns="http://www.w3.org/2000/svg">
  <g transform="matrix(1 0 0 1 -798 -226 )">
    <path d="M 14.7290322580645 1.79461279461279  C 14.9096774193548 1.99887766554433  15 2.24691358024691  15 2.53872053872054  C 15 2.83052749719416  14.9096774193548 3.07856341189674  14.7290322580645 3.28282828282828  L 7.72258064516129 11.2053872053872  L 6.40645161290323 12.6936026936027  C 6.2258064516129 12.8978675645342  6.00645161290323 13  5.74838709677419 13  C 5.49032258064516 13  5.27096774193548 12.8978675645342  5.09032258064516 12.6936026936027  L 3.7741935483871 11.2053872053872  L 0.270967741935484 7.24410774410774  C 0.0903225806451614 7.03984287317621  0 6.79180695847362  0 6.5  C 0 6.20819304152637  0.0903225806451614 5.96015712682379  0.270967741935484 5.75589225589226  L 1.58709677419355 4.26767676767677  C 1.76774193548387 4.06341189674523  1.98709677419355 3.96127946127946  2.24516129032258 3.96127946127946  C 2.50322580645161 3.96127946127946  2.72258064516129 4.06341189674523  2.90322580645161 4.26767676767677  L 5.74838709677419 7.49579124579125  L 12.0967741935484 0.306397306397306  C 12.2774193548387 0.102132435465768  12.4967741935484 0  12.7548387096774 0  C 13.0129032258065 0  13.2322580645161 0.102132435465768  13.4129032258065 0.306397306397306  L 14.7290322580645 1.79461279461279  Z " fill-rule="nonzero" fill="#95f204" stroke="none" transform="matrix(1 0 0 1 798 226 )" />
  </g>
</svg>