<?xml version="1.0" encoding="utf-8"?>
<svg version="1.1" xmlns:xlink="http://www.w3.org/1999/xlink" width="21px" height="15px" xmlns="http://www.w3.org/2000/svg">
  <g transform="matrix(1 0 0 1 -910 -351 )">
    <path d="M 20.6206451612903 2.07070707070707  C 20.8735483870968 2.30639730639731  21 2.59259259259259  21 2.92929292929293  C 21 3.26599326599326  20.8735483870968 3.55218855218855  20.6206451612903 3.78787878787879  L 10.8116129032258 12.9292929292929  L 8.96903225806452 14.6464646464646  C 8.71612903225807 14.8821548821549  8.40903225806452 15  8.04774193548387 15  C 7.68645161290323 15  7.37935483870968 14.8821548821549  7.12645161290323 14.6464646464646  L 5.28387096774193 12.9292929292929  L 0.379354838709677 8.35858585858586  C 0.126451612903226 8.12289562289562  0 7.83670033670034  0 7.5  C 0 7.16329966329966  0.126451612903226 6.87710437710438  0.379354838709677 6.64141414141414  L 2.22193548387097 4.92424242424242  C 2.47483870967742 4.68855218855219  2.78193548387097 4.57070707070707  3.14322580645161 4.57070707070707  C 3.50451612903226 4.57070707070707  3.81161290322581 4.68855218855219  4.06451612903226 4.92424242424242  L 8.04774193548387 8.6489898989899  L 16.9354838709677 0.353535353535354  C 17.1883870967742 0.117845117845117  17.4954838709677 0  17.8567741935484 0  C 18.218064516129 0  18.5251612903226 0.117845117845117  18.778064516129 0.353535353535354  L 20.6206451612903 2.07070707070707  Z " fill-rule="nonzero" fill="#70b603" stroke="none" transform="matrix(1 0 0 1 910 351 )" />
  </g>
</svg>