<?xml version="1.0" encoding="utf-8"?>
<svg version="1.1" xmlns:xlink="http://www.w3.org/1999/xlink" width="22px" height="19px" xmlns="http://www.w3.org/2000/svg">
  <g transform="matrix(1 0 0 1 -961 -117 )">
    <path d="M 21.4814814814815 14.2020202020202  C 21.8271604938272 14.5005611672278  22 14.8630751964085  22 15.2895622895623  C 22 15.7160493827161  21.8271604938272 16.0785634118967  21.4814814814815 16.3771043771044  L 18.962962962963 18.5521885521886  C 18.6172839506173 18.8507295173962  18.1975308641975 19  17.7037037037037 19  C 17.2098765432099 19  16.7901234567901 18.8507295173962  16.4444444444444 18.5521885521886  L 11 13.8501683501684  L 5.55555555555556 18.5521885521886  C 5.20987654320988 18.8507295173962  4.79012345679012 19  4.2962962962963 19  C 3.80246913580247 19  3.38271604938272 18.8507295173962  3.03703703703704 18.5521885521886  L 0.518518518518518 16.3771043771044  C 0.17283950617284 16.0785634118967  0 15.7160493827161  0 15.2895622895623  C 0 14.8630751964085  0.17283950617284 14.5005611672278  0.518518518518518 14.2020202020202  L 5.96296296296296 9.5  L 0.518518518518518 4.7979797979798  C 0.17283950617284 4.49943883277216  0 4.13692480359147  0 3.71043771043771  C 0 3.28395061728395  0.17283950617284 2.92143658810325  0.518518518518518 2.62289562289562  L 3.03703703703704 0.447811447811448  C 3.38271604938272 0.149270482603815  3.80246913580247 0  4.2962962962963 0  C 4.79012345679012 0  5.20987654320988 0.149270482603815  5.55555555555556 0.447811447811448  L 11 5.14983164983165  L 16.4444444444444 0.447811447811448  C 16.7901234567901 0.149270482603815  17.2098765432099 0  17.7037037037037 0  C 18.1975308641975 0  18.6172839506173 0.149270482603815  18.962962962963 0.447811447811448  L 21.4814814814815 2.62289562289562  C 21.8271604938272 2.92143658810325  22 3.28395061728395  22 3.71043771043771  C 22 4.13692480359147  21.8271604938272 4.49943883277216  21.4814814814815 4.7979797979798  L 16.037037037037 9.5  L 21.4814814814815 14.2020202020202  Z " fill-rule="nonzero" fill="#aaaaaa" stroke="none" transform="matrix(1 0 0 1 961 117 )" />
  </g>
</svg>