<?xml version="1.0" encoding="utf-8"?>
<svg version="1.1" xmlns:xlink="http://www.w3.org/1999/xlink" width="17px" height="19px" xmlns="http://www.w3.org/2000/svg">
  <g transform="matrix(1 0 0 1 -869 -104 )">
    <path d="M 16.5993265993266 14.2020202020202  C 16.8664421997755 14.5005611672278  17 14.8630751964085  17 15.2895622895623  C 17 15.7160493827161  16.8664421997755 16.0785634118967  16.5993265993266 16.3771043771044  L 14.6531986531987 18.5521885521886  C 14.3860830527497 18.8507295173962  14.0617283950617 19  13.6801346801347 19  C 13.2985409652076 19  12.9741863075196 18.8507295173962  12.7070707070707 18.5521885521886  L 8.5 13.8501683501684  L 4.29292929292929 18.5521885521886  C 4.02581369248036 18.8507295173962  3.70145903479237 19  3.31986531986532 19  C 2.93827160493827 19  2.61391694725028 18.8507295173962  2.34680134680135 18.5521885521886  L 0.400673400673401 16.3771043771044  C 0.133557800224467 16.0785634118967  0 15.7160493827161  0 15.2895622895623  C 0 14.8630751964085  0.133557800224467 14.5005611672278  0.400673400673401 14.2020202020202  L 4.60774410774411 9.5  L 0.400673400673401 4.7979797979798  C 0.133557800224467 4.49943883277216  0 4.13692480359147  0 3.71043771043771  C 0 3.28395061728395  0.133557800224467 2.92143658810325  0.400673400673401 2.62289562289562  L 2.34680134680135 0.447811447811448  C 2.61391694725028 0.149270482603815  2.93827160493827 0  3.31986531986532 0  C 3.70145903479237 0  4.02581369248036 0.149270482603815  4.29292929292929 0.447811447811448  L 8.5 5.14983164983165  L 12.7070707070707 0.447811447811448  C 12.9741863075196 0.149270482603815  13.2985409652076 0  13.6801346801347 0  C 14.0617283950617 0  14.3860830527497 0.149270482603815  14.6531986531987 0.447811447811448  L 16.5993265993266 2.62289562289562  C 16.8664421997755 2.92143658810325  17 3.28395061728395  17 3.71043771043771  C 17 4.13692480359147  16.8664421997755 4.49943883277216  16.5993265993266 4.7979797979798  L 12.3922558922559 9.5  L 16.5993265993266 14.2020202020202  Z " fill-rule="nonzero" fill="#aaaaaa" stroke="none" transform="matrix(1 0 0 1 869 104 )" />
  </g>
</svg>