<?xml version="1.0" encoding="utf-8"?>
<svg version="1.1" xmlns:xlink="http://www.w3.org/1999/xlink" width="16px" height="17px" xmlns="http://www.w3.org/2000/svg">
  <g transform="matrix(1 0 0 1 -335 -21 )">
    <path d="M 15.6228956228956 12.7070707070707  C 15.8742985409652 12.9741863075196  16 13.2985409652076  16 13.6801346801347  C 16 14.0617283950617  15.8742985409652 14.3860830527497  15.6228956228956 14.6531986531987  L 13.7912457912458 16.5993265993266  C 13.5398428731762 16.8664421997755  13.2345679012346 17  12.8754208754209 17  C 12.5162738496072 17  12.2109988776655 16.8664421997755  11.959595959596 16.5993265993266  L 8 12.3922558922559  L 4.04040404040404 16.5993265993266  C 3.78900112233446 16.8664421997755  3.48372615039282 17  3.12457912457912 17  C 2.76543209876543 17  2.46015712682379 16.8664421997755  2.20875420875421 16.5993265993266  L 0.377104377104377 14.6531986531987  C 0.125701459034792 14.3860830527497  0 14.0617283950617  0 13.6801346801347  C 0 13.2985409652076  0.125701459034792 12.9741863075196  0.377104377104377 12.7070707070707  L 4.33670033670034 8.5  L 0.377104377104377 4.29292929292929  C 0.125701459034792 4.02581369248036  0 3.70145903479237  0 3.31986531986532  C 0 2.93827160493827  0.125701459034792 2.61391694725028  0.377104377104377 2.34680134680135  L 2.20875420875421 0.400673400673401  C 2.46015712682379 0.133557800224466  2.76543209876543 0  3.12457912457912 0  C 3.48372615039282 0  3.78900112233446 0.133557800224466  4.04040404040404 0.400673400673401  L 8 4.60774410774411  L 11.959595959596 0.400673400673401  C 12.2109988776655 0.133557800224466  12.5162738496072 0  12.8754208754209 0  C 13.2345679012346 0  13.5398428731762 0.133557800224466  13.7912457912458 0.400673400673401  L 15.6228956228956 2.34680134680135  C 15.8742985409652 2.61391694725028  16 2.93827160493827  16 3.31986531986532  C 16 3.70145903479237  15.8742985409652 4.02581369248036  15.6228956228956 4.29292929292929  L 11.6632996632997 8.5  L 15.6228956228956 12.7070707070707  Z " fill-rule="nonzero" fill="#aaaaaa" stroke="none" transform="matrix(1 0 0 1 335 21 )" />
  </g>
</svg>