<?xml version="1.0" encoding="utf-8"?>
<svg version="1.1" xmlns:xlink="http://www.w3.org/1999/xlink" width="16px" height="22px" xmlns="http://www.w3.org/2000/svg">
  <g transform="matrix(1 0 0 1 -23 -336 )">
    <path d="M 15.6818181818182 8.4375  C 15.8939393939394 8.72916666666666  16 9.08333333333333  16 9.5  L 16 12.5  C 16 12.9166666666667  15.8939393939394 13.2708333333333  15.6818181818182 13.5625  C 15.469696969697 13.8541666666667  15.2121212121212 14  14.9090909090909 14  L 10.1818181818182 14  L 10.1818181818182 20.5  C 10.1818181818182 20.9166666666667  10.0757575757576 21.2708333333333  9.86363636363636 21.5625  C 9.65151515151515 21.8541666666667  9.39393939393939 22  9.09090909090909 22  L 6.90909090909091 22  C 6.60606060606061 22  6.34848484848485 21.8541666666667  6.13636363636364 21.5625  C 5.92424242424242 21.2708333333333  5.81818181818182 20.9166666666667  5.81818181818182 20.5  L 5.81818181818182 14  L 1.09090909090909 14  C 0.787878787878788 14  0.53030303030303 13.8541666666667  0.318181818181818 13.5625  C 0.106060606060606 13.2708333333333  0 12.9166666666667  0 12.5  L 0 9.5  C 0 9.08333333333333  0.106060606060606 8.72916666666666  0.318181818181818 8.4375  C 0.53030303030303 8.14583333333333  0.787878787878788 8  1.09090909090909 8  L 5.81818181818182 8  L 5.81818181818182 1.5  C 5.81818181818182 1.08333333333333  5.92424242424242 0.729166666666665  6.13636363636364 0.4375  C 6.34848484848485 0.145833333333333  6.60606060606061 0  6.90909090909091 0  L 9.09090909090909 0  C 9.39393939393939 0  9.65151515151515 0.145833333333333  9.86363636363636 0.4375  C 10.0757575757576 0.729166666666665  10.1818181818182 1.08333333333333  10.1818181818182 1.5  L 10.1818181818182 8  L 14.9090909090909 8  C 15.2121212121212 8  15.469696969697 8.14583333333333  15.6818181818182 8.4375  Z " fill-rule="nonzero" fill="#d7d7d7" stroke="none" transform="matrix(1 0 0 1 23 336 )" />
  </g>
</svg>