<?xml version="1.0" encoding="utf-8"?>
<svg version="1.1" xmlns:xlink="http://www.w3.org/1999/xlink" width="8px" height="7px" xmlns="http://www.w3.org/2000/svg">
  <g transform="matrix(1 0 0 1 -394 -243 )">
    <path d="M 7.84090909090909 0.510416666666666  C 7.9469696969697 0.850694444444441  8 1.26388888888889  8 1.75  L 8 5.25  C 8 5.73611111111111  7.9469696969697 6.14930555555555  7.84090909090909 6.48958333333333  C 7.73484848484849 6.82986111111111  7.60606060606061 7  7.45454545454545 7  L 0.545454545454545 7  C 0.393939393939394 7  0.265151515151515 6.82986111111111  0.159090909090909 6.48958333333333  C 0.053030303030303 6.14930555555555  0 5.73611111111111  0 5.25  L 0 1.75  C 0 1.26388888888889  0.053030303030303 0.850694444444441  0.159090909090909 0.510416666666666  C 0.265151515151515 0.170138888888888  0.393939393939394 0  0.545454545454545 0  L 7.45454545454545 0  C 7.60606060606061 0  7.73484848484849 0.170138888888888  7.84090909090909 0.510416666666666  Z " fill-rule="nonzero" fill="#cccccc" stroke="none" transform="matrix(1 0 0 1 394 243 )" />
  </g>
</svg>