<?xml version="1.0" encoding="utf-8"?>
<svg version="1.1" xmlns:xlink="http://www.w3.org/1999/xlink" width="12px" height="12px" viewBox="498 351.5  12 12" xmlns="http://www.w3.org/2000/svg">
  <path d="M 504 351.5  C 507.36 351.5  510 354.14  510 357.5  C 510 360.86  507.36 363.5  504 363.5  C 500.64 363.5  498 360.86  498 357.5  C 498 354.14  500.64 351.5  504 351.5  Z " fill-rule="nonzero" fill="#f0f0f0" stroke="none" />
  <path d="M 504 352  C 507.08 352  509.5 354.42  509.5 357.5  C 509.5 360.58  507.08 363  504 363  C 500.92 363  498.5 360.58  498.5 357.5  C 498.5 354.42  500.92 352  504 352  Z " stroke-width="1" stroke="#797979" fill="none" />
  <path d="M 504 360.5  C 502.32 360.5  501 359.18  501 357.5  C 501 355.82  502.32 354.5  504 354.5  C 505.68 354.5  507 355.82  507 357.5  C 507 359.18  505.68 360.5  504 360.5  " fill-rule="nonzero" fill="#797979" stroke="none" />
</svg>