<?xml version="1.0" encoding="utf-8"?>
<svg version="1.1" xmlns:xlink="http://www.w3.org/1999/xlink" width="12px" height="12px" viewBox="431 351.5  12 12" xmlns="http://www.w3.org/2000/svg">
  <path d="M 437 351.5  C 440.36 351.5  443 354.14  443 357.5  C 443 360.86  440.36 363.5  437 363.5  C 433.64 363.5  431 360.86  431 357.5  C 431 354.14  433.64 351.5  437 351.5  Z " fill-rule="nonzero" fill="#ffffff" stroke="none" />
  <path d="M 437 352  C 440.08 352  442.5 354.42  442.5 357.5  C 442.5 360.58  440.08 363  437 363  C 433.92 363  431.5 360.58  431.5 357.5  C 431.5 354.42  433.92 352  437 352  Z " stroke-width="1" stroke="#797979" fill="none" />
  <path d="M 437 360.5  C 435.32 360.5  434 359.18  434 357.5  C 434 355.82  435.32 354.5  437 354.5  C 438.68 354.5  440 355.82  440 357.5  C 440 359.18  438.68 360.5  437 360.5  " fill-rule="nonzero" fill="#797979" stroke="none" />
</svg>