<?xml version="1.0" encoding="utf-8"?>
<svg version="1.1" xmlns:xlink="http://www.w3.org/1999/xlink" width="12px" height="18px" xmlns="http://www.w3.org/2000/svg">
  <g transform="matrix(1 0 0 1 -1687 -19 )">
    <path d="M 11.7171717171717 13.4545454545455  C 11.9057239057239 13.7373737373737  12 14.0808080808081  12 14.4848484848485  C 12 14.8888888888889  11.9057239057239 15.2323232323232  11.7171717171717 15.5151515151515  L 10.3434343434343 17.5757575757576  C 10.1548821548822 17.8585858585859  9.92592592592593 18  9.65656565656566 18  C 9.38720538720539 18  9.15824915824916 17.8585858585859  8.96969696969697 17.5757575757576  L 6 13.1212121212121  L 3.03030303030303 17.5757575757576  C 2.84175084175084 17.8585858585859  2.61279461279461 18  2.34343434343434 18  C 2.07407407407407 18  1.84511784511785 17.8585858585859  1.65656565656566 17.5757575757576  L 0.282828282828283 15.5151515151515  C 0.0942760942760944 15.2323232323232  0 14.8888888888889  0 14.4848484848485  C 0 14.0808080808081  0.0942760942760944 13.7373737373737  0.282828282828283 13.4545454545455  L 3.25252525252525 9  L 0.282828282828283 4.54545454545455  C 0.0942760942760944 4.26262626262626  0 3.91919191919192  0 3.51515151515152  C 0 3.11111111111111  0.0942760942760944 2.76767676767677  0.282828282828283 2.48484848484849  L 1.65656565656566 0.424242424242424  C 1.84511784511785 0.141414141414141  2.07407407407407 0  2.34343434343434 0  C 2.61279461279461 0  2.84175084175084 0.141414141414141  3.03030303030303 0.424242424242424  L 6 4.87878787878788  L 8.96969696969697 0.424242424242424  C 9.15824915824916 0.141414141414141  9.38720538720539 0  9.65656565656566 0  C 9.92592592592593 0  10.1548821548822 0.141414141414141  10.3434343434343 0.424242424242424  L 11.7171717171717 2.48484848484849  C 11.9057239057239 2.76767676767677  12 3.11111111111111  12 3.51515151515152  C 12 3.91919191919192  11.9057239057239 4.26262626262626  11.7171717171717 4.54545454545455  L 8.74747474747475 9  L 11.7171717171717 13.4545454545455  Z " fill-rule="nonzero" fill="#aaaaaa" stroke="none" transform="matrix(1 0 0 1 1687 19 )" />
  </g>
</svg>