<?xml version="1.0" encoding="utf-8"?>
<svg version="1.1" xmlns:xlink="http://www.w3.org/1999/xlink" width="20px" height="30px" xmlns="http://www.w3.org/2000/svg">
  <g transform="matrix(1 0 0 1 -213 -50 )">
    <path d="M 4.1796875 8.38423295454545  C 4.25037202380952 8.51917613636363  4.28571428571429 8.67897727272727  4.28571428571429 8.86363636363636  L 4.28571428571429 21.1363636363636  C 4.28571428571429 21.3210227272727  4.25037202380952 21.4808238636364  4.1796875 21.6157670454545  C 4.10900297619048 21.7507102272727  4.02529761904762 21.8181818181818  3.92857142857143 21.8181818181818  C 3.82440476190476 21.8181818181818  3.73883928571429 21.7542613636364  3.671875 21.6264204545455  L 0.457589285714286 15.4900568181818  C 0.390625 15.3622159090909  0.357142857142857 15.1988636363636  0.357142857142857 15  C 0.357142857142857 14.8011363636364  0.390625 14.6377840909091  0.457589285714286 14.5099431818182  L 3.671875 8.37357954545455  C 3.73883928571429 8.24573863636364  3.82440476190476 8.18181818181818  3.92857142857143 8.18181818181818  C 4.02529761904762 8.18181818181818  4.10900297619048 8.24928977272727  4.1796875 8.38423295454545  Z M 19.8939732142857 24.7478693181818  C 19.9646577380952 24.8828125  20 25.0426136363636  20 25.2272727272727  L 20 29.3181818181818  C 20 29.5028409090909  19.9646577380952 29.6626420454545  19.8939732142857 29.7975852272727  C 19.8232886904762 29.9325284090909  19.7395833333333 30  19.6428571428571 30  L 0.357142857142857 30  C 0.260416666666667 30  0.17671130952381 29.9325284090909  0.106026785714286 29.7975852272727  C 0.0353422619047619 29.6626420454545  0 29.5028409090909  0 29.3181818181818  L 0 25.2272727272727  C 0 25.0426136363636  0.0353422619047619 24.8828125  0.106026785714286 24.7478693181818  C 0.17671130952381 24.6129261363636  0.260416666666667 24.5454545454545  0.357142857142857 24  L 19.6428571428571 24  C 19.7395833333333 24.5454545454545  19.8232886904762 24.6129261363636  19.8939732142857 24.7478693181818  Z M 19.8939732142857 16.5660511363636  C 19.9646577380952 16.7009943181818  20 16.8607954545455  20 17.0454545454545  L 20 21.1363636363636  C 20 21.3210227272727  19.9646577380952 21.4808238636364  19.8939732142857 21.6157670454545  C 19.8232886904762 21.7507102272727  19.7395833333333 21.8181818181818  19.6428571428571 21.8181818181818  L 7.5 21.8181818181818  C 7.40327380952381 21.8181818181818  7.31956845238095 21.7507102272727  7.24888392857143 21.6157670454545  C 7.17819940476191 21.4808238636364  7.14285714285714 21.3210227272727  7.14285714285714 21.1363636363636  L 7.14285714285714 17.0454545454545  C 7.14285714285714 16.8607954545455  7.17819940476191 16.7009943181818  7.24888392857143 16.5660511363636  C 7.31956845238095 16.4311079545455  7.40327380952381 16.3636363636364  7.5 16  L 19.6428571428571 16  C 19.7395833333333 16.3636363636364  19.8232886904762 16.4311079545455  19.8939732142857 16.5660511363636  Z M 19.8939732142857 8.38423295454545  C 19.9646577380952 8.51917613636363  20 8.67897727272727  20 8.86363636363636  L 20 12.9545454545455  C 20 13.1392045454545  19.9646577380952 13.2990056818182  19.8939732142857 13.4339488636364  C 19.8232886904762 13.5688920454545  19.7395833333333 13.6363636363636  19.6428571428571 14  L 7.5 14  C 7.40327380952381 13.6363636363636  7.31956845238095 13.5688920454545  7.24888392857143 13.4339488636364  C 7.17819940476191 13.2990056818182  7.14285714285714 13.1392045454545  7.14285714285714 12.9545454545455  L 7.14285714285714 8.86363636363636  C 7.14285714285714 8.67897727272727  7.17819940476191 8.51917613636363  7.24888392857143 8.38423295454545  C 7.31956845238095 8.24928977272727  7.40327380952381 8.18181818181818  7.5 8.18181818181818  L 19.6428571428571 8.18181818181818  C 19.7395833333333 8.18181818181818  19.8232886904762 8.24928977272727  19.8939732142857 8.38423295454545  Z M 19.8939732142857 0.202414772727272  C 19.9646577380952 0.337357954545454  20 0.497159090909088  20 0.681818181818181  L 20 4.77272727272727  C 20 4.95738636363636  19.9646577380952 5.1171875  19.8939732142857 5.25213068181818  C 19.8232886904762 5.38707386363636  19.7395833333333 5.45454545454545  19.6428571428571 6  L 0.357142857142857 6  C 0.260416666666667 5.45454545454545  0.17671130952381 5.38707386363636  0.106026785714286 5.25213068181818  C 0.0353422619047619 5.1171875  0 4.95738636363636  0 4.77272727272727  L 0 0.681818181818181  C 0 0.497159090909088  0.0353422619047619 0.337357954545454  0.106026785714286 0.202414772727272  C 0.17671130952381 0.0674715909090862  0.260416666666667 0  0.357142857142857 0  L 19.6428571428571 0  C 19.7395833333333 0  19.8232886904762 0.0674715909090862  19.8939732142857 0.202414772727272  Z " fill-rule="nonzero" fill="#aaaaaa" stroke="none" transform="matrix(1 0 0 1 213 50 )" />
  </g>
</svg>