<?xml version="1.0" encoding="utf-8"?>
<svg version="1.1" xmlns:xlink="http://www.w3.org/1999/xlink" width="9px" height="24px" xmlns="http://www.w3.org/2000/svg">
  <g transform="matrix(1 0 0 1 -1472 -488 )">
    <path d="M 8.8330078125 14.5056818181818  C 8.9443359375 14.7215909090909  9 14.9772727272727  9 15.2727272727273  C 9 15.5681818181818  8.9443359375 15.8238636363636  8.8330078125 16.0397727272727  L 4.8955078125 23.6761363636364  C 4.7841796875 23.8920454545455  4.65234375 24  4.5 24  C 4.34765625 24  4.2158203125 23.8920454545455  4.1044921875 23.6761363636364  L 0.1669921875 16.0397727272727  C 0.0556640625 15.8238636363636  0 15.5681818181818  0 15.2727272727273  C 0 14.9772727272727  0.0556640625 14.7215909090909  0.1669921875 14.5056818181818  C 0.2783203125 14.2897727272727  0.41015625 14.1818181818182  0.5625 14.1818181818182  L 8.4375 14.1818181818182  C 8.58984375 14.1818181818182  8.7216796875 14.2897727272727  8.8330078125 14.5056818181818  Z M 8.8330078125 7.96022727272727  C 8.9443359375 8.17613636363636  9 8.43181818181818  9 8.72727272727273  C 9 9.02272727272727  8.9443359375 9.27840909090909  8.8330078125 9.49431818181818  C 8.7216796875 9.71022727272727  8.58984375 9.81818181818182  8.4375 9.81818181818182  L 0.5625 9.81818181818182  C 0.41015625 9.81818181818182  0.2783203125 9.71022727272727  0.1669921875 9.49431818181818  C 0.0556640625 9.27840909090909  0 9.02272727272727  0 8.72727272727273  C 0 8.43181818181818  0.0556640625 8.17613636363636  0.1669921875 7.96022727272727  L 4.1044921875 0.323863636363638  C 4.2158203125 0.107954545454543  4.34765625 0  4.5 0  C 4.65234375 0  4.7841796875 0.107954545454543  4.8955078125 0.323863636363638  L 8.8330078125 7.96022727272727  Z " fill-rule="nonzero" fill="#000000" stroke="none" transform="matrix(1 0 0 1 1472 488 )" />
  </g>
</svg>