<?xml version="1.0" encoding="utf-8"?>
<svg version="1.1" xmlns:xlink="http://www.w3.org/1999/xlink" width="226px" height="59px" xmlns="http://www.w3.org/2000/svg">
  <g transform="matrix(1 0 0 1 -149 -266 )">
    <path d="M 150.399581589958 319.333362199253  C 150.399581589958 319.333362199253  150.399581589958 280.448617631716  150.399581589958 280.448617631716  C 150.399581589958 278.971710592233  151.124293393318 277.588818087065  152.338729504127 276.748342426479  C 152.338729504127 276.748342426479  160.35626832307 266.731840780931  160.35626832307 266.731840780931  C 160.35626832307 266.731840780931  171.142605472537 275.948617631716  171.142605472537 275.948617631716  C 171.142605472537 275.948617631716  370 275.948617631716  370 275.948617631716  C 372.485281374238 275.948617631716  374.5 277.963336257478  374.5 280.448617631716  C 374.5 280.448617631716  374.5 319.333362199253  374.5 319.333362199253  C 374.5 321.818643573492  372.485281374238 323.833362199253  370 323.833362199253  C 370 323.833362199253  154.899581589958 323.833362199253  154.899581589958 323.833362199253  C 152.41430021572 323.833362199253  150.399581589958 321.818643573492  150.399581589958 319.333362199253  Z " fill-rule="nonzero" fill="#ffffff" stroke="none" />
    <path d="M 149.899581589958 319.333362199253  C 149.899581589958 319.333362199253  149.899581589958 280.448617631716  149.899581589958 280.448617631716  C 149.899581589958 278.834100716694  150.67918090763 277.318939860843  151.992840448242 276.380343312664  C 151.992840448242 276.380343312664  160.28855721393 266.016307352128  160.28855721393 266.016307352128  C 160.28855721393 266.016307352128  171.327131806885 275.448617631716  171.327131806885 275.448617631716  C 171.327131806885 275.448617631716  370 275.448617631716  370 275.448617631716  C 372.761423749154 275.448617631716  375 277.687193882562  375 280.448617631716  C 375 280.448617631716  375 319.333362199253  375 319.333362199253  C 375 322.094785948407  372.761423749154 324.333362199253  370 324.333362199253  C 370 324.333362199253  154.899581589958 324.333362199253  154.899581589958 324.333362199253  C 152.138157840804 324.333362199253  149.899581589958 322.094785948407  149.899581589958 319.333362199253  Z M 150.899581589958 319.333362199253  C 150.899581589958 321.542501198576  152.690442590635 323.333362199253  154.899581589958 323.333362199253  C 154.899581589958 323.333362199253  370 323.333362199253  370 323.333362199253  C 372.209138999323 323.333362199253  374 321.542501198576  374 319.333362199253  C 374 319.333362199253  374 280.448617631716  374 280.448617631716  C 374 278.239478632393  372.209138999323 276.448617631716  370 276.448617631716  C 370 276.448617631716  170.958079138188 276.448617631716  170.958079138188 276.448617631716  C 170.958079138188 276.448617631716  160.42397943221 267.447374209733  160.42397943221 267.447374209733  C 160.42397943221 267.447374209733  152.682015414009 277.119593712414  152.682015414009 277.119593712414  C 151.568508174763 277.861335451219  150.899581589958 279.110679225459  150.899581589958 280.448617631716  C 150.899581589958 280.448617631716  150.899581589958 319.333362199253  150.899581589958 319.333362199253  Z " fill-rule="nonzero" fill="#d7d7d7" stroke="none" />
  </g>
</svg>