<?xml version="1.0" encoding="utf-8"?>
<svg version="1.1" xmlns:xlink="http://www.w3.org/1999/xlink" width="227px" height="70px" xmlns="http://www.w3.org/2000/svg">
  <g transform="matrix(1 0 0 1 -444 -108 )">
    <path d="M 444.5 163.288954901431  C 444.5 163.288954901431  444.5 113  444.5 113  C 444.5 110.514718625761  446.514718625761 108.5  449 108.5  C 449 108.5  666 108.5  666 108.5  C 668.485281374239 108.5  670.5 110.514718625761  670.5 113  C 670.5 113  670.5 163.288954901431  670.5 163.288954901431  C 670.5 165.77423627567  668.485281374239 167.788954901431  666 167.788954901431  C 666 167.788954901431  483.24245867133 167.788954901431  483.24245867133 167.788954901431  C 483.24245867133 167.788954901431  460.330750933574 176.401837459266  460.330750933574 176.401837459266  C 460.330750933574 176.401837459266  458.826016720315 167.788954901431  458.826016720315 167.788954901431  C 458.826016720315 167.788954901431  449 167.788954901431  449 167.788954901431  C 446.514718625761 167.788954901431  444.5 165.77423627567  444.5 163.288954901431  Z " fill-rule="nonzero" fill="#ffffff" stroke="none" />
    <path d="M 444 163.288954901431  C 444 163.288954901431  444 113  444 113  C 444 110.238576250846  446.238576250846 108  449 108  C 449 108  666 108  666 108  C 668.761423749154 108  671 110.238576250846  671 113  C 671 113  671 163.288954901431  671 163.288954901431  C 671 166.050378650585  668.761423749154 168.288954901431  666 168.288954901431  C 666 168.288954901431  483.333333333333 168.288954901431  483.333333333333 168.288954901431  C 483.333333333333 168.288954901431  459.942028985507 177.082125603866  459.942028985507 177.082125603866  C 459.942028985507 177.082125603866  458.405797101451 168.288954901431  458.405797101451 168.288954901431  C 458.405797101451 168.288954901431  449 168.288954901431  449 168.288954901431  C 446.238576250846 168.288954901431  444 166.050378650585  444 163.288954901431  Z M 445 163.288954901431  C 445 165.498093900754  446.790861000677 167.288954901431  449 167.288954901431  C 449 167.288954901431  459.24623633918 167.288954901431  459.24623633918 167.288954901431  C 459.24623633918 167.288954901431  460.719472881641 175.721549314665  460.719472881641 175.721549314665  C 460.719472881641 175.721549314665  483.151584009326 167.288954901431  483.151584009326 167.288954901431  C 483.151584009326 167.288954901431  666 167.288954901431  666 167.288954901431  C 668.209138999323 167.288954901431  670 165.498093900754  670 163.288954901431  C 670 163.288954901431  670 113  670 113  C 670 110.790861000677  668.209138999323 109  666 109  C 666 109  449 109  449 109  C 446.790861000677 109  445 110.790861000677  445 113  C 445 113  445 163.288954901431  445 163.288954901431  Z " fill-rule="nonzero" fill="#d7d7d7" stroke="none" />
  </g>
</svg>