<?xml version="1.0" encoding="utf-8"?>
<svg version="1.1" xmlns:xlink="http://www.w3.org/1999/xlink" width="15px" height="18px" xmlns="http://www.w3.org/2000/svg">
  <g transform="matrix(1 0 0 1 -125 -241 )">
    <path d="M 14.6630859375 10.611328125  C 14.7249348958333 10.685546875  14.755859375 10.7734375  14.755859375 10.875  C 14.755859375 10.9140625  14.7526041666667 10.94140625  14.74609375 10.95703125  C 14.3294270833333 13.05078125  13.45703125 14.748046875  12.12890625 16.048828125  C 10.80078125 17.349609375  9.24479166666667 18  7.4609375 18  C 6.51041666666667 18  5.5908203125 17.78515625  4.7021484375 17.35546875  C 3.8134765625 16.92578125  3.02083333333333 16.3125  2.32421875 15.515625  L 1.064453125 17.02734375  C 0.940755208333333 17.17578125  0.794270833333333 17.25  0.625 17.25  C 0.455729166666667 17.25  0.309244791666667 17.17578125  0.185546875 17.02734375  C 0.0618489583333333 16.87890625  0 16.703125  0 16.5  L 0 11.25  C 0 11.046875  0.0618489583333333 10.87109375  0.185546875 10.72265625  C 0.309244791666667 10.57421875  0.455729166666667 10.5  0.625 10.5  L 5 10.5  C 5.16927083333333 10.5  5.31575520833333 10.57421875  5.439453125 10.72265625  C 5.56315104166667 10.87109375  5.625 11.046875  5.625 11.25  C 5.625 11.453125  5.56315104166667 11.62890625  5.439453125 11.77734375  L 4.1015625 13.3828125  C 4.56380208333333 13.8984375  5.087890625 14.296875  5.673828125 14.578125  C 6.259765625 14.859375  6.86848958333333 15  7.5 15  C 8.37239583333333 15  9.18619791666667 14.74609375  9.94140625 14.23828125  C 10.6966145833333 13.73046875  11.3020833333333 13.03125  11.7578125 12.140625  C 11.8294270833333 12.0078125  12.001953125 11.55078125  12.275390625 10.76953125  C 12.3274739583333 10.58984375  12.4251302083333 10.5  12.568359375 10.5  L 14.443359375 10.5  C 14.5279947916667 10.5  14.6012369791667 10.537109375  14.6630859375 10.611328125  Z M 14.814453125 0.972656250000001  C 14.9381510416667 1.12109375  15 1.296875  15 1.5  L 15 6.75  C 15 6.953125  14.9381510416667 7.12890625  14.814453125 7.27734375  C 14.6907552083333 7.42578125  14.5442708333333 7.5  14.375 7.5  L 10 7.5  C 9.83072916666667 7.5  9.68424479166667 7.42578125  9.560546875 7.27734375  C 9.43684895833333 7.12890625  9.375 6.953125  9.375 6.75  C 9.375 6.546875  9.43684895833333 6.37109375  9.560546875 6.22265625  L 10.908203125 4.60546875  C 9.94466145833334 3.53515625  8.80859375 3  7.5 3  C 6.62760416666667 3  5.81380208333333 3.25390625  5.05859375 3.76171875  C 4.30338541666667 4.26953125  3.69791666666667 4.96875  3.2421875 5.859375  C 3.17057291666667 5.9921875  2.998046875 6.44921875  2.724609375 7.23046875  C 2.67252604166667 7.41015625  2.57486979166667 7.5  2.431640625 7.5  L 0.48828125 7.5  C 0.403645833333333 7.5  0.330403645833333 7.462890625  0.2685546875 7.388671875  C 0.206705729166667 7.314453125  0.17578125 7.2265625  0.17578125 7.125  L 0.17578125 7.04296875  C 0.598958333333333 4.94921875  1.47786458333333 3.251953125  2.8125 1.951171875  C 4.14713541666667 0.650390625  5.70963541666667 0  7.5 0  C 8.45052083333333 0  9.375 0.216796875000001  10.2734375 0.650390625  C 11.171875 1.083984375  11.9694010416667 1.6953125  12.666015625 2.484375  L 13.935546875 0.972656250000001  C 14.0592447916667 0.824218749999998  14.2057291666667 0.749999999999999  14.375 0.749999999999999  C 14.5442708333333 0.749999999999999  14.6907552083333 0.824218749999998  14.814453125 0.972656250000001  Z " fill-rule="nonzero" fill="#000000" stroke="none" transform="matrix(1 0 0 1 125 241 )" />
  </g>
</svg>