<?xml version="1.0" encoding="utf-8"?>
<svg version="1.1" xmlns:xlink="http://www.w3.org/1999/xlink" width="25px" height="25px" xmlns="http://www.w3.org/2000/svg">
  <g transform="matrix(1 0 0 1 -444 -185 )">
    <path d="M 16.5201822916667 20.6868489583333  C 16.6178385416667 20.5891927083333  16.6666666666667 20.4644097222222  16.6666666666667 20.3125  L 16.6666666666667 17.7083333333333  C 16.6666666666667 17.5564236111111  16.6178385416667 17.431640625  16.5201822916667 17.333984375  C 16.4225260416667 17.236328125  16.2977430555556 17.1875  16.1458333333333 17.1875  L 14.5833333333333 17.1875  L 14.5833333333333 8.85416666666667  C 14.5833333333333 8.70225694444444  14.5345052083333 8.57747395833333  14.4368489583333 8.47981770833333  C 14.3391927083333 8.38216145833333  14.2144097222222 8.33333333333333  14.0625 8.33333333333333  L 8.85416666666667 8.33333333333333  C 8.70225694444445 8.33333333333333  8.57747395833333 8.38216145833333  8.47981770833333 8.47981770833333  C 8.38216145833333 8.57747395833333  8.33333333333333 8.70225694444444  8.33333333333333 8.85416666666667  L 8.33333333333333 11.4583333333333  C 8.33333333333333 11.6102430555556  8.38216145833333 11.7350260416667  8.47981770833333 11.8326822916667  C 8.57747395833333 11.9303385416667  8.70225694444445 11.9791666666667  8.85416666666667 11.9791666666667  L 10.4166666666667 11.9791666666667  L 10.4166666666667 17.1875  L 8.85416666666667 17.1875  C 8.70225694444445 17.1875  8.57747395833333 17.236328125  8.47981770833333 17.333984375  C 8.38216145833333 17.431640625  8.33333333333333 17.5564236111111  8.33333333333333 17.7083333333333  L 8.33333333333333 20.3125  C 8.33333333333333 20.4644097222222  8.38216145833333 20.5891927083333  8.47981770833333 20.6868489583333  C 8.57747395833333 20.7845052083333  8.70225694444445 20.8333333333333  8.85416666666667 20.8333333333333  L 16.1458333333333 20.8333333333333  C 16.2977430555556 20.8333333333333  16.4225260416667 20.7845052083333  16.5201822916667 20.6868489583333  Z M 14.4368489583333 6.103515625  C 14.5345052083333 6.005859375  14.5833333333333 5.88107638888889  14.5833333333333 5.72916666666667  L 14.5833333333333 3.125  C 14.5833333333333 2.97309027777778  14.5345052083333 2.84830729166667  14.4368489583333 2.75065104166667  C 14.3391927083333 2.65299479166667  14.2144097222222 2.60416666666667  14.0625 2.60416666666667  L 10.9375 2.60416666666667  C 10.7855902777778 2.60416666666667  10.6608072916667 2.65299479166667  10.5631510416667 2.75065104166667  C 10.4654947916667 2.84830729166667  10.4166666666667 2.97309027777778  10.4166666666667 3.125  L 10.4166666666667 5.72916666666667  C 10.4166666666667 5.88107638888889  10.4654947916667 6.005859375  10.5631510416667 6.103515625  C 10.6608072916667 6.201171875  10.7855902777778 6.25  10.9375 6.25  L 14.0625 6.25  C 14.2144097222222 6.25  14.3391927083333 6.201171875  14.4368489583333 6.103515625  Z M 23.3235677083333 6.2255859375  C 24.4411892361111 8.14073350694444  25 10.2322048611111  25 12.5  C 25 14.7677951388889  24.4411892361111 16.8592664930556  23.3235677083333 18.7744140625  C 22.2059461805556 20.6895616319444  20.6895616319444 22.2059461805556  18.7744140625 23.3235677083333  C 16.8592664930556 24.4411892361111  14.7677951388889 25  12.5 25  C 10.2322048611111 25  8.14073350694444 24.4411892361111  6.2255859375 23.3235677083333  C 4.31043836805556 22.2059461805556  2.79405381944444 20.6895616319444  1.67643229166667 18.7744140625  C 0.558810763888889 16.8592664930556  0 14.7677951388889  0 12.5  C 0 10.2322048611111  0.558810763888889 8.14073350694444  1.67643229166667 6.2255859375  C 2.79405381944444 4.31043836805556  4.31043836805556 2.79405381944444  6.2255859375 1.67643229166667  C 8.14073350694444 0.558810763888887  10.2322048611111 0  12.5 0  C 14.7677951388889 0  16.8592664930556 0.558810763888887  18.7744140625 1.67643229166667  C 20.6895616319444 2.79405381944444  22.2059461805556 4.31043836805556  23.3235677083333 6.2255859375  Z " fill-rule="nonzero" fill="#000000" stroke="none" transform="matrix(1 0 0 1 444 185 )" />
  </g>
</svg>