<?xml version="1.0" encoding="utf-8"?>
<svg version="1.1" xmlns:xlink="http://www.w3.org/1999/xlink" width="20px" height="21px" xmlns="http://www.w3.org/2000/svg">
  <g transform="matrix(1 0 0 1 -149 -240 )">
    <path d="M 13.2161458333333 17.376953125  C 13.2942708333333 17.294921875  13.3333333333333 17.1901041666667  13.3333333333333 17.0625  L 13.3333333333333 14.875  C 13.3333333333333 14.7473958333333  13.2942708333333 14.642578125  13.2161458333333 14.560546875  C 13.1380208333333 14.478515625  13.0381944444444 14.4375  12.9166666666667 14.4375  L 11.6666666666667 14.4375  L 11.6666666666667 7.4375  C 11.6666666666667 7.30989583333333  11.6276041666667 7.205078125  11.5494791666667 7.123046875  C 11.4713541666667 7.041015625  11.3715277777778 7  11.25 7  L 7.08333333333333 7  C 6.96180555555556 7  6.86197916666667 7.041015625  6.78385416666667 7.123046875  C 6.70572916666667 7.205078125  6.66666666666667 7.30989583333333  6.66666666666667 7.4375  L 6.66666666666667 9.625  C 6.66666666666667 9.75260416666667  6.70572916666667 9.857421875  6.78385416666667 9.939453125  C 6.86197916666667 10.021484375  6.96180555555556 10.0625  7.08333333333333 10.0625  L 8.33333333333333 10.0625  L 8.33333333333333 14.4375  L 7.08333333333333 14.4375  C 6.96180555555556 14.4375  6.86197916666667 14.478515625  6.78385416666667 14.560546875  C 6.70572916666667 14.642578125  6.66666666666667 14.7473958333333  6.66666666666667 14.875  L 6.66666666666667 17.0625  C 6.66666666666667 17.1901041666667  6.70572916666667 17.294921875  6.78385416666667 17.376953125  C 6.86197916666667 17.458984375  6.96180555555556 17.5  7.08333333333333 17.5  L 12.9166666666667 17.5  C 13.0381944444444 17.5  13.1380208333333 17.458984375  13.2161458333333 17.376953125  Z M 11.5494791666667 5.126953125  C 11.6276041666667 5.044921875  11.6666666666667 4.94010416666667  11.6666666666667 4.8125  L 11.6666666666667 2.625  C 11.6666666666667 2.49739583333333  11.6276041666667 2.392578125  11.5494791666667 2.310546875  C 11.4713541666667 2.228515625  11.3715277777778 2.1875  11.25 2.1875  L 8.75 2.1875  C 8.62847222222222 2.1875  8.52864583333333 2.228515625  8.45052083333333 2.310546875  C 8.37239583333333 2.392578125  8.33333333333333 2.49739583333333  8.33333333333333 2.625  L 8.33333333333333 4.8125  C 8.33333333333333 4.94010416666667  8.37239583333333 5.044921875  8.45052083333333 5.126953125  C 8.52864583333333 5.208984375  8.62847222222222 5.25  8.75 5.25  L 11.25 5.25  C 11.3715277777778 5.25  11.4713541666667 5.208984375  11.5494791666667 5.126953125  Z M 18.6588541666667 5.2294921875  C 19.5529513888889 6.83821614583333  20 8.59505208333333  20 10.5  C 20 12.4049479166667  19.5529513888889 14.1617838541667  18.6588541666667 15.7705078125  C 17.7647569444444 17.3792317708333  16.5516493055556 18.6529947916667  15.01953125 19.591796875  C 13.4874131944444 20.5305989583333  11.8142361111111 21  10 21  C 8.18576388888889 21  6.51258680555556 20.5305989583333  4.98046875 19.591796875  C 3.44835069444444 18.6529947916667  2.23524305555556 17.3792317708333  1.34114583333333 15.7705078125  C 0.447048611111111 14.1617838541667  0 12.4049479166667  0 10.5  C 0 8.59505208333333  0.447048611111111 6.83821614583333  1.34114583333333 5.2294921875  C 2.23524305555556 3.62076822916667  3.44835069444444 2.34700520833333  4.98046875 1.408203125  C 6.51258680555556 0.469401041666665  8.18576388888889 0  10 0  C 11.8142361111111 0  13.4874131944444 0.469401041666665  15.01953125 1.408203125  C 16.5516493055556 2.34700520833333  17.7647569444444 3.62076822916667  18.6588541666667 5.2294921875  Z " fill-rule="nonzero" fill="#000000" stroke="none" transform="matrix(1 0 0 1 149 240 )" />
  </g>
</svg>