<?xml version="1.0" encoding="utf-8"?>
<svg version="1.1" xmlns:xlink="http://www.w3.org/1999/xlink" width="12px" height="12px" viewBox="400 184.5  12 12" xmlns="http://www.w3.org/2000/svg">
  <path d="M 406 184.5  C 409.36 184.5  412 187.14  412 190.5  C 412 193.86  409.36 196.5  406 196.5  C 402.64 196.5  400 193.86  400 190.5  C 400 187.14  402.64 184.5  406 184.5  Z " fill-rule="nonzero" fill="#f2f2f2" stroke="none" />
  <path d="M 406 185  C 409.08 185  411.5 187.42  411.5 190.5  C 411.5 193.58  409.08 196  406 196  C 402.92 196  400.5 193.58  400.5 190.5  C 400.5 187.42  402.92 185  406 185  Z " stroke-width="1" stroke="#797979" fill="none" />
  <path d="M 406 193.5  C 404.32 193.5  403 192.18  403 190.5  C 403 188.82  404.32 187.5  406 187.5  C 407.68 187.5  409 188.82  409 190.5  C 409 192.18  407.68 193.5  406 193.5  " fill-rule="nonzero" fill="#797979" stroke="none" />
</svg>