<?xml version="1.0" encoding="utf-8"?>
<svg version="1.1" xmlns:xlink="http://www.w3.org/1999/xlink" width="12px" height="12px" viewBox="338 184.5  12 12" xmlns="http://www.w3.org/2000/svg">
  <path d="M 344 184.5  C 347.36 184.5  350 187.14  350 190.5  C 350 193.86  347.36 196.5  344 196.5  C 340.64 196.5  338 193.86  338 190.5  C 338 187.14  340.64 184.5  344 184.5  Z " fill-rule="nonzero" fill="#f2f2f2" stroke="none" />
  <path d="M 344 185  C 347.08 185  349.5 187.42  349.5 190.5  C 349.5 193.58  347.08 196  344 196  C 340.92 196  338.5 193.58  338.5 190.5  C 338.5 187.42  340.92 185  344 185  Z " stroke-width="1" stroke="#797979" fill="none" />
  <path d="M 344 193.5  C 342.32 193.5  341 192.18  341 190.5  C 341 188.82  342.32 187.5  344 187.5  C 345.68 187.5  347 188.82  347 190.5  C 347 192.18  345.68 193.5  344 193.5  " fill-rule="nonzero" fill="#797979" stroke="none" />
</svg>