<?xml version="1.0" encoding="utf-8"?>
<svg version="1.1" xmlns:xlink="http://www.w3.org/1999/xlink" width="12px" height="12px" viewBox="560 184.5  12 12" xmlns="http://www.w3.org/2000/svg">
  <path d="M 566 184.5  C 569.36 184.5  572 187.14  572 190.5  C 572 193.86  569.36 196.5  566 196.5  C 562.64 196.5  560 193.86  560 190.5  C 560 187.14  562.64 184.5  566 184.5  Z " fill-rule="nonzero" fill="#f0f0f0" stroke="none" />
  <path d="M 566 185  C 569.08 185  571.5 187.42  571.5 190.5  C 571.5 193.58  569.08 196  566 196  C 562.92 196  560.5 193.58  560.5 190.5  C 560.5 187.42  562.92 185  566 185  Z " stroke-width="1" stroke="#797979" fill="none" />
  <path d="M 566 193.5  C 564.32 193.5  563 192.18  563 190.5  C 563 188.82  564.32 187.5  566 187.5  C 567.68 187.5  569 188.82  569 190.5  C 569 192.18  567.68 193.5  566 193.5  " fill-rule="nonzero" fill="#797979" stroke="none" />
</svg>