<?xml version="1.0" encoding="utf-8"?>
<svg version="1.1" xmlns:xlink="http://www.w3.org/1999/xlink" width="7px" height="8px" xmlns="http://www.w3.org/2000/svg">
  <g transform="matrix(1 0 0 1 -84 -94 )">
    <path d="M 1.89669966996701 2.16765676567661  C 2.01221122112213 2.03564356435641  2.06996699669969 1.87634763476353  2.06996699669969 1.68976897689777  C 2.06996699669969 1.503190319032  2.01221122112213 1.3438943894389  1.89669966996701 1.21188118811892  C 1.78118811881188 1.07986798679872  1.64180418041803 1.01386138613861  1.47854785478546 1.01386138613861  C 1.31529152915289 1.01386138613861  1.17590759075904 1.07986798679872  1.06039603960392 1.21188118811892  C 0.944884488448793 1.3438943894389  0.887128712871231 1.503190319032  0.887128712871231 1.68976897689777  C 0.887128712871231 1.87634763476353  0.944884488448793 2.03564356435641  1.06039603960392 2.16765676567661  C 1.17590759075904 2.29966996699659  1.31529152915289 2.36567656765669  1.47854785478546 2.36567656765669  C 1.64180418041803 2.36567656765669  1.78118811881188 2.29966996699659  1.89669966996701 2.16765676567661  Z M 6.82904290429042 4.2508250825083  C 6.94301430143014 4.38811881188121  7 4.54829482948298  7 4.73135313531361  C 7 4.91793179317938  6.94301430143014 5.07634763476358  6.82904290429042 5.20660066006599  L 4.56039603960392 7.80462046204616  C 4.44026402640259 7.9348734873488  4.30011001100115 8  4.13993399339938 8  C 3.97667766776681 8  3.83806380638066 7.9348734873488  3.72409240924094 7.80462046204616  L 0.420462046204648 4.02376237623753  C 0.303410341034123 3.89350935093512  0.204070407040717 3.71573157315743  0.12244224422443 3.49042904290422  C 0.0408140814081435 3.26512651265125  0 3.05918591859177  0 2.872607260726  L 0 0.675907590759152  C 0 0.492849284928525  0.0585258525852623 0.334433443344324  0.175577557755787 0.200660066006549  C 0.292629262926312 0.0668866886687738  0.431243124312459 0  0.59141914191423 0  L 2.51353135313536 0  C 2.67678767876782 0  2.85698569856982 0.0466446644663847  3.05412541254123 0.139933993399382  C 3.25126512651264 0.233223322332151  3.4083608360836 0.346754675467537  3.52541254125413 0.480528052805312  L 5.21012858205768 2.40322496091108  L 5.35134420122256 2.56438852068527  L 6.82904290429042 4.2508250825083  Z " fill-rule="nonzero" fill="#0000ff" stroke="none" transform="matrix(1 0 0 1 84 94 )" />
  </g>
</svg>