<?xml version="1.0" encoding="utf-8"?>
<svg version="1.1" xmlns:xlink="http://www.w3.org/1999/xlink" width="44px" height="27px" xmlns="http://www.w3.org/2000/svg">
  <g transform="matrix(1 0 0 1 -59 -34 )">
    <path d="M 13.3004807692308 24.3728693181818  C 13.4591346153846 24.2578125  13.5384615384615 24.1107954545455  13.5384615384615 23.9318181818182  L 13.5384615384615 20.25  C 13.5384615384615 20.0710227272727  13.4591346153846 19.9240056818182  13.3004807692308 19.8089488636364  C 13.1418269230769 19.6938920454545  12.9391025641026 19.6363636363636  12.6923076923077 19.6363636363636  L 4.23076923076923 19.6363636363636  C 3.98397435897436 19.6363636363636  3.78125 19.6938920454545  3.62259615384615 19.8089488636364  C 3.46394230769231 19.9240056818182  3.38461538461539 20.0710227272727  3.38461538461539 20.25  L 3.38461538461539 23.9318181818182  C 3.38461538461539 24.1107954545455  3.46394230769231 24.2578125  3.62259615384615 24.3728693181818  C 3.78125 24.4879261363636  3.98397435897436 24.5454545454545  4.23076923076923 24.5454545454545  L 12.6923076923077 24.5454545454545  C 12.9391025641026 24.5454545454545  13.1418269230769 24.4879261363636  13.3004807692308 24.3728693181818  Z M 13.3004807692308 17.0092329545455  C 13.4591346153846 16.8941761363636  13.5384615384615 16.7471590909091  13.5384615384615 16.5681818181818  L 13.5384615384615 12.8863636363636  C 13.5384615384615 12.7073863636364  13.4591346153846 12.5603693181818  13.3004807692308 12.4453125  C 13.1418269230769 12.3302556818182  12.9391025641026 12.2727272727273  12.6923076923077 12.2727272727273  L 4.23076923076923 12.2727272727273  C 3.98397435897436 12.2727272727273  3.78125 12.3302556818182  3.62259615384615 12.4453125  C 3.46394230769231 12.5603693181818  3.38461538461539 12.7073863636364  3.38461538461539 12.8863636363636  L 3.38461538461539 16.5681818181818  C 3.38461538461539 16.7471590909091  3.46394230769231 16.8941761363636  3.62259615384615 17.0092329545455  C 3.78125 17.1242897727273  3.98397435897436 17.1818181818182  4.23076923076923 17.1818181818182  L 12.6923076923077 17.1818181818182  C 12.9391025641026 17.1818181818182  13.1418269230769 17.1242897727273  13.3004807692308 17.0092329545455  Z M 26.8389423076923 24.3728693181818  C 26.9975961538462 24.2578125  27.0769230769231 24.1107954545455  27.0769230769231 23.9318181818182  L 27.0769230769231 20.25  C 27.0769230769231 20.0710227272727  26.9975961538462 19.9240056818182  26.8389423076923 19.8089488636364  C 26.6802884615385 19.6938920454545  26.4775641025641 19.6363636363636  26.2307692307692 19.6363636363636  L 17.7692307692308 19.6363636363636  C 17.5224358974359 19.6363636363636  17.3197115384615 19.6938920454545  17.1610576923077 19.8089488636364  C 17.0024038461538 19.9240056818182  16.9230769230769 20.0710227272727  16.9230769230769 20.25  L 16.9230769230769 23.9318181818182  C 16.9230769230769 24.1107954545455  17.0024038461538 24.2578125  17.1610576923077 24.3728693181818  C 17.3197115384615 24.4879261363636  17.5224358974359 24.5454545454545  17.7692307692308 24.5454545454545  L 26.2307692307692 24.5454545454545  C 26.4775641025641 24.5454545454545  26.6802884615385 24.4879261363636  26.8389423076923 24.3728693181818  Z M 13.3004807692308 9.64559659090909  C 13.4591346153846 9.53053977272727  13.5384615384615 9.38352272727273  13.5384615384615 9.20454545454546  L 13.5384615384615 5.52272727272727  C 13.5384615384615 5.34375  13.4591346153846 5.19673295454546  13.3004807692308 5.08167613636364  C 13.1418269230769 4.96661931818182  12.9391025641026 4.90909090909091  12.6923076923077 4.90909090909091  L 4.23076923076923 4.90909090909091  C 3.98397435897436 4.90909090909091  3.78125 4.96661931818182  3.62259615384615 5.08167613636364  C 3.46394230769231 5.19673295454546  3.38461538461539 5.34375  3.38461538461539 5.52272727272727  L 3.38461538461539 9.20454545454546  C 3.38461538461539 9.38352272727273  3.46394230769231 9.53053977272727  3.62259615384615 9.64559659090909  C 3.78125 9.76065340909091  3.98397435897436 9.81818181818182  4.23076923076923 9.81818181818182  L 12.6923076923077 9.81818181818182  C 12.9391025641026 9.81818181818182  13.1418269230769 9.76065340909091  13.3004807692308 9.64559659090909  Z M 26.8389423076923 17.0092329545455  C 26.9975961538462 16.8941761363636  27.0769230769231 16.7471590909091  27.0769230769231 16.5681818181818  L 27.0769230769231 12.8863636363636  C 27.0769230769231 12.7073863636364  26.9975961538462 12.5603693181818  26.8389423076923 12.4453125  C 26.6802884615385 12.3302556818182  26.4775641025641 12.2727272727273  26.2307692307692 12.2727272727273  L 17.7692307692308 12.2727272727273  C 17.5224358974359 12.2727272727273  17.3197115384615 12.3302556818182  17.1610576923077 12.4453125  C 17.0024038461538 12.5603693181818  16.9230769230769 12.7073863636364  16.9230769230769 12.8863636363636  L 16.9230769230769 16.5681818181818  C 16.9230769230769 16.7471590909091  17.0024038461538 16.8941761363636  17.1610576923077 17.0092329545455  C 17.3197115384615 17.1242897727273  17.5224358974359 17.1818181818182  17.7692307692308 17.1818181818182  L 26.2307692307692 17.1818181818182  C 26.4775641025641 17.1818181818182  26.6802884615385 17.1242897727273  26.8389423076923 17.0092329545455  Z M 40.3774038461538 24.3728693181818  C 40.5360576923077 24.2578125  40.6153846153846 24.1107954545455  40.6153846153846 23.9318181818182  L 40.6153846153846 20.25  C 40.6153846153846 20.0710227272727  40.5360576923077 19.9240056818182  40.3774038461538 19.8089488636364  C 40.21875 19.6938920454545  40.0160256410256 19.6363636363636  39.7692307692308 19.6363636363636  L 31.3076923076923 19.6363636363636  C 31.0608974358974 19.6363636363636  30.8581730769231 19.6938920454545  30.6995192307692 19.8089488636364  C 30.5408653846154 19.9240056818182  30.4615384615385 20.0710227272727  30.4615384615385 20.25  L 30.4615384615385 23.9318181818182  C 30.4615384615385 24.1107954545455  30.5408653846154 24.2578125  30.6995192307692 24.3728693181818  C 30.8581730769231 24.4879261363636  31.0608974358974 24.5454545454545  31.3076923076923 24.5454545454545  L 39.7692307692308 24.5454545454545  C 40.0160256410256 24.5454545454545  40.21875 24.4879261363636  40.3774038461538 24.3728693181818  Z M 26.8389423076923 9.64559659090909  C 26.9975961538462 9.53053977272727  27.0769230769231 9.38352272727273  27.0769230769231 9.20454545454546  L 27.0769230769231 5.52272727272727  C 27.0769230769231 5.34375  26.9975961538462 5.19673295454546  26.8389423076923 5.08167613636364  C 26.6802884615385 4.96661931818182  26.4775641025641 4.90909090909091  26.2307692307692 4.90909090909091  L 17.7692307692308 4.90909090909091  C 17.5224358974359 4.90909090909091  17.3197115384615 4.96661931818182  17.1610576923077 5.08167613636364  C 17.0024038461538 5.19673295454546  16.9230769230769 5.34375  16.9230769230769 5.52272727272727  L 16.9230769230769 9.20454545454546  C 16.9230769230769 9.38352272727273  17.0024038461538 9.53053977272727  17.1610576923077 9.64559659090909  C 17.3197115384615 9.76065340909091  17.5224358974359 9.81818181818182  17.7692307692308 9.81818181818182  L 26.2307692307692 9.81818181818182  C 26.4775641025641 9.81818181818182  26.6802884615385 9.76065340909091  26.8389423076923 9.64559659090909  Z M 40.3774038461538 17.0092329545455  C 40.5360576923077 16.8941761363636  40.6153846153846 16.7471590909091  40.6153846153846 16.5681818181818  L 40.6153846153846 12.8863636363636  C 40.6153846153846 12.7073863636364  40.5360576923077 12.5603693181818  40.3774038461538 12.4453125  C 40.21875 12.3302556818182  40.0160256410256 12.2727272727273  39.7692307692308 12.2727272727273  L 31.3076923076923 12.2727272727273  C 31.0608974358974 12.2727272727273  30.8581730769231 12.3302556818182  30.6995192307692 12.4453125  C 30.5408653846154 12.5603693181818  30.4615384615385 12.7073863636364  30.4615384615385 12.8863636363636  L 30.4615384615385 16.5681818181818  C 30.4615384615385 16.7471590909091  30.5408653846154 16.8941761363636  30.6995192307692 17.0092329545455  C 30.8581730769231 17.1242897727273  31.0608974358974 17.1818181818182  31.3076923076923 17.1818181818182  L 39.7692307692308 17.1818181818182  C 40.0160256410256 17.1818181818182  40.21875 17.1242897727273  40.3774038461538 17.0092329545455  Z M 40.3774038461538 9.64559659090909  C 40.5360576923077 9.53053977272727  40.6153846153846 9.38352272727273  40.6153846153846 9.20454545454546  L 40.6153846153846 5.52272727272727  C 40.6153846153846 5.34375  40.5360576923077 5.19673295454546  40.3774038461538 5.08167613636364  C 40.21875 4.96661931818182  40.0160256410256 4.90909090909091  39.7692307692308 4.90909090909091  L 31.3076923076923 4.90909090909091  C 31.0608974358974 4.90909090909091  30.8581730769231 4.96661931818182  30.6995192307692 5.08167613636364  C 30.5408653846154 5.19673295454546  30.4615384615385 5.34375  30.4615384615385 5.52272727272727  L 30.4615384615385 9.20454545454546  C 30.4615384615385 9.38352272727273  30.5408653846154 9.53053977272727  30.6995192307692 9.64559659090909  C 30.8581730769231 9.76065340909091  31.0608974358974 9.81818181818182  31.3076923076923 9.81818181818182  L 39.7692307692308 9.81818181818182  C 40.0160256410256 9.81818181818182  40.21875 9.76065340909091  40.3774038461538 9.64559659090909  Z M 42.7572115384615 0.901278409090908  C 43.5857371794872 1.50213068181818  44 2.22443181818182  44 3.06818181818182  L 44 23.9318181818182  C 44 24.7755681818182  43.5857371794872 25.4978693181818  42.7572115384615 26.0987215909091  C 41.9286858974359 26.6995738636364  40.9326923076923 27  39.7692307692308 27  L 4.23076923076923 27  C 3.06730769230769 27  2.0713141025641 26.6995738636364  1.24278846153846 26.0987215909091  C 0.41426282051282 25.4978693181818  0 24.7755681818182  0 23.9318181818182  L 0 3.06818181818182  C 0 2.22443181818182  0.41426282051282 1.50213068181818  1.24278846153846 0.901278409090908  C 2.0713141025641 0.300426136363633  3.06730769230769 0  4.23076923076923 0  L 39.7692307692308 0  C 40.9326923076923 0  41.9286858974359 0.300426136363633  42.7572115384615 0.901278409090908  Z " fill-rule="nonzero" fill="#000000" stroke="none" transform="matrix(1 0 0 1 59 34 )" />
  </g>
</svg>