<?xml version="1.0" encoding="utf-8"?>
<svg version="1.1" xmlns:xlink="http://www.w3.org/1999/xlink" width="29px" height="20px" xmlns="http://www.w3.org/2000/svg">
  <g transform="matrix(1 0 0 1 -23 -20 )">
    <path d="M 3.98911830357143 16.4985795454545  C 4.09161086309524 16.5885416666667  4.14285714285714 16.6950757575758  4.14285714285714 16.8181818181818  L 4.14285714285714 19.5454545454545  C 4.14285714285714 19.6685606060606  4.09161086309524 19.7750946969697  3.98911830357143 19.8650568181818  C 3.88662574404762 19.9550189393939  3.76525297619048 20  3.625 20  L 0.517857142857143 20  C 0.377604166666667 20  0.256231398809524 19.9550189393939  0.153738839285714 19.8650568181818  C 0.0512462797619048 19.7750946969697  0 19.6685606060606  0 19.5454545454545  L 0 16.8181818181818  C 0 16.6950757575758  0.0512462797619048 16.5885416666667  0.153738839285714 16.4985795454545  C 0.256231398809524 16.4086174242424  0.377604166666667 16.3636363636364  0.517857142857143 16.3636363636364  L 3.625 16.3636363636364  C 3.76525297619048 16.3636363636364  3.88662574404762 16.4086174242424  3.98911830357143 16.4985795454545  Z M 3.98911830357143 11.0440340909091  C 4.09161086309524 11.1339962121212  4.14285714285714 11.2405303030303  4.14285714285714 11.3636363636364  L 4.14285714285714 14.0909090909091  C 4.14285714285714 14.2140151515151  4.09161086309524 14.3205492424242  3.98911830357143 14.4105113636364  C 3.88662574404762 14.5004734848485  3.76525297619048 14.5454545454545  3.625 14.5454545454545  L 0.517857142857143 14.5454545454545  C 0.377604166666667 14.5454545454545  0.256231398809524 14.5004734848485  0.153738839285714 14.4105113636364  C 0.0512462797619048 14.3205492424242  0 14.2140151515151  0 14.0909090909091  L 0 11.3636363636364  C 0 11.2405303030303  0.0512462797619048 11.1339962121212  0.153738839285714 11.0440340909091  C 0.256231398809524 10.954071969697  0.377604166666667 10.9090909090909  0.517857142857143 10.9090909090909  L 3.625 10.9090909090909  C 3.76525297619048 10.9090909090909  3.88662574404762 10.954071969697  3.98911830357143 11.0440340909091  Z M 3.98911830357143 5.58948863636363  C 4.09161086309524 5.67945075757576  4.14285714285714 5.78598484848485  4.14285714285714 5.90909090909091  L 4.14285714285714 8.63636363636363  C 4.14285714285714 8.7594696969697  4.09161086309524 8.86600378787879  3.98911830357143 8.95596590909091  C 3.88662574404762 9.04592803030303  3.76525297619048 9.09090909090909  3.625 9.09090909090909  L 0.517857142857143 9.09090909090909  C 0.377604166666667 9.09090909090909  0.256231398809524 9.04592803030303  0.153738839285714 8.95596590909091  C 0.0512462797619048 8.86600378787879  0 8.7594696969697  0 8.63636363636363  L 0 5.90909090909091  C 0 5.78598484848485  0.0512462797619048 5.67945075757576  0.153738839285714 5.58948863636363  C 0.256231398809524 5.49952651515151  0.377604166666667 5.45454545454545  0.517857142857143 5.45454545454545  L 3.625 5.45454545454545  C 3.76525297619048 5.45454545454545  3.88662574404762 5.49952651515151  3.98911830357143 5.58948863636363  Z M 28.8462611607143 16.4985795454545  C 28.9487537202381 16.5885416666667  29 16.6950757575758  29 16.8181818181818  L 29 19.5454545454545  C 29 19.6685606060606  28.9487537202381 19.7750946969697  28.8462611607143 19.8650568181818  C 28.7437686011905 19.9550189393939  28.6223958333333 20  28.4821428571429 20  L 6.73214285714286 20  C 6.59188988095238 20  6.47051711309524 19.9550189393939  6.36802455357143 19.8650568181818  C 6.26553199404762 19.7750946969697  6.21428571428571 19.6685606060606  6.21428571428571 19.5454545454545  L 6.21428571428571 16.8181818181818  C 6.21428571428571 16.6950757575758  6.26553199404762 16.5885416666667  6.36802455357143 16.4985795454545  C 6.47051711309524 16.4086174242424  6.59188988095238 16.3636363636364  6.73214285714286 16  L 28.4821428571429 16  C 28.6223958333333 16.3636363636364  28.7437686011905 16.4086174242424  28.8462611607143 16.4985795454545  Z M 3.98911830357143 0.134943181818181  C 4.09161086309524 0.224905303030303  4.14285714285714 0.331439393939392  4.14285714285714 0.454545454545454  L 4.14285714285714 3.18181818181818  C 4.14285714285714 3.30492424242424  4.09161086309524 3.41145833333333  3.98911830357143 3.50142045454545  C 3.88662574404762 3.59138257575758  3.76525297619048 3.63636363636364  3.625 3.63636363636364  L 0.517857142857143 3.63636363636364  C 0.377604166666667 3.63636363636364  0.256231398809524 3.59138257575758  0.153738839285714 3.50142045454545  C 0.0512462797619048 3.41145833333333  0 3.30492424242424  0 3.18181818181818  L 0 0.454545454545454  C 0 0.331439393939392  0.0512462797619048 0.224905303030303  0.153738839285714 0.134943181818181  C 0.256231398809524 0.0449810606060574  0.377604166666667 0  0.517857142857143 0  L 3.625 0  C 3.76525297619048 0  3.88662574404762 0.0449810606060574  3.98911830357143 0.134943181818181  Z M 28.8462611607143 11.0440340909091  C 28.9487537202381 11.1339962121212  29 11.2405303030303  29 11.3636363636364  L 29 14.0909090909091  C 29 14.2140151515151  28.9487537202381 14.3205492424242  28.8462611607143 14.4105113636364  C 28.7437686011905 14.5004734848485  28.6223958333333 14.5454545454545  28.4821428571429 14.5454545454545  L 6.73214285714286 14.5454545454545  C 6.59188988095238 14.5454545454545  6.47051711309524 14.5004734848485  6.36802455357143 14.4105113636364  C 6.26553199404762 14.3205492424242  6.21428571428571 14.2140151515151  6.21428571428571 14.0909090909091  L 6.21428571428571 11.3636363636364  C 6.21428571428571 11.2405303030303  6.26553199404762 11.1339962121212  6.36802455357143 11.0440340909091  C 6.47051711309524 10.954071969697  6.59188988095238 10.9090909090909  6.73214285714286 11  L 28.4821428571429 11  C 28.6223958333333 10.9090909090909  28.7437686011905 10.954071969697  28.8462611607143 11.0440340909091  Z M 28.8462611607143 5.58948863636363  C 28.9487537202381 5.67945075757576  29 5.78598484848485  29 5.90909090909091  L 29 8.63636363636363  C 29 8.7594696969697  28.9487537202381 8.86600378787879  28.8462611607143 8.95596590909091  C 28.7437686011905 9.04592803030303  28.6223958333333 9.09090909090909  28.4821428571429 9  L 6.73214285714286 9  C 6.59188988095238 9.09090909090909  6.47051711309524 9.04592803030303  6.36802455357143 8.95596590909091  C 6.26553199404762 8.86600378787879  6.21428571428571 8.7594696969697  6.21428571428571 8.63636363636363  L 6.21428571428571 5.90909090909091  C 6.21428571428571 5.78598484848485  6.26553199404762 5.67945075757576  6.36802455357143 5.58948863636363  C 6.47051711309524 5.49952651515151  6.59188988095238 5.45454545454545  6.73214285714286 5.45454545454545  L 28.4821428571429 5.45454545454545  C 28.6223958333333 5.45454545454545  28.7437686011905 5.49952651515151  28.8462611607143 5.58948863636363  Z M 28.8462611607143 0.134943181818181  C 28.9487537202381 0.224905303030303  29 0.331439393939392  29 0.454545454545454  L 29 3.18181818181818  C 29 3.30492424242424  28.9487537202381 3.41145833333333  28.8462611607143 3.50142045454545  C 28.7437686011905 3.59138257575758  28.6223958333333 3.63636363636364  28.4821428571429 4  L 6.73214285714286 4  C 6.59188988095238 3.63636363636364  6.47051711309524 3.59138257575758  6.36802455357143 3.50142045454545  C 6.26553199404762 3.41145833333333  6.21428571428571 3.30492424242424  6.21428571428571 3.18181818181818  L 6.21428571428571 0.454545454545454  C 6.21428571428571 0.331439393939392  6.26553199404762 0.224905303030303  6.36802455357143 0.134943181818181  C 6.47051711309524 0.0449810606060574  6.59188988095238 0  6.73214285714286 0  L 28.4821428571429 0  C 28.6223958333333 0  28.7437686011905 0.0449810606060574  28.8462611607143 0.134943181818181  Z " fill-rule="nonzero" fill="#000000" stroke="none" transform="matrix(1 0 0 1 23 20 )" />
  </g>
</svg>