<?xml version="1.0" encoding="utf-8"?>
<svg version="1.1" xmlns:xlink="http://www.w3.org/1999/xlink" width="23px" height="20px" xmlns="http://www.w3.org/2000/svg">
  <g transform="matrix(1 0 0 1 -669 -21 )">
    <path d="M 22.4579124579125 14.9494949494949  C 22.8193041526375 15.2637485970819  23 15.645342312009  23 16.0942760942761  C 23 16.5432098765432  22.8193041526375 16.9248035914703  22.4579124579125 17.2390572390572  L 19.8249158249158 19.5286195286195  C 19.4635241301908 19.8428731762065  19.0246913580247 20  18.5084175084175 20  C 17.9921436588103 20  17.5533108866442 19.8428731762065  17.1919191919192 19.5286195286195  L 11.5 14.5791245791246  L 5.80808080808081 19.5286195286195  C 5.44668911335578 19.8428731762065  5.00785634118968 20  4.49158249158249 20  C 3.97530864197531 20  3.5364758698092 19.8428731762065  3.17508417508418 19.5286195286195  L 0.542087542087542 17.2390572390572  C 0.180695847362514 16.9248035914703  0 16.5432098765432  0 16.0942760942761  C 0 15.645342312009  0.180695847362514 15.2637485970819  0.542087542087542 14.9494949494949  L 6.23400673400673 10  L 0.542087542087542 5.05050505050505  C 0.180695847362514 4.73625140291807  0 4.35465768799102  0 3.90572390572391  C 0 3.45679012345679  0.180695847362514 3.07519640852974  0.542087542087542 2.76094276094276  L 3.17508417508418 0.471380471380471  C 3.5364758698092 0.15712682379349  3.97530864197531 0  4.49158249158249 0  C 5.00785634118968 0  5.44668911335578 0.15712682379349  5.80808080808081 0.471380471380471  L 11.5 5.42087542087542  L 17.1919191919192 0.471380471380471  C 17.5533108866442 0.15712682379349  17.9921436588103 0  18.5084175084175 0  C 19.0246913580247 0  19.4635241301908 0.15712682379349  19.8249158249158 0.471380471380471  L 22.4579124579125 2.76094276094276  C 22.8193041526375 3.07519640852974  23 3.45679012345679  23 3.90572390572391  C 23 4.35465768799102  22.8193041526375 4.73625140291807  22.4579124579125 5.05050505050505  L 16.7659932659933 10  L 22.4579124579125 14.9494949494949  Z " fill-rule="nonzero" fill="#000000" stroke="none" transform="matrix(1 0 0 1 669 21 )" />
  </g>
</svg>