<?xml version="1.0" encoding="utf-8"?>
<svg version="1.1" xmlns:xlink="http://www.w3.org/1999/xlink" width="6px" height="13px" xmlns="http://www.w3.org/2000/svg">
  <g transform="matrix(1 0 0 1 -303 -227 )">
    <path d="M 5.888671875 7.85724431818182  C 5.962890625 7.97419507575757  6 8.11268939393939  6 8.27272727272727  C 6 8.43276515151515  5.962890625 8.57125946969697  5.888671875 8.68821022727273  L 3.263671875 12.8245738636364  C 3.189453125 12.9415246212121  3.1015625 13  3 13  C 2.8984375 13  2.810546875 12.9415246212121  2.736328125 12.8245738636364  L 0.111328125 8.68821022727273  C 0.037109375 8.57125946969697  0 8.43276515151515  0 8.27272727272727  C 0 8.11268939393939  0.037109375 7.97419507575757  0.111328125 7.85724431818182  C 0.185546875 7.74029356060606  0.2734375 7.68181818181818  0.375 7.68181818181818  L 5.625 7.68181818181818  C 5.7265625 7.68181818181818  5.814453125 7.74029356060606  5.888671875 7.85724431818182  Z M 5.888671875 4.31178977272727  C 5.962890625 4.42874053030303  6 4.56723484848485  6 4.72727272727273  C 6 4.8873106060606  5.962890625 5.02580492424242  5.888671875 5.14275568181818  C 5.814453125 5.25970643939394  5.7265625 5.31818181818182  5.625 5.31818181818182  L 0.375 5.31818181818182  C 0.2734375 5.31818181818182  0.185546875 5.25970643939394  0.111328125 5.14275568181818  C 0.037109375 5.02580492424242  0 4.8873106060606  0 4.72727272727273  C 0 4.56723484848485  0.037109375 4.42874053030303  0.111328125 4.31178977272727  L 2.736328125 0.175426136363637  C 2.810546875 0.0584753787878776  2.8984375 0  3 0  C 3.1015625 0  3.189453125 0.0584753787878776  3.263671875 0.175426136363637  L 5.888671875 4.31178977272727  Z " fill-rule="nonzero" fill="#000000" stroke="none" transform="matrix(1 0 0 1 303 227 )" />
  </g>
</svg>