<?xml version="1.0" encoding="utf-8"?>
<svg version="1.1" xmlns:xlink="http://www.w3.org/1999/xlink" width="23px" height="6px" xmlns="http://www.w3.org/2000/svg">
  <g transform="matrix(1 0 0 1 -561 -186 )">
    <path d="M 22.5426136363636 0.4375  C 22.8475378787879 0.729166666666664  23 1.08333333333333  23 1.5  L 23 4.5  C 23 4.91666666666667  22.8475378787879 5.27083333333333  22.5426136363636 5.5625  C 22.2376893939394 5.85416666666667  21.8674242424242 6  21.4318181818182 6  L 1.56818181818182 6  C 1.13257575757576 6  0.762310606060606 5.85416666666667  0.457386363636364 5.5625  C 0.152462121212121 5.27083333333333  0 4.91666666666667  0 4.5  L 0 1.5  C 0 1.08333333333333  0.152462121212121 0.729166666666664  0.457386363636364 0.4375  C 0.762310606060606 0.145833333333332  1.13257575757576 0  1.56818181818182 0  L 21.4318181818182 0  C 21.8674242424242 0  22.2376893939394 0.145833333333332  22.5426136363636 0.4375  Z " fill-rule="nonzero" fill="#cccccc" stroke="none" transform="matrix(1 0 0 1 561 186 )" />
  </g>
</svg>