<?xml version="1.0" encoding="utf-8"?>
<svg version="1.1" xmlns:xlink="http://www.w3.org/1999/xlink" width="14px" height="9px" xmlns="http://www.w3.org/2000/svg">
  <g transform="matrix(1 0 0 1 -648 -215 )">
    <path d="M 13.7215909090909 0.65625  C 13.907196969697 1.09375  14 1.625  14 2.25  L 14 6.75  C 14 7.375  13.907196969697 7.90625  13.7215909090909 8.34375  C 13.5359848484848 8.78125  13.3106060606061 9  13.0454545454545 9  L 0.954545454545454 9  C 0.689393939393939 9  0.464015151515152 8.78125  0.278409090909091 8.34375  C 0.0928030303030303 7.90625  0 7.375  0 6.75  L 0 2.25  C 0 1.625  0.0928030303030303 1.09375  0.278409090909091 0.65625  C 0.464015151515152 0.218749999999998  0.689393939393939 0  0.954545454545454 0  L 13.0454545454545 0  C 13.3106060606061 0  13.5359848484848 0.218749999999998  13.7215909090909 0.65625  Z " fill-rule="nonzero" fill="#cccccc" stroke="none" transform="matrix(1 0 0 1 648 215 )" />
  </g>
</svg>