<?xml version="1.0" encoding="utf-8"?>
<svg version="1.1" xmlns:xlink="http://www.w3.org/1999/xlink" width="25px" height="27px" xmlns="http://www.w3.org/2000/svg">
  <g transform="matrix(1 0 0 1 153 -358 )">
    <path d="M 24.5028409090909 10.3551136363636  C 24.8342803030303 10.7130681818182  25 11.1477272727273  25 11.6590909090909  L 25 15.3409090909091  C 25 15.8522727272727  24.8342803030303 16.2869318181818  24.5028409090909 16.6448863636364  C 24.1714015151515 17.0028409090909  23.7689393939394 17.1818181818182  23.2954545454545 17.1818181818182  L 15.9090909090909 17.1818181818182  L 15.9090909090909 25.1590909090909  C 15.9090909090909 25.6704545454545  15.7433712121212 26.1051136363636  15.4119318181818 26.4630681818182  C 15.0804924242424 26.8210227272727  14.6780303030303 27  14.2045454545455 27  L 10.7954545454545 27  C 10.3219696969697 27  9.91950757575758 26.8210227272727  9.58806818181818 26.4630681818182  C 9.25662878787879 26.1051136363636  9.09090909090909 25.6704545454545  9.09090909090909 25.1590909090909  L 9.09090909090909 17.1818181818182  L 1.70454545454545 17.1818181818182  C 1.23106060606061 17.1818181818182  0.828598484848485 17.0028409090909  0.497159090909091 16.6448863636364  C 0.165719696969697 16.2869318181818  0 15.8522727272727  0 15.3409090909091  L 0 11.6590909090909  C 0 11.1477272727273  0.165719696969697 10.7130681818182  0.497159090909091 10.3551136363636  C 0.828598484848485 9.99715909090909  1.23106060606061 9.81818181818182  1.70454545454545 9.81818181818182  L 9.09090909090909 9.81818181818182  L 9.09090909090909 1.84090909090909  C 9.09090909090909 1.32954545454545  9.25662878787879 0.894886363636362  9.58806818181818 0.536931818181818  C 9.91950757575758 0.178977272727272  10.3219696969697 0  10.7954545454545 0  L 14.2045454545455 0  C 14.6780303030303 0  15.0804924242424 0.178977272727272  15.4119318181818 0.536931818181818  C 15.7433712121212 0.894886363636362  15.9090909090909 1.32954545454545  15.9090909090909 1.84090909090909  L 15.9090909090909 9.81818181818182  L 23.2954545454545 9.81818181818182  C 23.7689393939394 9.81818181818182  24.1714015151515 9.99715909090909  24.5028409090909 10.3551136363636  Z " fill-rule="nonzero" fill="#d7d7d7" stroke="none" transform="matrix(1 0 0 1 -153 358 )" />
  </g>
</svg>