<?xml version="1.0" encoding="utf-8"?>
<svg version="1.1" xmlns:xlink="http://www.w3.org/1999/xlink" width="36px" height="24px" xmlns="http://www.w3.org/2000/svg">
  <g transform="matrix(1 0 0 1 -190 -142 )">
    <path d="M 35.6392785571142 11.0310559006211  C 35.8797595190381 11.1966873706004  36 11.3871635610766  36 11.6024844720497  C 36 11.8178053830228  35.8797595190381 12.008281573499  35.6392785571142 12.1739130434783  L 18.8296593186373 23.7515527950311  C 18.5891783567134 23.9171842650104  18.312625250501 24  18 24  C 17.687374749499 24  17.4108216432866 23.9171842650104  17.1703406813627 23.7515527950311  L 0.360721442885772 12.1739130434783  C 0.120240480961924 12.008281573499  0 11.8178053830228  0 11.6024844720497  C 0 11.3871635610766  0.120240480961924 11.1966873706004  0.360721442885772 11.0310559006211  L 2.16432865731463 9.7888198757764  C 2.40480961923848 9.6231884057971  2.6813627254509 9.54037267080745  2.9939879759519 9.54037267080745  C 3.30661322645291 9.54037267080745  3.58316633266533 9.6231884057971  3.82364729458918 9.7888198757764  L 18 19.5527950310559  L 32.1763527054108 9.7888198757764  C 32.4168336673347 9.6231884057971  32.6933867735471 9.54037267080745  33.0060120240481 9.54037267080745  C 33.3186372745491 9.54037267080745  33.5951903807615 9.6231884057971  33.8356713426854 9.7888198757764  L 35.6392785571142 11.0310559006211  Z M 35.6392785571142 1.49068322981366  C 35.8797595190381 1.65631469979296  36 1.84679089026915  36 2.06211180124224  C 36 2.27743271221532  35.8797595190381 2.46790890269151  35.6392785571142 2.63354037267081  L 18.8296593186373 14.2111801242236  C 18.5891783567134 14.3768115942029  18.312625250501 14.4596273291925  18 14.4596273291925  C 17.687374749499 14.4596273291925  17.4108216432866 14.3768115942029  17.1703406813627 14.2111801242236  L 0.360721442885772 2.63354037267081  C 0.120240480961924 2.46790890269151  0 2.27743271221532  0 2.06211180124224  C 0 1.84679089026915  0.120240480961924 1.65631469979296  0.360721442885772 1.49068322981366  L 2.16432865731463 0.248447204968944  C 2.40480961923848 0.0828157349896461  2.6813627254509 0  2.9939879759519 0  C 3.30661322645291 0  3.58316633266533 0.0828157349896461  3.82364729458918 0.248447204968944  L 18 10.0124223602484  L 32.1763527054108 0.248447204968944  C 32.4168336673347 0.0828157349896461  32.6933867735471 0  33.0060120240481 0  C 33.3186372745491 0  33.5951903807615 0.0828157349896461  33.8356713426854 0.248447204968944  L 35.6392785571142 1.49068322981366  Z " fill-rule="nonzero" fill="#000000" stroke="none" transform="matrix(1 0 0 1 190 142 )" />
  </g>
</svg>