<?xml version="1.0" encoding="utf-8"?>
<svg version="1.1" xmlns:xlink="http://www.w3.org/1999/xlink" width="15px" height="20px" xmlns="http://www.w3.org/2000/svg">
  <g transform="matrix(1 0 0 1 -464 -11 )">
    <path d="M 14.6464646464646 14.9494949494949  C 14.8821548821549 15.2637485970819  15 15.645342312009  15 16.0942760942761  C 15 16.5432098765432  14.8821548821549 16.9248035914703  14.6464646464646 17.2390572390572  L 12.9292929292929 19.5286195286195  C 12.6936026936027 19.8428731762065  12.4074074074074 20  12.0707070707071 20  C 11.7340067340067 20  11.4478114478114 19.8428731762065  11.2121212121212 19.5286195286195  L 7.5 14.5791245791246  L 3.78787878787879 19.5286195286195  C 3.55218855218855 19.8428731762065  3.26599326599327 20  2.92929292929293 20  C 2.59259259259259 20  2.30639730639731 19.8428731762065  2.07070707070707 19.5286195286195  L 0.353535353535354 17.2390572390572  C 0.117845117845118 16.9248035914703  0 16.5432098765432  0 16.0942760942761  C 0 15.645342312009  0.117845117845118 15.2637485970819  0.353535353535354 14.9494949494949  L 4.06565656565657 10  L 0.353535353535354 5.05050505050505  C 0.117845117845118 4.73625140291807  0 4.35465768799102  0 3.90572390572391  C 0 3.45679012345679  0.117845117845118 3.07519640852974  0.353535353535354 2.76094276094276  L 2.07070707070707 0.471380471380471  C 2.30639730639731 0.15712682379349  2.59259259259259 0  2.92929292929293 0  C 3.26599326599327 0  3.55218855218855 0.15712682379349  3.78787878787879 0.471380471380471  L 7.5 5.42087542087542  L 11.2121212121212 0.471380471380471  C 11.4478114478114 0.15712682379349  11.7340067340067 0  12.0707070707071 0  C 12.4074074074074 0  12.6936026936027 0.15712682379349  12.9292929292929 0.471380471380471  L 14.6464646464646 2.76094276094276  C 14.8821548821549 3.07519640852974  15 3.45679012345679  15 3.90572390572391  C 15 4.35465768799102  14.8821548821549 4.73625140291807  14.6464646464646 5.05050505050505  L 10.9343434343434 10  L 14.6464646464646 14.9494949494949  Z " fill-rule="nonzero" fill="#000000" stroke="none" transform="matrix(1 0 0 1 464 11 )" />
  </g>
</svg>