<?xml version="1.0" encoding="utf-8"?>
<svg version="1.1" xmlns:xlink="http://www.w3.org/1999/xlink" width="25px" height="27px" xmlns="http://www.w3.org/2000/svg">
  <g transform="matrix(1 0 0 1 -389 -54 )">
    <path d="M 1.92307692307692 20.7321428571429  L 1.92307692307692 25.0714285714286  L 6.25 25.0714285714286  L 6.25 20.7321428571429  L 1.92307692307692 20.7321428571429  Z M 7.21153846153846 20.7321428571429  L 7.21153846153846 25.0714285714286  L 12.0192307692308 25.0714285714286  L 12.0192307692308 20.7321428571429  L 7.21153846153846 20.7321428571429  Z M 1.92307692307692 14.9464285714286  L 1.92307692307692 19.7678571428571  L 6.25 19.7678571428571  L 6.25 14.9464285714286  L 1.92307692307692 14.9464285714286  Z M 7.21153846153846 14.9464285714286  L 7.21153846153846 19.7678571428571  L 12.0192307692308 19.7678571428571  L 12.0192307692308 14.9464285714286  L 7.21153846153846 14.9464285714286  Z M 1.92307692307692 9.64285714285714  L 1.92307692307692 13.9821428571429  L 6.25 13.9821428571429  L 6.25 9.64285714285714  L 1.92307692307692 9.64285714285714  Z M 12.9807692307692 20.7321428571429  L 12.9807692307692 25.0714285714286  L 17.7884615384615 25.0714285714286  L 17.7884615384615 20.7321428571429  L 12.9807692307692 20.7321428571429  Z M 7.21153846153846 9.64285714285714  L 7.21153846153846 13.9821428571429  L 12.0192307692308 13.9821428571429  L 12.0192307692308 9.64285714285714  L 7.21153846153846 9.64285714285714  Z M 18.75 20.7321428571429  L 18.75 25.0714285714286  L 23.0769230769231 25.0714285714286  L 23.0769230769231 20.7321428571429  L 18.75 20.7321428571429  Z M 12.9807692307692 14.9464285714286  L 12.9807692307692 19.7678571428571  L 17.7884615384615 19.7678571428571  L 17.7884615384615 14.9464285714286  L 12.9807692307692 14.9464285714286  Z M 7.54957932692308 7.08900669642857  C 7.64473157051282 6.99358258928571  7.69230769230769 6.88058035714285  7.69230769230769 6.75  L 7.69230769230769 2.41071428571429  C 7.69230769230769 2.28013392857143  7.64473157051282 2.16713169642857  7.54957932692308 2.07170758928571  C 7.45442708333333 1.97628348214285  7.3417467948718 1.92857142857143  7.21153846153846 1.92857142857143  L 6.25 1.92857142857143  C 6.11979166666667 1.92857142857143  6.00711137820513 1.97628348214285  5.91195913461539 2.07170758928571  C 5.81680689102564 2.16713169642857  5.76923076923077 2.28013392857143  5.76923076923077 2.41071428571429  L 5.76923076923077 6.75  C 5.76923076923077 6.88058035714285  5.81680689102564 6.99358258928571  5.91195913461539 7.08900669642857  C 6.00711137820513 7.18443080357143  6.11979166666667 7.23214285714286  6.25 7.23214285714286  L 7.21153846153846 7.23214285714286  C 7.3417467948718 7.23214285714286  7.45442708333333 7.18443080357143  7.54957932692308 7.08900669642857  Z M 18.75 14.9464285714286  L 18.75 19.7678571428571  L 23.0769230769231 19.7678571428571  L 23.0769230769231 14.9464285714286  L 18.75 14.9464285714286  Z M 12.9807692307692 9.64285714285714  L 12.9807692307692 13.9821428571429  L 17.7884615384615 13.9821428571429  L 17.7884615384615 9.64285714285714  L 12.9807692307692 9.64285714285714  Z M 18.75 9.64285714285714  L 18.75 13.9821428571429  L 23.0769230769231 13.9821428571429  L 23.0769230769231 9.64285714285714  L 18.75 9.64285714285714  Z M 19.0880408653846 7.08900669642857  C 19.1831931089744 6.99358258928571  19.2307692307692 6.88058035714285  19.2307692307692 6.75  L 19.2307692307692 2.41071428571429  C 19.2307692307692 2.28013392857143  19.1831931089744 2.16713169642857  19.0880408653846 2.07170758928571  C 18.9928886217949 1.97628348214285  18.8802083333333 1.92857142857143  18.75 1.92857142857143  L 17.7884615384615 1.92857142857143  C 17.6582532051282 1.92857142857143  17.5455729166667 1.97628348214285  17.4504206730769 2.07170758928571  C 17.3552684294872 2.16713169642857  17.3076923076923 2.28013392857143  17.3076923076923 2.41071428571429  L 17.3076923076923 6.75  C 17.3076923076923 6.88058035714285  17.3552684294872 6.99358258928571  17.4504206730769 7.08900669642857  C 17.5455729166667 7.18443080357143  17.6582532051282 7.23214285714286  17.7884615384615 7.23214285714286  L 18.75 7.23214285714286  C 18.8802083333333 7.23214285714286  18.9928886217949 7.18443080357143  19.0880408653846 7.08900669642857  Z M 24.4290865384615 4.4296875  C 24.8096955128205 4.81138392857143  25 5.26339285714286  25 5.78571428571429  L 25 25.0714285714286  C 25 25.59375  24.8096955128205 26.0457589285714  24.4290865384615 26.4274553571429  C 24.0484775641026 26.8091517857143  23.5977564102564 27  23.0769230769231 27  L 1.92307692307692 27  C 1.40224358974359 27  0.951522435897436 26.8091517857143  0.570913461538461 26.4274553571429  C 0.190304487179487 26.0457589285714  0 25.59375  0 25.0714285714286  L 0 5.78571428571429  C 0 5.26339285714286  0.190304487179487 4.81138392857143  0.570913461538461 4.4296875  C 0.951522435897436 4.04799107142857  1.40224358974359 3.85714285714286  1.92307692307692 3.85714285714286  L 3.84615384615385 3.85714285714286  L 3.84615384615385 2.41071428571429  C 3.84615384615385 1.74776785714286  4.08153044871795 1.18024553571428  4.55228365384615 0.708147321428572  C 5.02303685897436 0.236049107142857  5.58894230769231 0  6.25 0  L 7.21153846153846 0  C 7.87259615384615 0  8.4385016025641 0.236049107142857  8.90925480769231 0.708147321428572  C 9.38000801282051 1.18024553571428  9.61538461538462 1.74776785714286  9.61538461538462 2.41071428571429  L 9.61538461538462 3.85714285714286  L 15.3846153846154 3.85714285714286  L 15.3846153846154 2.41071428571429  C 15.3846153846154 1.74776785714286  15.6199919871795 1.18024553571428  16.0907451923077 0.708147321428572  C 16.5614983974359 0.236049107142857  17.1274038461538 0  17.7884615384615 0  L 18.75 0  C 19.4110576923077 0  19.9769631410256 0.236049107142857  20.4477163461538 0.708147321428572  C 20.9184695512821 1.18024553571428  21.1538461538462 1.74776785714286  21.1538461538462 2.41071428571429  L 21.1538461538462 3.85714285714286  L 23.0769230769231 3.85714285714286  C 23.5977564102564 3.85714285714286  24.0484775641026 4.04799107142857  24.4290865384615 4.4296875  Z " fill-rule="nonzero" fill="#666666" stroke="none" transform="matrix(1 0 0 1 389 54 )" />
  </g>
</svg>