<?xml version="1.0" encoding="utf-8"?>
<svg version="1.1" xmlns:xlink="http://www.w3.org/1999/xlink" width="26px" height="24px" xmlns="http://www.w3.org/2000/svg">
  <g transform="matrix(1 0 0 1 -219 -13 )">
    <path d="M 15.0143229166667 19.859375  C 15.1158854166667 19.765625  15.1666666666667 19.6458333333333  15.1666666666667 19.5  L 15.1666666666667 16.5  C 15.1666666666667 16.3541666666667  15.1158854166667 16.234375  15.0143229166667 16.140625  C 14.9127604166667 16.046875  14.7829861111111 16  14.625 16  L 11.375 16  C 11.2170138888889 16  11.0872395833333 16.046875  10.9856770833333 16.140625  C 10.8841145833333 16.234375  10.8333333333333 16.3541666666667  10.8333333333333 16.5  L 10.8333333333333 19.5  C 10.8333333333333 19.6458333333333  10.8841145833333 19.765625  10.9856770833333 19.859375  C 11.0872395833333 19.953125  11.2170138888889 20  11.375 20  L 14.625 20  C 14.7829861111111 20  14.9127604166667 19.953125  15.0143229166667 19.859375  Z M 19.2884114583333 10.265625  C 19.4294704861111 9.88020833333333  19.5 9.45833333333333  19.5 9  C 19.5 8.08333333333333  19.1868489583333 7.234375  18.560546875 6.453125  C 17.9342447916667 5.671875  17.1527777777778 5.06770833333333  16.2161458333333 4.640625  C 15.2795138888889 4.21354166666667  14.3203125 4  13.3385416666667 4  C 10.5963541666667 4  8.50303819444444 5.109375  7.05859375 7.328125  C 6.88932291666667 7.578125  6.93446180555556 7.796875  7.19401041666667 7.984375  L 9.42838541666667 9.546875  C 9.50737847222222 9.609375  9.61458333333333 9.640625  9.75 9.640625  C 9.93055555555556 9.640625  10.0716145833333 9.578125  10.1731770833333 9.453125  C 10.7712673611111 8.74479166666667  11.2565104166667 8.265625  11.62890625 8.015625  C 12.0125868055556 7.765625  12.4978298611111 7.640625  13.0846354166667 7.640625  C 13.6263020833333 7.640625  14.1087239583333 7.77604166666667  14.5319010416667 8.046875  C 14.955078125 8.31770833333333  15.1666666666667 8.625  15.1666666666667 8.96875  C 15.1666666666667 9.36458333333333  15.0538194444444 9.68229166666667  14.828125 9.921875  C 14.6024305555556 10.1614583333333  14.21875 10.3958333333333  13.6770833333333 10.625  C 12.9661458333333 10.9166666666667  12.314453125 11.3671875  11.7220052083333 11.9765625  C 11.1295572916667 12.5859375  10.8333333333333 13.2395833333333  10.8333333333333 13.9375  L 10.8333333333333 14.5  C 10.8333333333333 14.6458333333333  10.8841145833333 14.765625  10.9856770833333 14.859375  C 11.0872395833333 14.953125  11.2170138888889 15  11.375 15  L 14.625 15  C 14.7829861111111 15  14.9127604166667 14.953125  15.0143229166667 14.859375  C 15.1158854166667 14.765625  15.1666666666667 14.6458333333333  15.1666666666667 14.5  C 15.1666666666667 14.3020833333333  15.2879774305556 14.0442708333333  15.5305989583333 13.7265625  C 15.7732204861111 13.4088541666667  16.0807291666667 13.1510416666667  16.453125 12.953125  C 16.8142361111111 12.765625  17.0907118055556 12.6171875  17.2825520833333 12.5078125  C 17.4743923611111 12.3984375  17.7339409722222 12.2161458333333  18.0611979166667 11.9609375  C 18.3884548611111 11.7057291666667  18.6395399305556 11.4557291666667  18.814453125 11.2109375  C 18.9893663194444 10.9661458333333  19.1473524305556 10.6510416666667  19.2884114583333 10.265625  Z M 24.2565104166667 5.9765625  C 25.4188368055556 7.81510416666666  26 9.82291666666666  26 12  C 26 14.1770833333333  25.4188368055556 16.1848958333333  24.2565104166667 18.0234375  C 23.0941840277778 19.8619791666667  21.5171440972222 21.3177083333333  19.525390625 22.390625  C 17.5336371527778 23.4635416666667  15.3585069444444 24  13 24  C 10.6414930555556 24  8.46636284722222 23.4635416666667  6.474609375 22.390625  C 4.48285590277778 21.3177083333333  2.90581597222222 19.8619791666667  1.74348958333333 18.0234375  C 0.581163194444444 16.1848958333333  0 14.1770833333333  0 12  C 0 9.82291666666666  0.581163194444444 7.81510416666666  1.74348958333333 5.9765625  C 2.90581597222222 4.13802083333333  4.48285590277778 2.68229166666666  6.474609375 1.609375  C 8.46636284722222 0.536458333333331  10.6414930555556 0  13 0  C 15.3585069444444 0  17.5336371527778 0.536458333333331  19.525390625 1.609375  C 21.5171440972222 2.68229166666666  23.0941840277778 4.13802083333333  24.2565104166667 5.9765625  Z " fill-rule="nonzero" fill="#000000" stroke="none" transform="matrix(1 0 0 1 219 13 )" />
  </g>
</svg>