<?xml version="1.0" encoding="utf-8"?>
<svg version="1.1" xmlns:xlink="http://www.w3.org/1999/xlink" width="12px" height="12px" viewBox="117 200.5  12 12" xmlns="http://www.w3.org/2000/svg">
  <path d="M 123 200.5  C 126.36 200.5  129 203.14  129 206.5  C 129 209.86  126.36 212.5  123 212.5  C 119.64 212.5  117 209.86  117 206.5  C 117 203.14  119.64 200.5  123 200.5  Z " fill-rule="nonzero" fill="#f0f0f0" stroke="none" />
  <path d="M 123 201  C 126.08 201  128.5 203.42  128.5 206.5  C 128.5 209.58  126.08 212  123 212  C 119.92 212  117.5 209.58  117.5 206.5  C 117.5 203.42  119.92 201  123 201  Z " stroke-width="1" stroke="#797979" fill="none" />
  <path d="M 123 209.5  C 121.32 209.5  120 208.18  120 206.5  C 120 204.82  121.32 203.5  123 203.5  C 124.68 203.5  126 204.82  126 206.5  C 126 208.18  124.68 209.5  123 209.5  " fill-rule="nonzero" fill="#797979" stroke="none" />
</svg>