<?xml version="1.0" encoding="utf-8"?>
<svg version="1.1" xmlns:xlink="http://www.w3.org/1999/xlink" width="12px" height="12px" viewBox="231 200.5  12 12" xmlns="http://www.w3.org/2000/svg">
  <path d="M 237 200.5  C 240.36 200.5  243 203.14  243 206.5  C 243 209.86  240.36 212.5  237 212.5  C 233.64 212.5  231 209.86  231 206.5  C 231 203.14  233.64 200.5  237 200.5  Z " fill-rule="nonzero" fill="#f0f0f0" stroke="none" />
  <path d="M 237 201  C 240.08 201  242.5 203.42  242.5 206.5  C 242.5 209.58  240.08 212  237 212  C 233.92 212  231.5 209.58  231.5 206.5  C 231.5 203.42  233.92 201  237 201  Z " stroke-width="1" stroke="#797979" fill="none" />
  <path d="M 237 209.5  C 235.32 209.5  234 208.18  234 206.5  C 234 204.82  235.32 203.5  237 203.5  C 238.68 203.5  240 204.82  240 206.5  C 240 208.18  238.68 209.5  237 209.5  " fill-rule="nonzero" fill="#797979" stroke="none" />
</svg>