<?xml version="1.0" encoding="utf-8"?>
<svg version="1.1" xmlns:xlink="http://www.w3.org/1999/xlink" width="29px" height="24px" xmlns="http://www.w3.org/2000/svg">
  <g transform="matrix(1 0 0 1 -456 -336 )">
    <path d="M 16.7467447916667 19.859375  C 16.8600260416667 19.765625  16.9166666666667 19.6458333333333  16.9166666666667 19.5  L 16.9166666666667 16.5  C 16.9166666666667 16.3541666666667  16.8600260416667 16.234375  16.7467447916667 16.140625  C 16.6334635416667 16.046875  16.4887152777778 16  16.3125 16  L 12.6875 16  C 12.5112847222222 16  12.3665364583333 16.046875  12.2532552083333 16.140625  C 12.1399739583333 16.234375  12.0833333333333 16.3541666666667  12.0833333333333 16.5  L 12.0833333333333 19.5  C 12.0833333333333 19.6458333333333  12.1399739583333 19.765625  12.2532552083333 19.859375  C 12.3665364583333 19.953125  12.5112847222222 20  12.6875 20  L 16.3125 20  C 16.4887152777778 20  16.6334635416667 19.953125  16.7467447916667 19.859375  Z M 21.5139973958333 10.265625  C 21.6713324652778 9.88020833333333  21.75 9.45833333333333  21.75 9  C 21.75 8.08333333333333  21.4007161458333 7.234375  20.7021484375 6.453125  C 20.0035807291667 5.671875  19.1319444444444 5.06770833333333  18.0872395833333 4.640625  C 17.0425347222222 4.21354166666667  15.97265625 4  14.8776041666667 4  C 11.8190104166667 4  9.48415798611111 5.109375  7.873046875 7.328125  C 7.68424479166667 7.578125  7.73459201388889 7.796875  8.02408854166667 7.984375  L 10.5162760416667 9.546875  C 10.6043836805556 9.609375  10.7239583333333 9.640625  10.875 9.640625  C 11.0763888888889 9.640625  11.2337239583333 9.578125  11.3470052083333 9.453125  C 12.0141059027778 8.74479166666667  12.5553385416667 8.265625  12.970703125 8.015625  C 13.3986545138889 7.765625  13.9398871527778 7.640625  14.5944010416667 7.640625  C 15.1985677083333 7.640625  15.7366536458333 7.77604166666667  16.2086588541667 8.046875  C 16.6806640625 8.31770833333333  16.9166666666667 8.625  16.9166666666667 8.96875  C 16.9166666666667 9.36458333333333  16.7907986111111 9.68229166666667  16.5390625 9.921875  C 16.2873263888889 10.1614583333333  15.859375 10.3958333333333  15.2552083333333 10.625  C 14.4622395833333 10.9166666666667  13.7353515625 11.3671875  13.0745442708333 11.9765625  C 12.4137369791667 12.5859375  12.0833333333333 13.2395833333333  12.0833333333333 13.9375  L 12.0833333333333 14.5  C 12.0833333333333 14.6458333333333  12.1399739583333 14.765625  12.2532552083333 14.859375  C 12.3665364583333 14.953125  12.5112847222222 15  12.6875 15  L 16.3125 15  C 16.4887152777778 15  16.6334635416667 14.953125  16.7467447916667 14.859375  C 16.8600260416667 14.765625  16.9166666666667 14.6458333333333  16.9166666666667 14.5  C 16.9166666666667 14.3020833333333  17.0519748263889 14.0442708333333  17.3225911458333 13.7265625  C 17.5932074652778 13.4088541666667  17.9361979166667 13.1510416666667  18.3515625 12.953125  C 18.7543402777778 12.765625  19.0627170138889 12.6171875  19.2766927083333 12.5078125  C 19.4906684027778 12.3984375  19.7801649305556 12.2161458333333  20.1451822916667 11.9609375  C 20.5101996527778 11.7057291666667  20.7902560763889 11.4557291666667  20.9853515625 11.2109375  C 21.1804470486111 10.9661458333333  21.3566623263889 10.6510416666667  21.5139973958333 10.265625  Z M 27.0553385416667 5.9765625  C 28.3517795138889 7.81510416666666  29 9.82291666666666  29 12  C 29 14.1770833333333  28.3517795138889 16.1848958333333  27.0553385416667 18.0234375  C 25.7588975694444 19.8619791666667  23.9998914930556 21.3177083333333  21.7783203125 22.390625  C 19.5567491319444 23.4635416666667  17.1306423611111 24  14.5 24  C 11.8693576388889 24  9.44325086805556 23.4635416666667  7.2216796875 22.390625  C 5.00010850694444 21.3177083333333  3.24110243055556 19.8619791666667  1.94466145833333 18.0234375  C 0.648220486111111 16.1848958333333  0 14.1770833333333  0 12  C 0 9.82291666666666  0.648220486111111 7.81510416666666  1.94466145833333 5.9765625  C 3.24110243055556 4.13802083333333  5.00010850694444 2.68229166666666  7.2216796875 1.609375  C 9.44325086805556 0.536458333333331  11.8693576388889 0  14.5 0  C 17.1306423611111 0  19.5567491319444 0.536458333333331  21.7783203125 1.609375  C 23.9998914930556 2.68229166666666  25.7588975694444 4.13802083333333  27.0553385416667 5.9765625  Z " fill-rule="nonzero" fill="#000000" stroke="none" transform="matrix(1 0 0 1 456 336 )" />
  </g>
</svg>