<?xml version="1.0" encoding="utf-8"?>
<svg version="1.1" xmlns:xlink="http://www.w3.org/1999/xlink" width="12px" height="12px" viewBox="229 466.5  12 12" xmlns="http://www.w3.org/2000/svg">
  <path d="M 235 466.5  C 238.36 466.5  241 469.14  241 472.5  C 241 475.86  238.36 478.5  235 478.5  C 231.64 478.5  229 475.86  229 472.5  C 229 469.14  231.64 466.5  235 466.5  Z " fill-rule="nonzero" fill="#ffffff" stroke="none" />
  <path d="M 235 467  C 238.08 467  240.5 469.42  240.5 472.5  C 240.5 475.58  238.08 478  235 478  C 231.92 478  229.5 475.58  229.5 472.5  C 229.5 469.42  231.92 467  235 467  Z " stroke-width="1" stroke="#797979" fill="none" />
  <path d="M 235 475.5  C 233.32 475.5  232 474.18  232 472.5  C 232 470.82  233.32 469.5  235 469.5  C 236.68 469.5  238 470.82  238 472.5  C 238 474.18  236.68 475.5  235 475.5  " fill-rule="nonzero" fill="#797979" stroke="none" />
</svg>