<?xml version="1.0" encoding="utf-8"?>
<svg version="1.1" xmlns:xlink="http://www.w3.org/1999/xlink" width="12px" height="12px" viewBox="229 405.5  12 12" xmlns="http://www.w3.org/2000/svg">
  <path d="M 235 405.5  C 238.36 405.5  241 408.14  241 411.5  C 241 414.86  238.36 417.5  235 417.5  C 231.64 417.5  229 414.86  229 411.5  C 229 408.14  231.64 405.5  235 405.5  Z " fill-rule="nonzero" fill="#ffffff" stroke="none" />
  <path d="M 235 406  C 238.08 406  240.5 408.42  240.5 411.5  C 240.5 414.58  238.08 417  235 417  C 231.92 417  229.5 414.58  229.5 411.5  C 229.5 408.42  231.92 406  235 406  Z " stroke-width="1" stroke="#797979" fill="none" />
  <path d="M 235 414.5  C 233.32 414.5  232 413.18  232 411.5  C 232 409.82  233.32 408.5  235 408.5  C 236.68 408.5  238 409.82  238 411.5  C 238 413.18  236.68 414.5  235 414.5  " fill-rule="nonzero" fill="#797979" stroke="none" />
</svg>