<?xml version="1.0" encoding="utf-8"?>
<svg version="1.1" xmlns:xlink="http://www.w3.org/1999/xlink" width="11px" height="15px" xmlns="http://www.w3.org/2000/svg">
  <g transform="matrix(1 0 0 1 -440 -358 )">
    <path d="M 0.846153846153846 11.5178571428571  L 0.846153846153846 13.9285714285714  L 2.75 13.9285714285714  L 2.75 11.5178571428571  L 0.846153846153846 11.5178571428571  Z M 3.17307692307692 11.5178571428571  L 3.17307692307692 13.9285714285714  L 5.28846153846154 13.9285714285714  L 5.28846153846154 11.5178571428571  L 3.17307692307692 11.5178571428571  Z M 0.846153846153846 8.30357142857143  L 0.846153846153846 10.9821428571429  L 2.75 10.9821428571429  L 2.75 8.30357142857143  L 0.846153846153846 8.30357142857143  Z M 3.17307692307692 8.30357142857143  L 3.17307692307692 10.9821428571429  L 5.28846153846154 10.9821428571429  L 5.28846153846154 8.30357142857143  L 3.17307692307692 8.30357142857143  Z M 0.846153846153846 5.35714285714286  L 0.846153846153846 7.76785714285714  L 2.75 7.76785714285714  L 2.75 5.35714285714286  L 0.846153846153846 5.35714285714286  Z M 5.71153846153846 11.5178571428571  L 5.71153846153846 13.9285714285714  L 7.82692307692308 13.9285714285714  L 7.82692307692308 11.5178571428571  L 5.71153846153846 11.5178571428571  Z M 3.17307692307692 5.35714285714286  L 3.17307692307692 7.76785714285714  L 5.28846153846154 7.76785714285714  L 5.28846153846154 5.35714285714286  L 3.17307692307692 5.35714285714286  Z M 8.25 11.5178571428571  L 8.25 13.9285714285714  L 10.1538461538462 13.9285714285714  L 10.1538461538462 11.5178571428571  L 8.25 11.5178571428571  Z M 5.71153846153846 8.30357142857143  L 5.71153846153846 10.9821428571429  L 7.82692307692308 10.9821428571429  L 7.82692307692308 8.30357142857143  L 5.71153846153846 8.30357142857143  Z M 3.32181490384615 3.93833705357143  C 3.36368189102564 3.88532366071428  3.38461538461539 3.82254464285714  3.38461538461539 3.75  L 3.38461538461539 1.33928571428571  C 3.38461538461539 1.26674107142857  3.36368189102564 1.20396205357143  3.32181490384615 1.15094866071429  C 3.27994791666667 1.09793526785714  3.23036858974359 1.07142857142857  3.17307692307692 1.07142857142857  L 2.75 1.07142857142857  C 2.69270833333333 1.07142857142857  2.64312900641026 1.09793526785714  2.60126201923077 1.15094866071429  C 2.55939503205128 1.20396205357143  2.53846153846154 1.26674107142857  2.53846153846154 1.33928571428571  L 2.53846153846154 3.75  C 2.53846153846154 3.82254464285714  2.55939503205128 3.88532366071428  2.60126201923077 3.93833705357143  C 2.64312900641026 3.99135044642857  2.69270833333333 4.01785714285714  2.75 4.01785714285714  L 3.17307692307692 4.01785714285714  C 3.23036858974359 4.01785714285714  3.27994791666667 3.99135044642857  3.32181490384615 3.93833705357143  Z M 8.25 8.30357142857143  L 8.25 10.9821428571429  L 10.1538461538462 10.9821428571429  L 10.1538461538462 8.30357142857143  L 8.25 8.30357142857143  Z M 5.71153846153846 5.35714285714286  L 5.71153846153846 7.76785714285714  L 7.82692307692308 7.76785714285714  L 7.82692307692308 5.35714285714286  L 5.71153846153846 5.35714285714286  Z M 8.25 5.35714285714286  L 8.25 7.76785714285714  L 10.1538461538462 7.76785714285714  L 10.1538461538462 5.35714285714286  L 8.25 5.35714285714286  Z M 8.39873798076923 3.93833705357143  C 8.44060496794872 3.88532366071428  8.46153846153846 3.82254464285714  8.46153846153846 3.75  L 8.46153846153846 1.33928571428571  C 8.46153846153846 1.26674107142857  8.44060496794872 1.20396205357143  8.39873798076923 1.15094866071429  C 8.35687099358974 1.09793526785714  8.30729166666667 1.07142857142857  8.25 1.07142857142857  L 7.82692307692308 1.07142857142857  C 7.76963141025641 1.07142857142857  7.72005208333333 1.09793526785714  7.67818509615385 1.15094866071429  C 7.63631810897436 1.20396205357143  7.61538461538462 1.26674107142857  7.61538461538462 1.33928571428571  L 7.61538461538462 3.75  C 7.61538461538462 3.82254464285714  7.63631810897436 3.88532366071428  7.67818509615385 3.93833705357143  C 7.72005208333333 3.99135044642857  7.76963141025641 4.01785714285714  7.82692307692308 4.01785714285714  L 8.25 4.01785714285714  C 8.30729166666667 4.01785714285714  8.35687099358974 3.99135044642857  8.39873798076923 3.93833705357143  Z M 10.7487980769231 2.4609375  C 10.916266025641 2.67299107142857  11 2.92410714285714  11 3.21428571428571  L 11 13.9285714285714  C 11 14.21875  10.916266025641 14.4698660714286  10.7487980769231 14.6819196428571  C 10.5813301282051 14.8939732142857  10.3830128205128 15  10.1538461538462 15  L 0.846153846153846 15  C 0.61698717948718 15  0.418669871794872 14.8939732142857  0.251201923076923 14.6819196428571  C 0.0837339743589744 14.4698660714286  0 14.21875  0 13.9285714285714  L 0 3.21428571428571  C 0 2.92410714285714  0.0837339743589744 2.67299107142857  0.251201923076923 2.4609375  C 0.418669871794872 2.24888392857143  0.61698717948718 2.14285714285714  0.846153846153846 2.14285714285714  L 1.69230769230769 2.14285714285714  L 1.69230769230769 1.33928571428571  C 1.69230769230769 0.970982142857144  1.7958733974359 0.655691964285713  2.00300480769231 0.393415178571429  C 2.21013621794872 0.131138392857143  2.45913461538462 0  2.75 0  L 3.17307692307692 0  C 3.46394230769231 0  3.71294070512821 0.131138392857143  3.92007211538462 0.393415178571429  C 4.12720352564103 0.655691964285713  4.23076923076923 0.970982142857144  4.23076923076923 1.33928571428571  L 4.23076923076923 2.14285714285714  L 6.76923076923077 2.14285714285714  L 6.76923076923077 1.33928571428571  C 6.76923076923077 0.970982142857144  6.87279647435897 0.655691964285713  7.07992788461539 0.393415178571429  C 7.2870592948718 0.131138392857143  7.53605769230769 0  7.82692307692308 0  L 8.25 0  C 8.54086538461539 0  8.78986378205128 0.131138392857143  8.99699519230769 0.393415178571429  C 9.2041266025641 0.655691964285713  9.30769230769231 0.970982142857144  9.30769230769231 1.33928571428571  L 9.30769230769231 2.14285714285714  L 10.1538461538462 2.14285714285714  C 10.3830128205128 2.14285714285714  10.5813301282051 2.24888392857143  10.7487980769231 2.4609375  Z " fill-rule="nonzero" fill="#8c8c8c" stroke="none" transform="matrix(1 0 0 1 440 358 )" />
  </g>
</svg>