<?xml version="1.0" encoding="utf-8"?>
<svg version="1.1" xmlns:xlink="http://www.w3.org/1999/xlink" width="21px" height="20px" xmlns="http://www.w3.org/2000/svg">
  <g transform="matrix(1 0 0 1 -410 -18 )">
    <path d="M 12.126953125 5.1171875  C 12.208984375 5.1953125  12.25 5.29513888888889  12.25 5.41666666666667  L 12.25 11.25  C 12.25 11.3715277777778  12.208984375 11.4713541666667  12.126953125 11.5494791666667  C 12.044921875 11.6276041666667  11.9401041666667 11.6666666666667  11.8125 11.6666666666667  L 7.4375 11.6666666666667  C 7.30989583333333 11.6666666666667  7.205078125 11.6276041666667  7.123046875 11.5494791666667  C 7.041015625 11.4713541666667  7 11.3715277777778  7 11.25  L 7 10.4166666666667  C 7 10.2951388888889  7.041015625 10.1953125  7.123046875 10.1171875  C 7.205078125 10.0390625  7.30989583333333 10  7.4375 10  L 10.5 10  L 10.5 5.41666666666667  C 10.5 5.29513888888889  10.541015625 5.1953125  10.623046875 5.1171875  C 10.705078125 5.0390625  10.8098958333333 5  10.9375 5  L 11.8125 5  C 11.9401041666667 5  12.044921875 5.0390625  12.126953125 5.1171875  Z M 16.939453125 13.5546875  C 17.6048177083333 12.4696180555556  17.9375 11.2847222222222  17.9375 10  C 17.9375 8.71527777777778  17.6048177083333 7.53038194444444  16.939453125 6.4453125  C 16.2740885416667 5.36024305555555  15.3717447916667 4.50086805555555  14.232421875 3.8671875  C 13.0930989583333 3.23350694444444  11.8489583333333 2.91666666666667  10.5 2.91666666666667  C 9.15104166666667 2.91666666666667  7.90690104166667 3.23350694444444  6.767578125 3.8671875  C 5.62825520833333 4.50086805555555  4.72591145833333 5.36024305555555  4.060546875 6.4453125  C 3.39518229166667 7.53038194444444  3.0625 8.71527777777778  3.0625 10  C 3.0625 11.2847222222222  3.39518229166667 12.4696180555556  4.060546875 13.5546875  C 4.72591145833333 14.6397569444444  5.62825520833333 15.4991319444444  6.767578125 16.1328125  C 7.90690104166667 16.7664930555556  9.15104166666667 17.0833333333333  10.5 17.0833333333333  C 11.8489583333333 17.0833333333333  13.0930989583333 16.7664930555556  14.232421875 16.1328125  C 15.3717447916667 15.4991319444444  16.2740885416667 14.6397569444444  16.939453125 13.5546875  Z M 19.591796875 4.98046875  C 20.5305989583333 6.51258680555555  21 8.18576388888889  21 10  C 21 11.8142361111111  20.5305989583333 13.4874131944444  19.591796875 15.01953125  C 18.6529947916667 16.5516493055556  17.3792317708333 17.7647569444444  15.7705078125 18.6588541666667  C 14.1617838541667 19.5529513888889  12.4049479166667 20  10.5 20  C 8.59505208333333 20  6.83821614583333 19.5529513888889  5.2294921875 18.6588541666667  C 3.62076822916667 17.7647569444444  2.34700520833333 16.5516493055556  1.408203125 15.01953125  C 0.469401041666667 13.4874131944444  0 11.8142361111111  0 10  C 0 8.18576388888889  0.469401041666667 6.51258680555555  1.408203125 4.98046875  C 2.34700520833333 3.44835069444444  3.62076822916667 2.23524305555555  5.2294921875 1.34114583333333  C 6.83821614583333 0.447048611111109  8.59505208333333 0  10.5 0  C 12.4049479166667 0  14.1617838541667 0.447048611111109  15.7705078125 1.34114583333333  C 17.3792317708333 2.23524305555555  18.6529947916667 3.44835069444444  19.591796875 4.98046875  Z " fill-rule="nonzero" fill="#8c8c8c" stroke="none" transform="matrix(1 0 0 1 410 18 )" />
  </g>
</svg>