<?xml version="1.0" encoding="utf-8"?>
<svg version="1.1" xmlns:xlink="http://www.w3.org/1999/xlink" width="18px" height="17px" xmlns="http://www.w3.org/2000/svg">
  <g transform="matrix(1 0 0 1 -331 -35 )">
    <path d="M 10.39453125 4.349609375  C 10.46484375 4.416015625  10.5 4.50086805555555  10.5 4.60416666666667  L 10.5 9.5625  C 10.5 9.66579861111111  10.46484375 9.75065104166667  10.39453125 9.81705729166667  C 10.32421875 9.88346354166667  10.234375 9.91666666666667  10.125 9.91666666666667  L 6.375 9.91666666666667  C 6.265625 9.91666666666667  6.17578125 9.88346354166667  6.10546875 9.81705729166667  C 6.03515625 9.75065104166667  6 9.66579861111111  6 9.5625  L 6 8.85416666666667  C 6 8.75086805555556  6.03515625 8.666015625  6.10546875 8.599609375  C 6.17578125 8.533203125  6.265625 8.5  6.375 8.5  L 9 8.5  L 9 4.60416666666667  C 9 4.50086805555555  9.03515625 4.416015625  9.10546875 4.349609375  C 9.17578125 4.283203125  9.265625 4.25  9.375 4.25  L 10.125 4.25  C 10.234375 4.25  10.32421875 4.283203125  10.39453125 4.349609375  Z M 14.51953125 11.521484375  C 15.08984375 10.5991753472222  15.375 9.59201388888889  15.375 8.5  C 15.375 7.40798611111111  15.08984375 6.40082465277778  14.51953125 5.478515625  C 13.94921875 4.55620659722222  13.17578125 3.82573784722222  12.19921875 3.287109375  C 11.22265625 2.74848090277778  10.15625 2.47916666666667  9 2.47916666666667  C 7.84375 2.47916666666667  6.77734375 2.74848090277778  5.80078125 3.287109375  C 4.82421875 3.82573784722222  4.05078125 4.55620659722222  3.48046875 5.478515625  C 2.91015625 6.40082465277778  2.625 7.40798611111111  2.625 8.5  C 2.625 9.59201388888889  2.91015625 10.5991753472222  3.48046875 11.521484375  C 4.05078125 12.4437934027778  4.82421875 13.1742621527778  5.80078125 13.712890625  C 6.77734375 14.2515190972222  7.84375 14.5208333333333  9 14.5208333333333  C 10.15625 14.5208333333333  11.22265625 14.2515190972222  12.19921875 13.712890625  C 13.17578125 13.1742621527778  13.94921875 12.4437934027778  14.51953125 11.521484375  Z M 16.79296875 4.2333984375  C 17.59765625 5.53569878472222  18 6.95789930555555  18 8.5  C 18 10.0421006944444  17.59765625 11.4643012152778  16.79296875 12.7666015625  C 15.98828125 14.0689019097222  14.896484375 15.1000434027778  13.517578125 15.8600260416667  C 12.138671875 16.6200086805556  10.6328125 17  9 17  C 7.3671875 17  5.861328125 16.6200086805556  4.482421875 15.8600260416667  C 3.103515625 15.1000434027778  2.01171875 14.0689019097222  1.20703125 12.7666015625  C 0.40234375 11.4643012152778  0 10.0421006944444  0 8.5  C 0 6.95789930555555  0.40234375 5.53569878472222  1.20703125 4.2333984375  C 2.01171875 2.93109809027778  3.103515625 1.89995659722222  4.482421875 1.13997395833333  C 5.861328125 0.379991319444443  7.3671875 0  9 0  C 10.6328125 0  12.138671875 0.379991319444443  13.517578125 1.13997395833333  C 14.896484375 1.89995659722222  15.98828125 2.93109809027778  16.79296875 4.2333984375  Z " fill-rule="nonzero" fill="#8c8c8c" stroke="none" transform="matrix(1 0 0 1 331 35 )" />
  </g>
</svg>