<?xml version="1.0" encoding="utf-8"?>
<svg version="1.1" xmlns:xlink="http://www.w3.org/1999/xlink" width="20px" height="17px" xmlns="http://www.w3.org/2000/svg">
  <g transform="matrix(1 0 0 1 -216 -33 )">
    <path d="M 11.5494791666667 4.349609375  C 11.6276041666667 4.416015625  11.6666666666667 4.50086805555555  11.6666666666667 4.60416666666667  L 11.6666666666667 9.5625  C 11.6666666666667 9.66579861111111  11.6276041666667 9.75065104166667  11.5494791666667 9.81705729166667  C 11.4713541666667 9.88346354166667  11.3715277777778 9.91666666666667  11.25 9.91666666666667  L 7.08333333333333 9.91666666666667  C 6.96180555555556 9.91666666666667  6.86197916666667 9.88346354166667  6.78385416666667 9.81705729166667  C 6.70572916666667 9.75065104166667  6.66666666666667 9.66579861111111  6.66666666666667 9.5625  L 6.66666666666667 8.85416666666667  C 6.66666666666667 8.75086805555556  6.70572916666667 8.666015625  6.78385416666667 8.599609375  C 6.86197916666667 8.533203125  6.96180555555556 8.5  7.08333333333333 8.5  L 10 8.5  L 10 4.60416666666667  C 10 4.50086805555555  10.0390625 4.416015625  10.1171875 4.349609375  C 10.1953125 4.283203125  10.2951388888889 4.25  10.4166666666667 4.25  L 11.25 4.25  C 11.3715277777778 4.25  11.4713541666667 4.283203125  11.5494791666667 4.349609375  Z M 16.1328125 11.521484375  C 16.7664930555556 10.5991753472222  17.0833333333333 9.59201388888889  17.0833333333333 8.5  C 17.0833333333333 7.40798611111111  16.7664930555556 6.40082465277778  16.1328125 5.478515625  C 15.4991319444444 4.55620659722222  14.6397569444444 3.82573784722222  13.5546875 3.287109375  C 12.4696180555556 2.74848090277778  11.2847222222222 2.47916666666667  10 2.47916666666667  C 8.71527777777778 2.47916666666667  7.53038194444445 2.74848090277778  6.4453125 3.287109375  C 5.36024305555556 3.82573784722222  4.50086805555556 4.55620659722222  3.8671875 5.478515625  C 3.23350694444444 6.40082465277778  2.91666666666667 7.40798611111111  2.91666666666667 8.5  C 2.91666666666667 9.59201388888889  3.23350694444444 10.5991753472222  3.8671875 11.521484375  C 4.50086805555556 12.4437934027778  5.36024305555556 13.1742621527778  6.4453125 13.712890625  C 7.53038194444445 14.2515190972222  8.71527777777778 14.5208333333333  10 14.5208333333333  C 11.2847222222222 14.5208333333333  12.4696180555556 14.2515190972222  13.5546875 13.712890625  C 14.6397569444444 13.1742621527778  15.4991319444444 12.4437934027778  16.1328125 11.521484375  Z M 18.6588541666667 4.2333984375  C 19.5529513888889 5.53569878472222  20 6.95789930555555  20 8.5  C 20 10.0421006944444  19.5529513888889 11.4643012152778  18.6588541666667 12.7666015625  C 17.7647569444444 14.0689019097222  16.5516493055556 15.1000434027778  15.01953125 15.8600260416667  C 13.4874131944444 16.6200086805556  11.8142361111111 17  10 17  C 8.18576388888889 17  6.51258680555556 16.6200086805556  4.98046875 15.8600260416667  C 3.44835069444444 15.1000434027778  2.23524305555556 14.0689019097222  1.34114583333333 12.7666015625  C 0.447048611111111 11.4643012152778  0 10.0421006944444  0 8.5  C 0 6.95789930555555  0.447048611111111 5.53569878472222  1.34114583333333 4.2333984375  C 2.23524305555556 2.93109809027778  3.44835069444444 1.89995659722222  4.98046875 1.13997395833333  C 6.51258680555556 0.379991319444443  8.18576388888889 0  10 0  C 11.8142361111111 0  13.4874131944444 0.379991319444443  15.01953125 1.13997395833333  C 16.5516493055556 1.89995659722222  17.7647569444444 2.93109809027778  18.6588541666667 4.2333984375  Z " fill-rule="nonzero" fill="#8c8c8c" stroke="none" transform="matrix(1 0 0 1 216 33 )" />
  </g>
</svg>