<?xml version="1.0" encoding="utf-8"?>
<svg version="1.1" xmlns:xlink="http://www.w3.org/1999/xlink" width="12px" height="12px" viewBox="166 350.5  12 12" xmlns="http://www.w3.org/2000/svg">
  <path d="M 172 350.5  C 175.36 350.5  178 353.14  178 356.5  C 178 359.86  175.36 362.5  172 362.5  C 168.64 362.5  166 359.86  166 356.5  C 166 353.14  168.64 350.5  172 350.5  Z " fill-rule="nonzero" fill="#f0f0f0" stroke="none" />
  <path d="M 172 351  C 175.08 351  177.5 353.42  177.5 356.5  C 177.5 359.58  175.08 362  172 362  C 168.92 362  166.5 359.58  166.5 356.5  C 166.5 353.42  168.92 351  172 351  Z " stroke-width="1" stroke="#797979" fill="none" />
  <path d="M 172 359.5  C 170.32 359.5  169 358.18  169 356.5  C 169 354.82  170.32 353.5  172 353.5  C 173.68 353.5  175 354.82  175 356.5  C 175 358.18  173.68 359.5  172 359.5  " fill-rule="nonzero" fill="#797979" stroke="none" />
</svg>