<?xml version="1.0" encoding="utf-8"?>
<svg version="1.1" xmlns:xlink="http://www.w3.org/1999/xlink" width="12px" height="12px" viewBox="381 350.5  12 12" xmlns="http://www.w3.org/2000/svg">
  <path d="M 387 350.5  C 390.36 350.5  393 353.14  393 356.5  C 393 359.86  390.36 362.5  387 362.5  C 383.64 362.5  381 359.86  381 356.5  C 381 353.14  383.64 350.5  387 350.5  Z " fill-rule="nonzero" fill="#ffffff" stroke="none" />
  <path d="M 387 351  C 390.08 351  392.5 353.42  392.5 356.5  C 392.5 359.58  390.08 362  387 362  C 383.92 362  381.5 359.58  381.5 356.5  C 381.5 353.42  383.92 351  387 351  Z " stroke-width="1" stroke="#797979" fill="none" />
  <path d="M 387 359.5  C 385.32 359.5  384 358.18  384 356.5  C 384 354.82  385.32 353.5  387 353.5  C 388.68 353.5  390 354.82  390 356.5  C 390 358.18  388.68 359.5  387 359.5  " fill-rule="nonzero" fill="#797979" stroke="none" />
</svg>