<?xml version="1.0" encoding="utf-8"?>
<svg version="1.1" xmlns:xlink="http://www.w3.org/1999/xlink" width="12px" height="12px" viewBox="942 320.5  12 12" xmlns="http://www.w3.org/2000/svg">
  <path d="M 948 320.5  C 951.36 320.5  954 323.14  954 326.5  C 954 329.86  951.36 332.5  948 332.5  C 944.64 332.5  942 329.86  942 326.5  C 942 323.14  944.64 320.5  948 320.5  Z " fill-rule="nonzero" fill="#ffffff" stroke="none" />
  <path d="M 948 321  C 951.08 321  953.5 323.42  953.5 326.5  C 953.5 329.58  951.08 332  948 332  C 944.92 332  942.5 329.58  942.5 326.5  C 942.5 323.42  944.92 321  948 321  Z " stroke-width="1" stroke="#797979" fill="none" />
  <path d="M 948 329.5  C 946.32 329.5  945 328.18  945 326.5  C 945 324.82  946.32 323.5  948 323.5  C 949.68 323.5  951 324.82  951 326.5  C 951 328.18  949.68 329.5  948 329.5  " fill-rule="nonzero" fill="#797979" stroke="none" />
</svg>