<?xml version="1.0" encoding="utf-8"?>
<svg version="1.1" xmlns:xlink="http://www.w3.org/1999/xlink" width="12px" height="12px" viewBox="1055 320.5  12 12" xmlns="http://www.w3.org/2000/svg">
  <path d="M 1061 320.5  C 1064.36 320.5  1067 323.14  1067 326.5  C 1067 329.86  1064.36 332.5  1061 332.5  C 1057.64 332.5  1055 329.86  1055 326.5  C 1055 323.14  1057.64 320.5  1061 320.5  Z " fill-rule="nonzero" fill="#f0f0f0" stroke="none" />
  <path d="M 1061 321  C 1064.08 321  1066.5 323.42  1066.5 326.5  C 1066.5 329.58  1064.08 332  1061 332  C 1057.92 332  1055.5 329.58  1055.5 326.5  C 1055.5 323.42  1057.92 321  1061 321  Z " stroke-width="1" stroke="#797979" fill="none" />
  <path d="M 1061 329.5  C 1059.32 329.5  1058 328.18  1058 326.5  C 1058 324.82  1059.32 323.5  1061 323.5  C 1062.68 323.5  1064 324.82  1064 326.5  C 1064 328.18  1062.68 329.5  1061 329.5  " fill-rule="nonzero" fill="#797979" stroke="none" />
</svg>