<?xml version="1.0" encoding="utf-8"?>
<svg version="1.1" xmlns:xlink="http://www.w3.org/1999/xlink" width="15px" height="18px" xmlns="http://www.w3.org/2000/svg">
  <g transform="matrix(1 0 0 1 -820 -7 )">
    <path d="M 14.6464646464646 13.4545454545455  C 14.8821548821549 13.7373737373737  15 14.0808080808081  15 14.4848484848485  C 15 14.8888888888889  14.8821548821549 15.2323232323232  14.6464646464646 15.5151515151515  L 12.9292929292929 17.5757575757576  C 12.6936026936027 17.8585858585859  12.4074074074074 18  12.0707070707071 18  C 11.7340067340067 18  11.4478114478114 17.8585858585859  11.2121212121212 17.5757575757576  L 7.5 13.1212121212121  L 3.78787878787879 17.5757575757576  C 3.55218855218855 17.8585858585859  3.26599326599327 18  2.92929292929293 18  C 2.59259259259259 18  2.30639730639731 17.8585858585859  2.07070707070707 17.5757575757576  L 0.353535353535354 15.5151515151515  C 0.117845117845118 15.2323232323232  0 14.8888888888889  0 14.4848484848485  C 0 14.0808080808081  0.117845117845118 13.7373737373737  0.353535353535354 13.4545454545455  L 4.06565656565657 9  L 0.353535353535354 4.54545454545455  C 0.117845117845118 4.26262626262626  0 3.91919191919192  0 3.51515151515152  C 0 3.11111111111111  0.117845117845118 2.76767676767677  0.353535353535354 2.48484848484849  L 2.07070707070707 0.424242424242424  C 2.30639730639731 0.141414141414141  2.59259259259259 0  2.92929292929293 0  C 3.26599326599327 0  3.55218855218855 0.141414141414141  3.78787878787879 0.424242424242424  L 7.5 4.87878787878788  L 11.2121212121212 0.424242424242424  C 11.4478114478114 0.141414141414141  11.7340067340067 0  12.0707070707071 0  C 12.4074074074074 0  12.6936026936027 0.141414141414141  12.9292929292929 0.424242424242424  L 14.6464646464646 2.48484848484849  C 14.8821548821549 2.76767676767677  15 3.11111111111111  15 3.51515151515152  C 15 3.91919191919192  14.8821548821549 4.26262626262626  14.6464646464646 4.54545454545455  L 10.9343434343434 9  L 14.6464646464646 13.4545454545455  Z " fill-rule="nonzero" fill="#aaaaaa" stroke="none" transform="matrix(1 0 0 1 820 7 )" />
  </g>
</svg>