<?xml version="1.0" encoding="utf-8"?>
<svg version="1.1" xmlns:xlink="http://www.w3.org/1999/xlink" width="31px" height="28px" xmlns="http://www.w3.org/2000/svg">
  <g transform="matrix(1 0 0 1 -357 -171 )">
    <path d="M 2.38461538461538 21.5  L 2.38461538461538 26  L 7.75 26  L 7.75 21.5  L 2.38461538461538 21.5  Z M 8.94230769230769 21.5  L 8.94230769230769 26  L 14.9038461538462 26  L 14.9038461538462 21.5  L 8.94230769230769 21.5  Z M 2.38461538461538 15.5  L 2.38461538461538 20.5  L 7.75 20.5  L 7.75 15.5  L 2.38461538461538 15.5  Z M 8.94230769230769 15.5  L 8.94230769230769 20.5  L 14.9038461538462 20.5  L 14.9038461538462 15.5  L 8.94230769230769 15.5  Z M 2.38461538461538 10  L 2.38461538461538 14.5  L 7.75 14.5  L 7.75 10  L 2.38461538461538 10  Z M 16.0961538461538 21.5  L 16.0961538461538 26  L 22.0576923076923 26  L 22.0576923076923 21.5  L 16.0961538461538 21.5  Z M 8.94230769230769 10  L 8.94230769230769 14.5  L 14.9038461538462 14.5  L 14.9038461538462 10  L 8.94230769230769 10  Z M 23.25 21.5  L 23.25 26  L 28.6153846153846 26  L 28.6153846153846 21.5  L 23.25 21.5  Z M 16.0961538461538 15.5  L 16.0961538461538 20.5  L 22.0576923076923 20.5  L 22.0576923076923 15.5  L 16.0961538461538 15.5  Z M 9.36147836538462 7.3515625  C 9.4794671474359 7.25260416666667  9.53846153846154 7.13541666666666  9.53846153846154 7  L 9.53846153846154 2.5  C 9.53846153846154 2.36458333333333  9.4794671474359 2.24739583333333  9.36147836538462 2.1484375  C 9.24348958333333 2.04947916666666  9.10376602564103 2  8.94230769230769 2  L 7.75 2  C 7.58854166666667 2  7.44881810897436 2.04947916666666  7.33082932692308 2.1484375  C 7.21284054487179 2.24739583333333  7.15384615384615 2.36458333333333  7.15384615384615 2.5  L 7.15384615384615 7  C 7.15384615384615 7.13541666666666  7.21284054487179 7.25260416666667  7.33082932692308 7.3515625  C 7.44881810897436 7.45052083333333  7.58854166666667 7.5  7.75 7.5  L 8.94230769230769 7.5  C 9.10376602564103 7.5  9.24348958333333 7.45052083333333  9.36147836538462 7.3515625  Z M 23.25 15.5  L 23.25 20.5  L 28.6153846153846 20.5  L 28.6153846153846 15.5  L 23.25 15.5  Z M 16.0961538461538 10  L 16.0961538461538 14.5  L 22.0576923076923 14.5  L 22.0576923076923 10  L 16.0961538461538 10  Z M 23.25 10  L 23.25 14.5  L 28.6153846153846 14.5  L 28.6153846153846 10  L 23.25 10  Z M 23.6691706730769 7.3515625  C 23.7871594551282 7.25260416666667  23.8461538461538 7.13541666666666  23.8461538461538 7  L 23.8461538461538 2.5  C 23.8461538461538 2.36458333333333  23.7871594551282 2.24739583333333  23.6691706730769 2.1484375  C 23.5511818910256 2.04947916666666  23.4114583333333 2  23.25 2  L 22.0576923076923 2  C 21.896233974359 2  21.7565104166667 2.04947916666666  21.6385216346154 2.1484375  C 21.5205328525641 2.24739583333333  21.4615384615385 2.36458333333333  21.4615384615385 2.5  L 21.4615384615385 7  C 21.4615384615385 7.13541666666666  21.5205328525641 7.25260416666667  21.6385216346154 7.3515625  C 21.7565104166667 7.45052083333333  21.896233974359 7.5  22.0576923076923 7.5  L 23.25 7.5  C 23.4114583333333 7.5  23.5511818910256 7.45052083333333  23.6691706730769 7.3515625  Z M 30.2920673076923 4.59375  C 30.7640224358974 4.98958333333333  31 5.45833333333333  31 6  L 31 26  C 31 26.5416666666667  30.7640224358974 27.0104166666667  30.2920673076923 27.40625  C 29.8201121794872 27.8020833333333  29.261217948718 28  28.6153846153846 28  L 2.38461538461538 28  C 1.73878205128205 28  1.17988782051282 27.8020833333333  0.707932692307692 27.40625  C 0.235977564102564 27.0104166666667  0 26.5416666666667  0 26  L 0 6  C 0 5.45833333333333  0.235977564102564 4.98958333333333  0.707932692307692 4.59375  C 1.17988782051282 4.19791666666666  1.73878205128205 4  2.38461538461538 4  L 4.76923076923077 4  L 4.76923076923077 2.5  C 4.76923076923077 1.8125  5.06109775641026 1.22395833333333  5.64483173076923 0.734375000000001  C 6.22856570512821 0.244791666666667  6.93028846153846 0  7.75 0  L 8.94230769230769 0  C 9.76201923076923 0  10.4637419871795 0.244791666666667  11.0474759615385 0.734375000000001  C 11.6312099358974 1.22395833333333  11.9230769230769 1.8125  11.9230769230769 2.5  L 11.9230769230769 4  L 19.0769230769231 4  L 19.0769230769231 2.5  C 19.0769230769231 1.8125  19.3687900641026 1.22395833333333  19.9525240384615 0.734375000000001  C 20.5362580128205 0.244791666666667  21.2379807692308 0  22.0576923076923 0  L 23.25 0  C 24.0697115384615 0  24.7714342948718 0.244791666666667  25.3551682692308 0.734375000000001  C 25.9389022435897 1.22395833333333  26.2307692307692 1.8125  26.2307692307692 2.5  L 26.2307692307692 4  L 28.6153846153846 4  C 29.261217948718 4  29.8201121794872 4.19791666666666  30.2920673076923 4.59375  Z " fill-rule="nonzero" fill="#000000" stroke="none" transform="matrix(1 0 0 1 357 171 )" />
  </g>
</svg>