<?xml version="1.0" encoding="utf-8"?>
<svg version="1.1" xmlns:xlink="http://www.w3.org/1999/xlink" width="12px" height="12px" viewBox="235 114.5  12 12" xmlns="http://www.w3.org/2000/svg">
  <path d="M 241 114.5  C 244.36 114.5  247 117.14  247 120.5  C 247 123.86  244.36 126.5  241 126.5  C 237.64 126.5  235 123.86  235 120.5  C 235 117.14  237.64 114.5  241 114.5  Z " fill-rule="nonzero" fill="#ffffff" stroke="none" />
  <path d="M 241 115  C 244.08 115  246.5 117.42  246.5 120.5  C 246.5 123.58  244.08 126  241 126  C 237.92 126  235.5 123.58  235.5 120.5  C 235.5 117.42  237.92 115  241 115  Z " stroke-width="1" stroke="#797979" fill="none" />
  <path d="M 241 123.5  C 239.32 123.5  238 122.18  238 120.5  C 238 118.82  239.32 117.5  241 117.5  C 242.68 117.5  244 118.82  244 120.5  C 244 122.18  242.68 123.5  241 123.5  " fill-rule="nonzero" fill="#797979" stroke="none" />
</svg>