<?xml version="1.0" encoding="utf-8"?>
<svg version="1.1" xmlns:xlink="http://www.w3.org/1999/xlink" width="12px" height="12px" viewBox="133 114.5  12 12" xmlns="http://www.w3.org/2000/svg">
  <path d="M 139 114.5  C 142.36 114.5  145 117.14  145 120.5  C 145 123.86  142.36 126.5  139 126.5  C 135.64 126.5  133 123.86  133 120.5  C 133 117.14  135.64 114.5  139 114.5  Z " fill-rule="nonzero" fill="#f0f0f0" stroke="none" />
  <path d="M 139 115  C 142.08 115  144.5 117.42  144.5 120.5  C 144.5 123.58  142.08 126  139 126  C 135.92 126  133.5 123.58  133.5 120.5  C 133.5 117.42  135.92 115  139 115  Z " stroke-width="1" stroke="#797979" fill="none" />
  <path d="M 139 123.5  C 137.32 123.5  136 122.18  136 120.5  C 136 118.82  137.32 117.5  139 117.5  C 140.68 117.5  142 118.82  142 120.5  C 142 122.18  140.68 123.5  139 123.5  " fill-rule="nonzero" fill="#797979" stroke="none" />
</svg>