<?xml version="1.0" encoding="utf-8"?>
<svg version="1.1" xmlns:xlink="http://www.w3.org/1999/xlink" width="12px" height="12px" viewBox="149 143.5  12 12" xmlns="http://www.w3.org/2000/svg">
  <path d="M 155 143.5  C 158.36 143.5  161 146.14  161 149.5  C 161 152.86  158.36 155.5  155 155.5  C 151.64 155.5  149 152.86  149 149.5  C 149 146.14  151.64 143.5  155 143.5  Z " fill-rule="nonzero" fill="#ffffff" stroke="none" />
  <path d="M 155 144  C 158.08 144  160.5 146.42  160.5 149.5  C 160.5 152.58  158.08 155  155 155  C 151.92 155  149.5 152.58  149.5 149.5  C 149.5 146.42  151.92 144  155 144  Z " stroke-width="1" stroke="#797979" fill="none" />
  <path d="M 155 152.5  C 153.32 152.5  152 151.18  152 149.5  C 152 147.82  153.32 146.5  155 146.5  C 156.68 146.5  158 147.82  158 149.5  C 158 151.18  156.68 152.5  155 152.5  " fill-rule="nonzero" fill="#797979" stroke="none" />
</svg>