<?xml version="1.0" encoding="utf-8"?>
<svg version="1.1" xmlns:xlink="http://www.w3.org/1999/xlink" width="12px" height="12px" viewBox="251 143.5  12 12" xmlns="http://www.w3.org/2000/svg">
  <path d="M 257 143.5  C 260.36 143.5  263 146.14  263 149.5  C 263 152.86  260.36 155.5  257 155.5  C 253.64 155.5  251 152.86  251 149.5  C 251 146.14  253.64 143.5  257 143.5  Z " fill-rule="nonzero" fill="#f0f0f0" stroke="none" />
  <path d="M 257 144  C 260.08 144  262.5 146.42  262.5 149.5  C 262.5 152.58  260.08 155  257 155  C 253.92 155  251.5 152.58  251.5 149.5  C 251.5 146.42  253.92 144  257 144  Z " stroke-width="1" stroke="#797979" fill="none" />
  <path d="M 257 152.5  C 255.32 152.5  254 151.18  254 149.5  C 254 147.82  255.32 146.5  257 146.5  C 258.68 146.5  260 147.82  260 149.5  C 260 151.18  258.68 152.5  257 152.5  " fill-rule="nonzero" fill="#797979" stroke="none" />
</svg>