<?xml version="1.0" encoding="utf-8"?>
<svg version="1.1" xmlns:xlink="http://www.w3.org/1999/xlink" width="12px" height="12px" viewBox="548 516.5  12 12" xmlns="http://www.w3.org/2000/svg">
  <path d="M 554 516.5  C 557.36 516.5  560 519.14  560 522.5  C 560 525.86  557.36 528.5  554 528.5  C 550.64 528.5  548 525.86  548 522.5  C 548 519.14  550.64 516.5  554 516.5  Z " fill-rule="nonzero" fill="#f0f0f0" stroke="none" />
  <path d="M 554 517  C 557.08 517  559.5 519.42  559.5 522.5  C 559.5 525.58  557.08 528  554 528  C 550.92 528  548.5 525.58  548.5 522.5  C 548.5 519.42  550.92 517  554 517  Z " stroke-width="1" stroke="#797979" fill="none" />
  <path d="M 554 525.5  C 552.32 525.5  551 524.18  551 522.5  C 551 520.82  552.32 519.5  554 519.5  C 555.68 519.5  557 520.82  557 522.5  C 557 524.18  555.68 525.5  554 525.5  " fill-rule="nonzero" fill="#797979" stroke="none" />
</svg>