<?xml version="1.0" encoding="utf-8"?>
<svg version="1.1" xmlns:xlink="http://www.w3.org/1999/xlink" width="12px" height="12px" viewBox="548 455.5  12 12" xmlns="http://www.w3.org/2000/svg">
  <path d="M 554 455.5  C 557.36 455.5  560 458.14  560 461.5  C 560 464.86  557.36 467.5  554 467.5  C 550.64 467.5  548 464.86  548 461.5  C 548 458.14  550.64 455.5  554 455.5  Z " fill-rule="nonzero" fill="#ffffff" stroke="none" />
  <path d="M 554 456  C 557.08 456  559.5 458.42  559.5 461.5  C 559.5 464.58  557.08 467  554 467  C 550.92 467  548.5 464.58  548.5 461.5  C 548.5 458.42  550.92 456  554 456  Z " stroke-width="1" stroke="#797979" fill="none" />
  <path d="M 554 464.5  C 552.32 464.5  551 463.18  551 461.5  C 551 459.82  552.32 458.5  554 458.5  C 555.68 458.5  557 459.82  557 461.5  C 557 463.18  555.68 464.5  554 464.5  " fill-rule="nonzero" fill="#797979" stroke="none" />
</svg>