<?xml version="1.0" encoding="utf-8"?>
<svg version="1.1" xmlns:xlink="http://www.w3.org/1999/xlink" width="11px" height="13px" xmlns="http://www.w3.org/2000/svg">
  <g transform="matrix(1 0 0 1 -273 -22 )">
    <path d="M 10.7407407407407 9.71717171717172  C 10.9135802469136 9.92143658810325  11 10.1694725028058  11 10.4612794612795  C 11 10.7530864197531  10.9135802469136 11.0011223344557  10.7407407407407 11.2053872053872  L 9.48148148148148 12.6936026936027  C 9.30864197530864 12.8978675645342  9.09876543209877 13  8.85185185185185 13  C 8.60493827160494 13  8.39506172839506 12.8978675645342  8.22222222222222 12.6936026936027  L 5.5 9.47643097643098  L 2.77777777777778 12.6936026936027  C 2.60493827160494 12.8978675645342  2.39506172839506 13  2.14814814814815 13  C 1.90123456790123 13  1.69135802469136 12.8978675645342  1.51851851851852 12.6936026936027  L 0.259259259259259 11.2053872053872  C 0.0864197530864198 11.0011223344557  0 10.7530864197531  0 10.4612794612795  C 0 10.1694725028058  0.0864197530864198 9.92143658810325  0.259259259259259 9.71717171717172  L 2.98148148148148 6.5  L 0.259259259259259 3.28282828282828  C 0.0864197530864198 3.07856341189674  0 2.83052749719416  0 2.53872053872054  C 0 2.24691358024691  0.0864197530864198 1.99887766554433  0.259259259259259 1.79461279461279  L 1.51851851851852 0.306397306397306  C 1.69135802469136 0.102132435465768  1.90123456790123 0  2.14814814814815 0  C 2.39506172839506 0  2.60493827160494 0.102132435465768  2.77777777777778 0.306397306397306  L 5.5 3.52356902356902  L 8.22222222222222 0.306397306397306  C 8.39506172839506 0.102132435465768  8.60493827160494 0  8.85185185185185 0  C 9.09876543209877 0  9.30864197530864 0.102132435465768  9.48148148148148 0.306397306397306  L 10.7407407407407 1.79461279461279  C 10.9135802469136 1.99887766554433  11 2.24691358024691  11 2.53872053872054  C 11 2.83052749719416  10.9135802469136 3.07856341189674  10.7407407407407 3.28282828282828  L 8.01851851851852 6.5  L 10.7407407407407 9.71717171717172  Z " fill-rule="nonzero" fill="#aaaaaa" stroke="none" transform="matrix(1 0 0 1 273 22 )" />
  </g>
</svg>