<?xml version="1.0" encoding="utf-8"?>
<svg version="1.1" xmlns:xlink="http://www.w3.org/1999/xlink" width="17px" height="20px" xmlns="http://www.w3.org/2000/svg">
  <g transform="matrix(1 0 0 1 -661 -166 )">
    <path d="M 16.5993265993266 14.9494949494949  C 16.8664421997755 15.2637485970819  17 15.645342312009  17 16.0942760942761  C 17 16.5432098765432  16.8664421997755 16.9248035914703  16.5993265993266 17.2390572390572  L 14.6531986531987 19.5286195286195  C 14.3860830527497 19.8428731762065  14.0617283950617 20  13.6801346801347 20  C 13.2985409652076 20  12.9741863075196 19.8428731762065  12.7070707070707 19.5286195286195  L 8.5 14.5791245791246  L 4.29292929292929 19.5286195286195  C 4.02581369248036 19.8428731762065  3.70145903479237 20  3.31986531986532 20  C 2.93827160493827 20  2.61391694725028 19.8428731762065  2.34680134680135 19.5286195286195  L 0.400673400673401 17.2390572390572  C 0.133557800224467 16.9248035914703  0 16.5432098765432  0 16.0942760942761  C 0 15.645342312009  0.133557800224467 15.2637485970819  0.400673400673401 14.9494949494949  L 4.60774410774411 10  L 0.400673400673401 5.05050505050505  C 0.133557800224467 4.73625140291807  0 4.35465768799102  0 3.90572390572391  C 0 3.45679012345679  0.133557800224467 3.07519640852974  0.400673400673401 2.76094276094276  L 2.34680134680135 0.471380471380471  C 2.61391694725028 0.15712682379349  2.93827160493827 0  3.31986531986532 0  C 3.70145903479237 0  4.02581369248036 0.15712682379349  4.29292929292929 0.471380471380471  L 8.5 5.42087542087542  L 12.7070707070707 0.471380471380471  C 12.9741863075196 0.15712682379349  13.2985409652076 0  13.6801346801347 0  C 14.0617283950617 0  14.3860830527497 0.15712682379349  14.6531986531987 0.471380471380471  L 16.5993265993266 2.76094276094276  C 16.8664421997755 3.07519640852974  17 3.45679012345679  17 3.90572390572391  C 17 4.35465768799102  16.8664421997755 4.73625140291807  16.5993265993266 5.05050505050505  L 12.3922558922559 10  L 16.5993265993266 14.9494949494949  Z " fill-rule="nonzero" fill="#000000" stroke="none" transform="matrix(1 0 0 1 661 166 )" />
  </g>
</svg>