<?xml version="1.0" encoding="utf-8"?>
<svg version="1.1" xmlns:xlink="http://www.w3.org/1999/xlink" width="28px" height="32px" xmlns="http://www.w3.org/2000/svg">
  <g transform="matrix(1 0 0 1 -933 0 )">
    <path d="M 27.3400673400673 23.9191919191919  C 27.7800224466891 24.4219977553311  28 25.0325476992144  28 25.7508417508418  C 28 26.4691358024691  27.7800224466891 27.0796857463524  27.3400673400673 27.5824915824916  L 24.1346801346801 31.2457912457912  C 23.6947250280584 31.7485970819304  23.1604938271605 32  22.5319865319865 32  C 21.9034792368126 32  21.3692480359147 31.7485970819304  20.9292929292929 31.2457912457912  L 14 23.3265993265993  L 7.07070707070707 31.2457912457912  C 6.6307519640853 31.7485970819304  6.09652076318743 32  5.46801346801347 32  C 4.83950617283951 32  4.30527497194164 31.7485970819304  3.86531986531987 31.2457912457912  L 0.65993265993266 27.5824915824916  C 0.219977553310887 27.0796857463524  0 26.4691358024691  0 25.7508417508418  C 0 25.0325476992144  0.219977553310887 24.4219977553311  0.65993265993266 23.9191919191919  L 7.58922558922559 16  L 0.65993265993266 8.08080808080808  C 0.219977553310887 7.57800224466891  0 6.96745230078563  0 6.24915824915825  C 0 5.53086419753086  0.219977553310887 4.92031425364758  0.65993265993266 4.41750841750842  L 3.86531986531987 0.754208754208754  C 4.30527497194164 0.251402918069584  4.83950617283951 0  5.46801346801347 0  C 6.09652076318743 0  6.6307519640853 0.251402918069584  7.07070707070707 0.754208754208754  L 14 8.67340067340067  L 20.9292929292929 0.754208754208754  C 21.3692480359147 0.251402918069584  21.9034792368126 0  22.5319865319865 0  C 23.1604938271605 0  23.6947250280584 0.251402918069584  24.1346801346801 0.754208754208754  L 27.3400673400673 4.41750841750842  C 27.7800224466891 4.92031425364758  28 5.53086419753086  28 6.24915824915825  C 28 6.96745230078563  27.7800224466891 7.57800224466891  27.3400673400673 8.08080808080808  L 20.4107744107744 16  L 27.3400673400673 23.9191919191919  Z " fill-rule="nonzero" fill="#000000" stroke="none" transform="matrix(1 0 0 1 933 0 )" />
  </g>
</svg>