<?xml version="1.0" encoding="utf-8"?>
<svg version="1.1" xmlns:xlink="http://www.w3.org/1999/xlink" width="19px" height="19px" xmlns="http://www.w3.org/2000/svg">
  <g transform="matrix(1 0 0 1 -54 -67 )">
    <path d="M 18.6567741935484 2.62289562289562  C 18.8855913978495 2.92143658810325  19 3.28395061728395  19 3.71043771043771  C 19 4.13692480359147  18.8855913978495 4.49943883277216  18.6567741935484 4.7979797979798  L 9.78193548387097 16.3771043771044  L 8.11483870967742 18.5521885521886  C 7.88602150537634 18.8507295173962  7.60817204301075 19  7.28129032258065 19  C 6.95440860215054 19  6.67655913978495 18.8507295173962  6.44774193548387 18.5521885521886  L 4.78064516129032 16.3771043771044  L 0.343225806451613 10.5875420875421  C 0.114408602150538 10.2890011223345  0 9.92648709315376  0 9.5  C 0 9.07351290684624  0.114408602150538 8.71099887766554  0.343225806451613 8.41245791245791  L 2.01032258064516 6.23737373737374  C 2.23913978494624 5.9388327721661  2.51698924731183 5.78956228956229  2.84387096774194 5.78956228956229  C 3.17075268817204 5.78956228956229  3.44860215053763 5.9388327721661  3.67741935483871 6.23737373737374  L 7.28129032258065 10.9553872053872  L 15.3225806451613 0.447811447811448  C 15.5513978494624 0.149270482603815  15.829247311828 0  16.1561290322581 0  C 16.4830107526882 0  16.7608602150538 0.149270482603815  16.9896774193548 0.447811447811448  L 18.6567741935484 2.62289562289562  Z " fill-rule="nonzero" fill="#95f204" stroke="none" transform="matrix(1 0 0 1 54 67 )" />
  </g>
</svg>