<?xml version="1.0" encoding="utf-8"?>
<svg version="1.1" xmlns:xlink="http://www.w3.org/1999/xlink" width="200px" height="63px" xmlns="http://www.w3.org/2000/svg">
  <defs>
    <mask fill="white" id="clip10">
      <path d="M 5 45.4993206521739  C 2.23857625084605 45.4993206521739  0 42.5611893229385  0 38.9368206521739  L 0 6.5625  C 0 2.93813132923537  2.23857625084605 0  5 0  L 195 0  C 197.761423749154 0  200 2.93813132923537  200 6.5625  L 200 38.9368206521739  C 200 42.5611893229385  197.761423749154 45.4993206521739  195 45  L 34.2168674698796 45  L 5 61.8614457831326  L 11.3253012048194 45.4993206521739  L 5 45.4993206521739  Z " fill-rule="evenodd" />
    </mask>
  </defs>
  <g transform="matrix(1 0 0 1 -187 -56 )">
    <path d="M 5 45.4993206521739  C 2.23857625084605 45.4993206521739  0 42.5611893229385  0 38.9368206521739  L 0 6.5625  C 0 2.93813132923537  2.23857625084605 0  5 0  L 195 0  C 197.761423749154 0  200 2.93813132923537  200 6.5625  L 200 38.9368206521739  C 200 42.5611893229385  197.761423749154 45.4993206521739  195 45  L 34.2168674698796 45  L 5 61.8614457831326  L 11.3253012048194 45.4993206521739  L 5 45.4993206521739  Z " fill-rule="nonzero" fill="#ffffff" stroke="none" transform="matrix(1 0 0 1 187 56 )" />
    <path d="M 5 45.4993206521739  C 2.23857625084605 45.4993206521739  0 42.5611893229385  0 38.9368206521739  L 0 6.5625  C 0 2.93813132923537  2.23857625084605 0  5 0  L 195 0  C 197.761423749154 0  200 2.93813132923537  200 6.5625  L 200 38.9368206521739  C 200 42.5611893229385  197.761423749154 45.4993206521739  195 45  L 34.2168674698796 45  L 5 61.8614457831326  L 11.3253012048194 45.4993206521739  L 5 45.4993206521739  Z " stroke-width="2" stroke="#d7d7d7" fill="none" transform="matrix(1 0 0 1 187 56 )" mask="url(#clip10)" />
  </g>
</svg>