<?xml version="1.0" encoding="utf-8"?>
<svg version="1.1" xmlns:xlink="http://www.w3.org/1999/xlink" width="24px" height="23px" xmlns="http://www.w3.org/2000/svg">
  <g transform="matrix(1 0 0 1 -724 -112 )">
    <path d="M 1.84615384615385 17.6607142857143  L 1.84615384615385 21.3571428571429  L 6 21.3571428571429  L 6 17.6607142857143  L 1.84615384615385 17.6607142857143  Z M 6.92307692307692 17.6607142857143  L 6.92307692307692 21.3571428571429  L 11.5384615384615 21.3571428571429  L 11.5384615384615 17.6607142857143  L 6.92307692307692 17.6607142857143  Z M 1.84615384615385 12.7321428571429  L 1.84615384615385 16.8392857142857  L 6 16.8392857142857  L 6 12.7321428571429  L 1.84615384615385 12.7321428571429  Z M 6.92307692307692 12.7321428571429  L 6.92307692307692 16.8392857142857  L 11.5384615384615 16.8392857142857  L 11.5384615384615 12.7321428571429  L 6.92307692307692 12.7321428571429  Z M 1.84615384615385 8.21428571428571  L 1.84615384615385 11.9107142857143  L 6 11.9107142857143  L 6 8.21428571428571  L 1.84615384615385 8.21428571428571  Z M 12.4615384615385 17.6607142857143  L 12.4615384615385 21.3571428571429  L 17.0769230769231 21.3571428571429  L 17.0769230769231 17.6607142857143  L 12.4615384615385 17.6607142857143  Z M 6.92307692307692 8.21428571428571  L 6.92307692307692 11.9107142857143  L 11.5384615384615 11.9107142857143  L 11.5384615384615 8.21428571428571  L 6.92307692307692 8.21428571428571  Z M 18 17.6607142857143  L 18 21.3571428571429  L 22.1538461538462 21.3571428571429  L 22.1538461538462 17.6607142857143  L 18 17.6607142857143  Z M 12.4615384615385 12.7321428571429  L 12.4615384615385 16.8392857142857  L 17.0769230769231 16.8392857142857  L 17.0769230769231 12.7321428571429  L 12.4615384615385 12.7321428571429  Z M 7.24759615384615 6.03878348214286  C 7.33894230769231 5.9574962797619  7.38461538461539 5.86123511904762  7.38461538461539 5.75  L 7.38461538461539 2.05357142857143  C 7.38461538461539 1.94233630952381  7.33894230769231 1.84607514880952  7.24759615384615 1.76478794642857  C 7.15625 1.68350074404762  7.04807692307692 1.64285714285714  6.92307692307692 1.64285714285714  L 6 1.64285714285714  C 5.875 1.64285714285714  5.76682692307692 1.68350074404762  5.67548076923077 1.76478794642857  C 5.58413461538462 1.84607514880952  5.53846153846154 1.94233630952381  5.53846153846154 2.05357142857143  L 5.53846153846154 5.75  C 5.53846153846154 5.86123511904762  5.58413461538462 5.9574962797619  5.67548076923077 6.03878348214286  C 5.76682692307692 6.12007068452381  5.875 6.16071428571429  6 6.16071428571429  L 6.92307692307692 6.16071428571429  C 7.04807692307692 6.16071428571429  7.15625 6.12007068452381  7.24759615384615 6.03878348214286  Z M 18 12.7321428571429  L 18 16.8392857142857  L 22.1538461538462 16.8392857142857  L 22.1538461538462 12.7321428571429  L 18 12.7321428571429  Z M 12.4615384615385 8.21428571428571  L 12.4615384615385 11.9107142857143  L 17.0769230769231 11.9107142857143  L 17.0769230769231 8.21428571428571  L 12.4615384615385 8.21428571428571  Z M 18 8.21428571428571  L 18 11.9107142857143  L 22.1538461538462 11.9107142857143  L 22.1538461538462 8.21428571428571  L 18 8.21428571428571  Z M 18.3245192307692 6.03878348214286  C 18.4158653846154 5.9574962797619  18.4615384615385 5.86123511904762  18.4615384615385 5.75  L 18.4615384615385 2.05357142857143  C 18.4615384615385 1.94233630952381  18.4158653846154 1.84607514880952  18.3245192307692 1.76478794642857  C 18.2331730769231 1.68350074404762  18.125 1.64285714285714  18 1.64285714285714  L 17.0769230769231 1.64285714285714  C 16.9519230769231 1.64285714285714  16.84375 1.68350074404762  16.7524038461538 1.76478794642857  C 16.6610576923077 1.84607514880952  16.6153846153846 1.94233630952381  16.6153846153846 2.05357142857143  L 16.6153846153846 5.75  C 16.6153846153846 5.86123511904762  16.6610576923077 5.9574962797619  16.7524038461538 6.03878348214286  C 16.84375 6.12007068452381  16.9519230769231 6.16071428571429  17.0769230769231 6.16071428571429  L 18 6.16071428571429  C 18.125 6.16071428571429  18.2331730769231 6.12007068452381  18.3245192307692 6.03878348214286  Z M 23.4519230769231 3.7734375  C 23.8173076923077 4.09858630952381  24 4.48363095238095  24 4.92857142857143  L 24 21.3571428571429  C 24 21.8020833333333  23.8173076923077 22.1871279761905  23.4519230769231 22.5122767857143  C 23.0865384615385 22.8374255952381  22.6538461538462 23  22.1538461538462 23  L 1.84615384615385 23  C 1.34615384615385 23  0.913461538461539 22.8374255952381  0.548076923076923 22.5122767857143  C 0.182692307692308 22.1871279761905  0 21.8020833333333  0 21.3571428571429  L 0 4.92857142857143  C 0 4.48363095238095  0.182692307692308 4.09858630952381  0.548076923076923 3.7734375  C 0.913461538461539 3.44828869047619  1.34615384615385 3.28571428571429  1.84615384615385 3.28571428571429  L 3.69230769230769 3.28571428571429  L 3.69230769230769 2.05357142857143  C 3.69230769230769 1.48883928571429  3.91826923076923 1.00539434523809  4.37019230769231 0.603236607142858  C 4.82211538461539 0.201078869047619  5.36538461538462 0  6 0  L 6.92307692307692 0  C 7.55769230769231 0  8.10096153846154 0.201078869047619  8.55288461538462 0.603236607142858  C 9.00480769230769 1.00539434523809  9.23076923076923 1.48883928571429  9.23076923076923 2.05357142857143  L 9.23076923076923 3.28571428571429  L 14.7692307692308 3.28571428571429  L 14.7692307692308 2.05357142857143  C 14.7692307692308 1.48883928571429  14.9951923076923 1.00539434523809  15.4471153846154 0.603236607142858  C 15.8990384615385 0.201078869047619  16.4423076923077 0  17.0769230769231 0  L 18 0  C 18.6346153846154 0  19.1778846153846 0.201078869047619  19.6298076923077 0.603236607142858  C 20.0817307692308 1.00539434523809  20.3076923076923 1.48883928571429  20.3076923076923 2.05357142857143  L 20.3076923076923 3.28571428571429  L 22.1538461538462 3.28571428571429  C 22.6538461538462 3.28571428571429  23.0865384615385 3.44828869047619  23.4519230769231 3.7734375  Z " fill-rule="nonzero" fill="#000000" stroke="none" transform="matrix(1 0 0 1 724 112 )" />
  </g>
</svg>