<?xml version="1.0" encoding="utf-8"?>
<svg version="1.1" xmlns:xlink="http://www.w3.org/1999/xlink" width="16px" height="11px" xmlns="http://www.w3.org/2000/svg">
  <g transform="matrix(1 0 0 1 -639 -52 )">
    <path d="M 15.8396793587174 1.1340206185567  C 15.9465597862391 1.26002290950744  16 1.4049255441008  16 1.56872852233677  C 16 1.73253150057274  15.9465597862391 1.87743413516609  15.8396793587174 2.00343642611684  L 8.3687374749499 10.8109965635739  C 8.26185704742819 10.9369988545246  8.13894455577822 11  8 11  C 7.86105544422178 11  7.73814295257181 10.9369988545246  7.6312625250501 10.8109965635739  L 0.160320641282565 2.00343642611684  C 0.0534402137608552 1.87743413516609  0 1.73253150057274  0 1.56872852233677  C 0 1.4049255441008  0.0534402137608552 1.26002290950744  0.160320641282565 1.1340206185567  L 0.961923847695391 0.189003436426117  C 1.0688042752171 0.0630011454753708  1.19171676686707 0  1.33066132264529 0  C 1.46960587842351 0  1.59251837007348 0.0630011454753708  1.69939879759519 0.189003436426117  L 8 7.61683848797251  L 14.3006012024048 0.189003436426117  C 14.4074816299265 0.0630011454753708  14.5303941215765 0  14.6693386773547 0  C 14.8082832331329 0  14.9311957247829 0.0630011454753708  15.0380761523046 0.189003436426117  L 15.8396793587174 1.1340206185567  Z " fill-rule="nonzero" fill="#000000" stroke="none" transform="matrix(1 0 0 1 639 52 )" />
  </g>
</svg>