<?xml version="1.0" encoding="utf-8"?>
<svg version="1.1" xmlns:xlink="http://www.w3.org/1999/xlink" width="13px" height="15px" xmlns="http://www.w3.org/2000/svg">
  <g transform="matrix(1 0 0 1 -176 -119 )">
    <path d="M 3.52244224422442 4.06435643564356  C 3.73696369636964 3.81683168316832  3.84422442244224 3.51815181518152  3.84422442244224 3.16831683168317  C 3.84422442244224 2.81848184818482  3.73696369636964 2.51980198019802  3.52244224422442 2.27227722772277  C 3.30792079207921 2.02475247524753  3.04906490649065 1.9009900990099  2.74587458745875 1.9009900990099  C 2.44268426842684 1.9009900990099  2.18382838283828 2.02475247524753  1.96930693069307 2.27227722772277  C 1.75478547854785 2.51980198019802  1.64752475247525 2.81848184818482  1.64752475247525 3.16831683168317  C 1.64752475247525 3.51815181518152  1.75478547854785 3.81683168316832  1.96930693069307 4.06435643564356  C 2.18382838283828 4.31188118811881  2.44268426842684 4.43564356435644  2.74587458745875 4.43564356435644  C 3.04906490649065 4.43564356435644  3.30792079207921 4.31188118811881  3.52244224422442 4.06435643564356  Z M 12.6825082508251 7.97029702970297  C 12.8941694169417 8.22772277227723  13 8.52805280528053  13 8.87128712871287  C 13 9.22112211221122  12.8941694169417 9.51815181518152  12.6825082508251 9.76237623762376  L 8.46930693069307 14.6336633663366  C 8.24620462046205 14.8778877887789  7.98591859185919 15  7.68844884488449 15  C 7.38525852585258 15  7.12783278327833 14.8778877887789  6.91617161716172 14.6336633663366  L 0.780858085808581 7.54455445544554  C 0.563476347634764 7.3003300330033  0.378987898789879 6.96699669966997  0.227392739273927 6.54455445544555  C 0.0757975797579758 6.12211221122112  0 5.73597359735974  0 5.38613861386139  L 0 1.26732673267327  C 0 0.924092409240924  0.108690869086909 0.627062706270627  0.326072607260726 0.376237623762375  C 0.543454345434544 0.125412541254124  0.800880088008801 0  1.0983498349835 0  L 4.66798679867987 0  C 4.97117711771177 0  5.30583058305831 0.0874587458745862  5.67194719471947 0.262376237623762  C 6.03806380638064 0.437293729372936  6.32981298129813 0.650165016501648  6.54719471947195 0.900990099009901  L 12.6825082508251 7.97029702970297  Z " fill-rule="nonzero" fill="#000000" stroke="none" transform="matrix(1 0 0 1 176 119 )" />
  </g>
</svg>