<?xml version="1.0" encoding="utf-8"?>
<svg version="1.1" xmlns:xlink="http://www.w3.org/1999/xlink" width="16px" height="19px" xmlns="http://www.w3.org/2000/svg">
  <g transform="matrix(1 0 0 1 -203 -116 )">
    <path d="M 15.640625 11.2008463541667  C 15.7065972222222 11.2791883680556  15.7395833333333 11.3719618055556  15.7395833333333 11.4791666666667  C 15.7395833333333 11.5203993055556  15.7361111111111 11.5492621527778  15.7291666666667 11.5657552083333  C 15.2847222222222 13.7758246527778  14.3541666666667 15.5673828125  12.9375 16.9404296875  C 11.5208333333333 18.3134765625  9.86111111111111 19  7.95833333333333 19  C 6.94444444444445 19  5.96354166666667 18.7732204861111  5.015625 18.3196614583333  C 4.06770833333333 17.8661024305556  3.22222222222222 17.21875  2.47916666666667 16.3776041666667  L 1.13541666666667 17.9733072916667  C 1.00347222222222 18.1299913194444  0.847222222222222 18.2083333333333  0.666666666666667 18.2083333333333  C 0.486111111111111 18.2083333333333  0.329861111111111 18.1299913194444  0.197916666666667 17.9733072916667  C 0.0659722222222222 17.8166232638889  0 17.6310763888889  0 17.4166666666667  L 0 11.875  C 0 11.6605902777778  0.0659722222222222 11.4750434027778  0.197916666666667 11.318359375  C 0.329861111111111 11.1616753472222  0.486111111111111 11.0833333333333  0.666666666666667 11.0833333333333  L 5.33333333333333 11.0833333333333  C 5.51388888888889 11.0833333333333  5.67013888888889 11.1616753472222  5.80208333333333 11.318359375  C 5.93402777777778 11.4750434027778  6 11.6605902777778  6 11.875  C 6 12.0894097222222  5.93402777777778 12.2749565972222  5.80208333333333 12.431640625  L 4.375 14.1263020833333  C 4.86805555555556 14.6705729166667  5.42708333333333 15.0911458333333  6.05208333333333 15.3880208333333  C 6.67708333333333 15.6848958333333  7.32638888888889 15.8333333333333  8 15.8333333333333  C 8.93055555555556 15.8333333333333  9.79861111111111 15.5653211805556  10.6041666666667 15.029296875  C 11.4097222222222 14.4932725694444  12.0555555555556 13.7552083333333  12.5416666666667 12.8151041666667  C 12.6180555555556 12.6749131944444  12.8020833333333 12.1924913194444  13.09375 11.3678385416667  C 13.1493055555556 11.1781684027778  13.2534722222222 11.0833333333333  13.40625 11.0833333333333  L 15.40625 11.0833333333333  C 15.4965277777778 11.0833333333333  15.5746527777778 11.1225043402778  15.640625 11.2008463541667  Z M 15.8020833333333 1.02669270833333  C 15.9340277777778 1.18337673611111  16 1.36892361111111  16 1.58333333333333  L 16 7.125  C 16 7.33940972222222  15.9340277777778 7.52495659722222  15.8020833333333 7.681640625  C 15.6701388888889 7.83832465277778  15.5138888888889 7.91666666666667  15.3333333333333 7.91666666666667  L 10.6666666666667 7.91666666666667  C 10.4861111111111 7.91666666666667  10.3298611111111 7.83832465277778  10.1979166666667 7.681640625  C 10.0659722222222 7.52495659722222  10 7.33940972222222  10 7.125  C 10 6.91059027777778  10.0659722222222 6.72504340277778  10.1979166666667 6.568359375  L 11.6354166666667 4.861328125  C 10.6076388888889 3.73155381944444  9.39583333333333 3.16666666666667  8 3.16666666666667  C 7.06944444444445 3.16666666666667  6.20138888888889 3.43467881944444  5.39583333333333 3.970703125  C 4.59027777777778 4.50672743055555  3.94444444444445 5.24479166666667  3.45833333333333 6.18489583333333  C 3.38194444444444 6.32508680555555  3.19791666666667 6.80750868055555  2.90625 7.63216145833333  C 2.85069444444444 7.82183159722222  2.74652777777778 7.91666666666667  2.59375 7.91666666666667  L 0.520833333333333 7.91666666666667  C 0.430555555555556 7.91666666666667  0.352430555555556 7.87749565972222  0.286458333333333 7.79915364583333  C 0.220486111111111 7.72081163194444  0.1875 7.62803819444444  0.1875 7.52083333333333  L 0.1875 7.43424479166667  C 0.638888888888889 5.22417534722222  1.57638888888889 3.4326171875  3 2.0595703125  C 4.42361111111111 0.6865234375  6.09027777777778 0  8 0  C 9.01388888888889 0  10 0.228841145833334  10.9583333333333 0.6865234375  C 11.9166666666667 1.14420572916667  12.7673611111111 1.78949652777778  13.5104166666667 2.62239583333333  L 14.8645833333333 1.02669270833333  C 14.9965277777778 0.870008680555554  15.1527777777778 0.791666666666666  15.3333333333333 0.791666666666666  C 15.5138888888889 0.791666666666666  15.6701388888889 0.870008680555554  15.8020833333333 1.02669270833333  Z " fill-rule="nonzero" fill="#000000" stroke="none" transform="matrix(1 0 0 1 203 116 )" />
  </g>
</svg>