<?xml version="1.0" encoding="utf-8"?>
<svg version="1.1" xmlns:xlink="http://www.w3.org/1999/xlink" width="11px" height="21px" xmlns="http://www.w3.org/2000/svg">
  <g transform="matrix(1 0 0 1 -548 -23 )">
    <path d="M 10.7958984375 12.6924715909091  C 10.9319661458334 12.8813920454545  11 13.1051136363636  11 13.3636363636364  C 11 13.6221590909091  10.9319661458334 13.8458806818182  10.7958984375 14.0348011363636  L 8.27457787175194 17.5354776243443  L 5.9833984375 20.7166193181818  C 5.84733072916663 20.9055397727273  5.68619791666663 21  5.5 21  C 5.31380208333337 21  5.15266927083337 20.9055397727273  5.0166015625 20.7166193181818  L 0.2041015625 14.0348011363636  C 0.0680338541666288 13.8458806818182  0 13.6221590909091  0 13.3636363636364  C 0 13.1051136363636  0.0680338541666288 12.8813920454545  0.2041015625 12.6924715909091  C 0.340169270833371 12.5035511363636  0.501302083333371 12.4090909090909  0.6875 12.4090909090909  L 3.84079601990129 12.4090909090909  L 10.3125 12.4090909090909  C 10.4986979166666 12.4090909090909  10.6598307291666 12.5035511363636  10.7958984375 12.6924715909091  Z M 10.7958984375 6.96519886363636  C 10.9319661458334 7.15411931818182  11 7.37784090909091  11 7.63636363636364  C 11 7.89488636363636  10.9319661458334 8.11860795454545  10.7958984375 8.30752840909091  C 10.6598307291666 8.49644886363637  10.4986979166666 8.59090909090909  10.3125 8.59090909090909  L 0.6875 8.59090909090909  C 0.501302083333371 8.59090909090909  0.340169270833371 8.49644886363637  0.2041015625 8.30752840909091  C 0.0680338541666288 8.11860795454545  0 7.89488636363636  0 7.63636363636364  C 0 7.37784090909091  0.0680338541666288 7.15411931818182  0.2041015625 6.96519886363636  L 5.0166015625 0.283380681818183  C 5.15266927083337 0.0944602272727266  5.31380208333337 0  5.5 0  C 5.68619791666663 0  5.84733072916663 0.0944602272727266  5.9833984375 0.283380681818183  L 10.7958984375 6.96519886363636  Z " fill-rule="nonzero" fill="#000000" stroke="none" transform="matrix(1 0 0 1 548 23 )" />
  </g>
</svg>