<?xml version="1.0" encoding="utf-8"?>
<svg version="1.1" xmlns:xlink="http://www.w3.org/1999/xlink" width="7px" height="8px" xmlns="http://www.w3.org/2000/svg">
  <g transform="matrix(1 0 0 1 -84 -63 )">
    <path d="M 1.896699669967 2.16765676567657  C 2.01221122112211 2.03564356435644  2.06996699669967 1.87634763476348  2.06996699669967 1.68976897689769  C 2.06996699669967 1.5031903190319  2.01221122112211 1.34389438943894  1.896699669967 1.21188118811881  C 1.78118811881188 1.07986798679868  1.64180418041804 1.01386138613861  1.47854785478548 1.01386138613861  C 1.31529152915292 1.01386138613861  1.17590759075908 1.07986798679868  1.06039603960396 1.21188118811881  C 0.944884488448845 1.34389438943894  0.887128712871287 1.5031903190319  0.887128712871287 1.68976897689769  C 0.887128712871287 1.87634763476348  0.944884488448845 2.03564356435644  1.06039603960396 2.16765676567657  C 1.17590759075908 2.2996699669967  1.31529152915292 2.36567656765677  1.47854785478548 2.36567656765677  C 1.64180418041804 2.36567656765677  1.78118811881188 2.2996699669967  1.896699669967 2.16765676567657  Z M 6.82904290429043 4.25082508250825  C 6.94301430143014 4.38811881188119  7 4.54829482948295  7 4.73135313531353  C 7 4.91793179317932  6.94301430143014 5.07634763476348  6.82904290429043 5.20660066006601  L 4.56039603960396 7.8046204620462  C 4.44026402640264 7.93487348734874  4.3001100110011 8  4.13993399339934 8  C 3.97667766776678 8  3.83806380638064 7.93487348734874  3.72409240924092 7.8046204620462  L 0.42046204620462 4.02376237623762  C 0.303410341034103 3.89350935093509  0.204070407040704 3.71573157315732  0.122442244224422 3.49042904290429  C 0.0408140814081408 3.26512651265127  0 3.05918591859186  0 2.87260726072607  L 0 0.675907590759076  C 0 0.492849284928493  0.0585258525852585 0.334433443344334  0.175577557755776 0.2006600660066  C 0.292629262926293 0.0668866886688662  0.431243124312431 0  0.591419141914191 0  L 2.51353135313531 0  C 2.67678767876788 0  2.85698569856986 0.046644664466446  3.05412541254125 0.13993399339934  C 3.25126512651265 0.233223322332233  3.40836083608361 0.346754675467546  3.52541254125413 0.480528052805281  L 6.82904290429043 4.25082508250825  Z " fill-rule="nonzero" fill="#0000ff" stroke="none" transform="matrix(1 0 0 1 84 63 )" />
  </g>
</svg>