<?xml version="1.0" encoding="utf-8"?>
<svg version="1.1" xmlns:xlink="http://www.w3.org/1999/xlink" width="40px" height="35px" xmlns="http://www.w3.org/2000/svg">
  <g transform="matrix(1 0 0 1 -1123 -50 )">
    <path d="M 23.0989583333333 28.9615885416667  C 23.2552083333333 28.8248697916667  23.3333333333333 28.6501736111111  23.3333333333333 28.4375  L 23.3333333333333 24.0625  C 23.3333333333333 23.8498263888889  23.2552083333333 23.6751302083333  23.0989583333333 23.5384114583333  C 22.9427083333333 23.4016927083333  22.7430555555556 23.3333333333333  22.5 23.3333333333333  L 17.5 23.3333333333333  C 17.2569444444444 23.3333333333333  17.0572916666667 23.4016927083333  16.9010416666667 23.5384114583333  C 16.7447916666667 23.6751302083333  16.6666666666667 23.8498263888889  16.6666666666667 24.0625  L 16.6666666666667 28.4375  C 16.6666666666667 28.6501736111111  16.7447916666667 28.8248697916667  16.9010416666667 28.9615885416667  C 17.0572916666667 29.0983072916667  17.2569444444444 29.1666666666667  17.5 29.1666666666667  L 22.5 29.1666666666667  C 22.7430555555556 29.1666666666667  22.9427083333333 29.0983072916667  23.0989583333333 28.9615885416667  Z M 29.6744791666667 14.970703125  C 29.8914930555556 14.4086371527778  30 13.7934027777778  30 13.125  C 30 11.7881944444444  29.5182291666667 10.5501302083333  28.5546875 9.41080729166667  C 27.5911458333333 8.271484375  26.3888888888889 7.39040798611111  24.9479166666667 6.767578125  C 23.5069444444444 6.14474826388889  22.03125 5.83333333333333  20.5208333333333 5.83333333333333  C 16.3020833333333 5.83333333333333  13.0815972222222 7.451171875  10.859375 10.6868489583333  C 10.5989583333333 11.0514322916667  10.6684027777778 11.3704427083333  11.0677083333333 11.6438802083333  L 14.5052083333333 13.9225260416667  C 14.6267361111111 14.013671875  14.7916666666667 14.0592447916667  15 14.0592447916667  C 15.2777777777778 14.0592447916667  15.4947916666667 13.9680989583333  15.6510416666667 13.7858072916667  C 16.5711805555556 12.7528211805556  17.3177083333333 12.0540364583333  17.890625 11.689453125  C 18.4809027777778 11.3248697916667  19.2274305555556 11.142578125  20.1302083333333 11.142578125  C 20.9635416666667 11.142578125  21.7057291666667 11.3400607638889  22.3567708333333 11.7350260416667  C 23.0078125 12.1299913194444  23.3333333333333 12.578125  23.3333333333333 13.0794270833333  C 23.3333333333333 13.6566840277778  23.1597222222222 14.1200086805556  22.8125 14.4694010416667  C 22.4652777777778 14.8187934027778  21.875 15.1605902777778  21.0416666666667 15.4947916666667  C 19.9479166666667 15.9201388888889  18.9453125 16.5771484375  18.0338541666667 17.4658203125  C 17.1223958333333 18.3544921875  16.6666666666667 19.3077256944444  16.6666666666667 20.3255208333333  L 16.6666666666667 21.1458333333333  C 16.6666666666667 21.3585069444444  16.7447916666667 21.533203125  16.9010416666667 21.669921875  C 17.0572916666667 21.806640625  17.2569444444444 21.875  17.5 21.875  L 22.5 21.875  C 22.7430555555556 21.875  22.9427083333333 21.806640625  23.0989583333333 21.669921875  C 23.2552083333333 21.533203125  23.3333333333333 21.3585069444444  23.3333333333333 21.1458333333333  C 23.3333333333333 20.8572048611111  23.5199652777778 20.4812282986111  23.8932291666667 20.0179036458333  C 24.2664930555556 19.5545789930556  24.7395833333333 19.1786024305556  25.3125 18.8899739583333  C 25.8680555555556 18.6165364583333  26.2934027777778 18.4000651041667  26.5885416666667 18.2405598958333  C 26.8836805555556 18.0810546875  27.2829861111111 17.8152126736111  27.7864583333333 17.4430338541667  C 28.2899305555556 17.0708550347222  28.6762152777778 16.7062717013889  28.9453125 16.3492838541667  C 29.2144097222222 15.9922960069444  29.4574652777778 15.5327690972222  29.6744791666667 14.970703125  Z M 37.3177083333333 8.7158203125  C 39.1059027777778 11.3970269097222  40 14.3250868055556  40 17.5  C 40 20.6749131944444  39.1059027777778 23.6029730902778  37.3177083333333 26.2841796875  C 35.5295138888889 28.9653862847222  33.1032986111111 31.0883246527778  30.0390625 32.6529947916667  C 26.9748263888889 34.2176649305556  23.6284722222222 35  20 35  C 16.3715277777778 35  13.0251736111111 34.2176649305556  9.9609375 32.6529947916667  C 6.89670138888889 31.0883246527778  4.47048611111111 28.9653862847222  2.68229166666667 26.2841796875  C 0.894097222222222 23.6029730902778  0 20.6749131944444  0 17.5  C 0 14.3250868055556  0.894097222222222 11.3970269097222  2.68229166666667 8.7158203125  C 4.47048611111111 6.03461371527778  6.89670138888889 3.91167534722222  9.9609375 2.34700520833333  C 13.0251736111111 0.782335069444441  16.3715277777778 0  20 0  C 23.6284722222222 0  26.9748263888889 0.782335069444441  30.0390625 2.34700520833333  C 33.1032986111111 3.91167534722222  35.5295138888889 6.03461371527778  37.3177083333333 8.7158203125  Z " fill-rule="nonzero" fill="#000000" stroke="none" transform="matrix(1 0 0 1 1123 50 )" />
  </g>
</svg>