<?xml version="1.0" encoding="utf-8"?>
<svg version="1.1" xmlns:xlink="http://www.w3.org/1999/xlink" width="14px" height="18px" xmlns="http://www.w3.org/2000/svg">
  <g transform="matrix(1 0 0 1 -1250 -9 )">
    <path d="M 13.6700336700337 13.4545454545455  C 13.8900112233446 13.7373737373737  14 14.0808080808081  14 14.4848484848485  C 14 14.8888888888889  13.8900112233446 15.2323232323232  13.6700336700337 15.5151515151515  L 12.0673400673401 17.5757575757576  C 11.8473625140292 17.8585858585859  11.5802469135802 18  11.2659932659933 18  C 10.9517396184063 18  10.6846240179574 17.8585858585859  10.4646464646465 17.5757575757576  L 7 13.1212121212121  L 3.53535353535354 17.5757575757576  C 3.31537598204265 17.8585858585859  3.04826038159371 18  2.73400673400673 18  C 2.41975308641975 18  2.15263748597082 17.8585858585859  1.93265993265993 17.5757575757576  L 0.32996632996633 15.5151515151515  C 0.109988776655443 15.2323232323232  0 14.8888888888889  0 14.4848484848485  C 0 14.0808080808081  0.109988776655443 13.7373737373737  0.32996632996633 13.4545454545455  L 3.79461279461279 9  L 0.32996632996633 4.54545454545455  C 0.109988776655443 4.26262626262626  0 3.91919191919192  0 3.51515151515152  C 0 3.11111111111111  0.109988776655443 2.76767676767677  0.32996632996633 2.48484848484849  L 1.93265993265993 0.424242424242424  C 2.15263748597082 0.141414141414141  2.41975308641975 0  2.73400673400673 0  C 3.04826038159371 0  3.31537598204265 0.141414141414141  3.53535353535354 0.424242424242424  L 7 4.87878787878788  L 10.4646464646465 0.424242424242424  C 10.6846240179574 0.141414141414141  10.9517396184063 0  11.2659932659933 0  C 11.5802469135802 0  11.8473625140292 0.141414141414141  12.0673400673401 0.424242424242424  L 13.6700336700337 2.48484848484849  C 13.8900112233446 2.76767676767677  14 3.11111111111111  14 3.51515151515152  C 14 3.91919191919192  13.8900112233446 4.26262626262626  13.6700336700337 4.54545454545455  L 10.2053872053872 9  L 13.6700336700337 13.4545454545455  Z " fill-rule="nonzero" fill="#aaaaaa" stroke="none" transform="matrix(1 0 0 1 1250 9 )" />
  </g>
</svg>