<?xml version="1.0" encoding="utf-8"?>
<svg version="1.1" xmlns:xlink="http://www.w3.org/1999/xlink" width="12px" height="12px" viewBox="214 956.5  12 12" xmlns="http://www.w3.org/2000/svg">
  <path d="M 220 956.5  C 223.36 956.5  226 959.14  226 962.5  C 226 965.86  223.36 968.5  220 968.5  C 216.64 968.5  214 965.86  214 962.5  C 214 959.14  216.64 956.5  220 956.5  Z " fill-rule="nonzero" fill="#ffffff" stroke="none" />
  <path d="M 220 957  C 223.08 957  225.5 959.42  225.5 962.5  C 225.5 965.58  223.08 968  220 968  C 216.92 968  214.5 965.58  214.5 962.5  C 214.5 959.42  216.92 957  220 957  Z " stroke-width="1" stroke="#797979" fill="none" />
  <path d="M 220 965.5  C 218.32 965.5  217 964.18  217 962.5  C 217 960.82  218.32 959.5  220 959.5  C 221.68 959.5  223 960.82  223 962.5  C 223 964.18  221.68 965.5  220 965.5  " fill-rule="nonzero" fill="#797979" stroke="none" />
</svg>