<?xml version="1.0" encoding="utf-8"?>
<svg version="1.1" xmlns:xlink="http://www.w3.org/1999/xlink" width="12px" height="12px" viewBox="280 956.5  12 12" xmlns="http://www.w3.org/2000/svg">
  <path d="M 286 956.5  C 289.36 956.5  292 959.14  292 962.5  C 292 965.86  289.36 968.5  286 968.5  C 282.64 968.5  280 965.86  280 962.5  C 280 959.14  282.64 956.5  286 956.5  Z " fill-rule="nonzero" fill="#ffffff" stroke="none" />
  <path d="M 286 957  C 289.08 957  291.5 959.42  291.5 962.5  C 291.5 965.58  289.08 968  286 968  C 282.92 968  280.5 965.58  280.5 962.5  C 280.5 959.42  282.92 957  286 957  Z " stroke-width="1" stroke="#797979" fill="none" />
  <path d="M 286 965.5  C 284.32 965.5  283 964.18  283 962.5  C 283 960.82  284.32 959.5  286 959.5  C 287.68 959.5  289 960.82  289 962.5  C 289 964.18  287.68 965.5  286 965.5  " fill-rule="nonzero" fill="#797979" stroke="none" />
</svg>