<?xml version="1.0" encoding="utf-8"?>
<svg version="1.1" xmlns:xlink="http://www.w3.org/1999/xlink" width="5px" height="19px" xmlns="http://www.w3.org/2000/svg">
  <g transform="matrix(1 0 0 1 -439 -323 )">
    <path d="M 4.43946188340807 14.5063920454545  C 4.58146487294469 14.6773200757576  4.652466367713 14.8797348484848  4.652466367713 15.1136363636364  L 4.652466367713 18.1363636363636  C 4.652466367713 18.3702651515151  4.58146487294469 18.5726799242424  4.43946188340807 18.7436079545455  C 4.29745889387145 18.9145359848485  4.12929745889387 19  3.93497757847534 19  L 1.06502242152466 19  C 0.870702541106129 19  0.70254110612855 18.9145359848485  0.560538116591928 18.7436079545455  C 0.418535127055306 18.5726799242424  0.347533632286996 18.3702651515151  0.347533632286996 18.1363636363636  L 0.347533632286996 15.1136363636364  C 0.347533632286996 14.8797348484848  0.418535127055306 14.6773200757576  0.560538116591928 14.5063920454545  C 0.70254110612855 14.3354640151515  0.870702541106129 14.25  1.06502242152466 14.25  L 3.93497757847534 14.25  C 4.12929745889387 14.25  4.29745889387145 14.3354640151515  4.43946188340807 14.5063920454545  Z M 4.79260089686099 0.256392045454546  C 4.93086696562033 0.427320075757573  4.99626307922272 0.629734848484847  4.98878923766816 0.863636363636363  L 4.67488789237668 11.2272727272727  C 4.66741405082212 11.4611742424242  4.59080717488789 11.6635890151515  4.44506726457399 11.8345170454545  C 4.29932735426009 12.0054450757576  4.12929745889387 12.0909090909091  3.93497757847534 12.0909090909091  L 1.06502242152466 12.0909090909091  C 0.870702541106129 12.0909090909091  0.70067264573991 12.0054450757576  0.554932735426009 11.8345170454545  C 0.409192825112108 11.6635890151515  0.332585949177878 11.4611742424242  0.325112107623318 11.2272727272727  L 0.0112107623318386 0.863636363636363  C 0.00373692077727963 0.629734848484847  0.0691330343796712 0.427320075757573  0.207399103139013 0.256392045454546  C 0.345665171898356 0.0854640151515134  0.511958146487295 0  0.70627802690583 0  L 4.29372197309417 0  C 4.48804185351271 0  4.65433482810164 0.0854640151515134  4.79260089686099 0.256392045454546  Z " fill-rule="nonzero" fill="#d9001b" stroke="none" transform="matrix(1 0 0 1 439 323 )" />
  </g>
</svg>