<?xml version="1.0" encoding="utf-8"?>
<svg version="1.1" xmlns:xlink="http://www.w3.org/1999/xlink" width="12px" height="12px" viewBox="355 956.5  12 12" xmlns="http://www.w3.org/2000/svg">
  <path d="M 361 956.5  C 364.36 956.5  367 959.14  367 962.5  C 367 965.86  364.36 968.5  361 968.5  C 357.64 968.5  355 965.86  355 962.5  C 355 959.14  357.64 956.5  361 956.5  Z " fill-rule="nonzero" fill="#ffffff" stroke="none" />
  <path d="M 361 957  C 364.08 957  366.5 959.42  366.5 962.5  C 366.5 965.58  364.08 968  361 968  C 357.92 968  355.5 965.58  355.5 962.5  C 355.5 959.42  357.92 957  361 957  Z " stroke-width="1" stroke="#797979" fill="none" />
  <path d="M 361 965.5  C 359.32 965.5  358 964.18  358 962.5  C 358 960.82  359.32 959.5  361 959.5  C 362.68 959.5  364 960.82  364 962.5  C 364 964.18  362.68 965.5  361 965.5  " fill-rule="nonzero" fill="#797979" stroke="none" />
</svg>