<?xml version="1.0" encoding="utf-8"?>
<svg version="1.1" xmlns:xlink="http://www.w3.org/1999/xlink" width="18px" height="20px" xmlns="http://www.w3.org/2000/svg">
  <g transform="matrix(1 0 0 1 -812 -230 )">
    <path d="M 17.5757575757576 14.9494949494949  C 17.8585858585859 15.2637485970819  18 15.645342312009  18 16.0942760942761  C 18 16.5432098765432  17.8585858585859 16.9248035914703  17.5757575757576 17.2390572390572  L 15.5151515151515 19.5286195286195  C 15.2323232323232 19.8428731762065  14.8888888888889 20  14.4848484848485 20  C 14.0808080808081 20  13.7373737373737 19.8428731762065  13.4545454545455 19.5286195286195  L 9 14.5791245791246  L 4.54545454545455 19.5286195286195  C 4.26262626262626 19.8428731762065  3.91919191919192 20  3.51515151515152 20  C 3.11111111111111 20  2.76767676767677 19.8428731762065  2.48484848484848 19.5286195286195  L 0.424242424242424 17.2390572390572  C 0.141414141414142 16.9248035914703  0 16.5432098765432  0 16.0942760942761  C 0 15.645342312009  0.141414141414142 15.2637485970819  0.424242424242424 14.9494949494949  L 4.87878787878788 10  L 0.424242424242424 5.05050505050505  C 0.141414141414142 4.73625140291807  0 4.35465768799102  0 3.90572390572391  C 0 3.45679012345679  0.141414141414142 3.07519640852974  0.424242424242424 2.76094276094276  L 2.48484848484848 0.471380471380471  C 2.76767676767677 0.15712682379349  3.11111111111111 0  3.51515151515152 0  C 3.91919191919192 0  4.26262626262626 0.15712682379349  4.54545454545455 0.471380471380471  L 9 5.42087542087542  L 13.4545454545455 0.471380471380471  C 13.7373737373737 0.15712682379349  14.0808080808081 0  14.4848484848485 0  C 14.8888888888889 0  15.2323232323232 0.15712682379349  15.5151515151515 0.471380471380471  L 17.5757575757576 2.76094276094276  C 17.8585858585859 3.07519640852974  18 3.45679012345679  18 3.90572390572391  C 18 4.35465768799102  17.8585858585859 4.73625140291807  17.5757575757576 5.05050505050505  L 13.1212121212121 10  L 17.5757575757576 14.9494949494949  Z " fill-rule="nonzero" fill="#000000" stroke="none" transform="matrix(1 0 0 1 812 230 )" />
  </g>
</svg>