<?xml version="1.0" encoding="utf-8"?>
<svg version="1.1" xmlns:xlink="http://www.w3.org/1999/xlink" width="12px" height="12px" viewBox="369 351.5  12 12" xmlns="http://www.w3.org/2000/svg">
  <path d="M 375 351.5  C 378.36 351.5  381 354.14  381 357.5  C 381 360.86  378.36 363.5  375 363.5  C 371.64 363.5  369 360.86  369 357.5  C 369 354.14  371.64 351.5  375 351.5  Z " fill-rule="nonzero" fill="#f0f0f0" stroke="none" />
  <path d="M 375 352  C 378.08 352  380.5 354.42  380.5 357.5  C 380.5 360.58  378.08 363  375 363  C 371.92 363  369.5 360.58  369.5 357.5  C 369.5 354.42  371.92 352  375 352  Z " stroke-width="1" stroke="#797979" fill="none" />
  <path d="M 375 360.5  C 373.32 360.5  372 359.18  372 357.5  C 372 355.82  373.32 354.5  375 354.5  C 376.68 354.5  378 355.82  378 357.5  C 378 359.18  376.68 360.5  375 360.5  " fill-rule="nonzero" fill="#797979" stroke="none" />
</svg>