<?xml version="1.0" encoding="utf-8"?>
<svg version="1.1" xmlns:xlink="http://www.w3.org/1999/xlink" width="12px" height="12px" viewBox="591 351.5  12 12" xmlns="http://www.w3.org/2000/svg">
  <path d="M 597 351.5  C 600.36 351.5  603 354.14  603 357.5  C 603 360.86  600.36 363.5  597 363.5  C 593.64 363.5  591 360.86  591 357.5  C 591 354.14  593.64 351.5  597 351.5  Z " fill-rule="nonzero" fill="#ffffff" stroke="none" />
  <path d="M 597 352  C 600.08 352  602.5 354.42  602.5 357.5  C 602.5 360.58  600.08 363  597 363  C 593.92 363  591.5 360.58  591.5 357.5  C 591.5 354.42  593.92 352  597 352  Z " stroke-width="1" stroke="#797979" fill="none" />
  <path d="M 597 360.5  C 595.32 360.5  594 359.18  594 357.5  C 594 355.82  595.32 354.5  597 354.5  C 598.68 354.5  600 355.82  600 357.5  C 600 359.18  598.68 360.5  597 360.5  " fill-rule="nonzero" fill="#797979" stroke="none" />
</svg>