<?xml version="1.0" encoding="utf-8"?>
<svg version="1.1" xmlns:xlink="http://www.w3.org/1999/xlink" width="12px" height="12px" viewBox="305 200.5  12 12" xmlns="http://www.w3.org/2000/svg">
  <path d="M 311 200.5  C 314.36 200.5  317 203.14  317 206.5  C 317 209.86  314.36 212.5  311 212.5  C 307.64 212.5  305 209.86  305 206.5  C 305 203.14  307.64 200.5  311 200.5  Z " fill-rule="nonzero" fill="#ffffff" stroke="none" />
  <path d="M 311 201  C 314.08 201  316.5 203.42  316.5 206.5  C 316.5 209.58  314.08 212  311 212  C 307.92 212  305.5 209.58  305.5 206.5  C 305.5 203.42  307.92 201  311 201  Z " stroke-width="1" stroke="#797979" fill="none" />
  <path d="M 311 209.5  C 309.32 209.5  308 208.18  308 206.5  C 308 204.82  309.32 203.5  311 203.5  C 312.68 203.5  314 204.82  314 206.5  C 314 208.18  312.68 209.5  311 209.5  " fill-rule="nonzero" fill="#797979" stroke="none" />
</svg>