<?xml version="1.0" encoding="utf-8"?>
<svg version="1.1" xmlns:xlink="http://www.w3.org/1999/xlink" width="50px" height="50px" xmlns="http://www.w3.org/2000/svg">
  <g transform="matrix(1 0 0 1 -33 -59 )">
    <path d="M 8.56119791666667 25.48828125  L 16.7643229166667 25.48828125  L 16.7643229166667 29.6549479166667  L 8.56119791666667 29.6549479166667  L 8.56119791666667 25.48828125  Z M 8.56119791666667 17.1875  L 16.7643229166667 17.1875  L 16.7643229166667 21.3216145833333  L 8.56119791666667 21.3216145833333  L 8.56119791666667 17.1875  Z M 30.3385416666667 33  L 41.4388020833333 33  L 41.4388020833333 38  L 30.3385416666667 38  L 30.3385416666667 33  Z M 19.5638020833333 25  L 41.4388020833333 25  L 41.4388020833333 29  L 19.5638020833333 29  L 19.5638020833333 25  Z M 19.5638020833333 18  L 41.4388020833333 18  L 41.4388020833333 22  L 19.5638020833333 22  L 19.5638020833333 18  Z M 45.6380208333333 45.6380208333333  C 45.7682291666667 45.5078125  45.8333333333333 45.3559027777778  45 45.1822916666667  L 45 4.81770833333333  C 45.8333333333333 4.64409722222222  45.7682291666667 4.4921875  45.6380208333333 4.36197916666667  C 45.5078125 4.23177083333333  45.3559027777778 4.16666666666667  45.1822916666667 4.16666666666667  L 44.140625 4.16666666666667  L 31.8359375 12.5  L 25 6.93359375  L 18.1640625 12.5  L 5.859375 4.16666666666667  L 4.81770833333333 4.16666666666667  C 4.64409722222222 4.16666666666667  4.4921875 4.23177083333333  4.36197916666667 4.36197916666667  C 4.23177083333333 4.4921875  4.16666666666667 4.64409722222222  5 4.81770833333333  L 5 45.1822916666667  C 4.16666666666667 45.3559027777778  4.23177083333333 45.5078125  4.36197916666667 45.6380208333333  C 4.4921875 45.7682291666667  4.64409722222222 45.8333333333333  4.81770833333333 45  L 45.1822916666667 45  C 45.3559027777778 45.8333333333333  45.5078125 45.7682291666667  45.6380208333333 45.6380208333333  Z M 10.8072916666667 5  L 18.0013020833333 9.04947916666667  L 24.0234375 5  L 10.8072916666667 5  Z M 25.9765625 5  L 31.9986979166667 9.04947916666667  L 39.1927083333333 5  L 25.9765625 5  Z M 48.6002604166667 1.39973958333333  C 49.5334201388889 2.33289930555555  50 3.47222222222222  50 4.81770833333333  L 50 45.1822916666667  C 50 46.5277777777778  49.5334201388889 47.6671006944444  48.6002604166667 48.6002604166667  C 47.6671006944445 49.5334201388889  46.5277777777778 50  45.1822916666667 50  L 4.81770833333333 50  C 3.47222222222222 50  2.33289930555556 49.5334201388889  1.39973958333333 48.6002604166667  C 0.466579861111111 47.6671006944444  0 46.5277777777778  0 45.1822916666667  L 0 4.81770833333333  C 0 3.47222222222222  0.466579861111111 2.33289930555555  1.39973958333333 1.39973958333333  C 2.33289930555556 0.46657986111111  3.47222222222222 0  4.81770833333333 0  L 45.1822916666667 0  C 46.5277777777778 0  47.6671006944445 0.46657986111111  48.6002604166667 1.39973958333333  Z " fill-rule="nonzero" fill="#000000" stroke="none" transform="matrix(1 0 0 1 33 59 )" />
  </g>
</svg>